<svg xmlns="http://www.w3.org/2000/svg" viewBox="0 0 26.3 25.3"><path d="M26,20.3c-3.1-2.6-1.5-6.7-2.9-10,.2-1.4,2.1-1.8,2.6-3.2,2.3-3.6-1.8-7.7-5.6-7-1.1,0-1.8.9-.8,1.3,5.1-1,8,5.7,1.8,6.8-4.5-.7-9.7,3.6-12.8-1.1-.5-2.6-1.6-5-3.6-6.6-.8.4-.2.8-1.1.1-.4,0-.4.7-.3,1,.5,1.1,0,.9-.7,1.2-.9.5-1.6,2.2-2.2,2.8l-.3.2c.2.8.6,1.7,1.3,2.2,1.8,0,1.4,1.6,1.8,3-.6,3.9,3.7,7.3,2.2,10.8,1,1.8-2.5,1.4-1.8,2.7.4,1,2.3.8,2.8-.1.8-.7,1.1-2.4,1.6-3.4.6,1.2,1.3,2.5-.1,2.8-1,1.1,1.4,1.5,1.8.7,1.4-1.1-.2-4,.7-5.5,1.9.2,7.5-2.6,7.4.6,1.6,4.4-.9,2.7-1.3,4.8,2.5,1.7,3.5-1.9,3.9-3.7,0-2,.9-.7,2-.3,1.4.4,2.3,1.3,1.7,2.8-.4.5-1.6.4-1.4,1.3.2.5.7.6,1.2.6,2.5.6,2.5-3,2.1-4.7Z"/></svg>
