<?xml version="1.0" encoding="UTF-8"?>
<svg id="Layer_2" xmlns="http://www.w3.org/2000/svg" version="1.1" viewBox="0 0 1373.5 78.5">
  <!-- Generator: Adobe Illustrator 30.6.0, SVG Export Plug-In . SVG Version: 2.1.4 Build 109)  -->
  <path d="M0,1.1h22.4l10.8,47.8h.6L46.3,1.1h17.7l12.7,48h.6L88.1,1.1h22.4l-22.5,76.4h-19.3l-13.2-43.7h-.6l-13.2,43.7h-19.2L0,1.1Z"/>
  <path d="M130.3,1.1h54.6v16.2h-34.5v13.8h31.7v16.2h-31.7v13.8h34.4v16.2h-54.4V1.1Z"/>
  <path d="M208.4,77.4V1.1h28.8c7.8,0,14.6,1.5,20.3,4.6,5.7,3.1,10.1,7.5,13.2,13.2s4.6,12.5,4.6,20.4-1.5,14.7-4.6,20.4c-3.1,5.7-7.5,10.1-13.2,13.2s-12.4,4.6-20.2,4.6h-29ZM236.6,60.4c4.1,0,7.5-.7,10.2-2s4.7-3.5,6.1-6.6,2.1-7.3,2.1-12.5-.7-9.5-2.1-12.6-3.5-5.3-6.3-6.6-6.3-2-10.6-2h-7.7v42.2h8.2Z"/>
  <path d="M298.2,77.4V1.1h28.8c7.8,0,14.6,1.5,20.3,4.6,5.7,3.1,10.1,7.5,13.2,13.2s4.6,12.5,4.6,20.4-1.5,14.7-4.6,20.4-7.5,10.1-13.2,13.2-12.4,4.6-20.2,4.6h-29ZM326.4,60.4c4.1,0,7.5-.7,10.2-2s4.7-3.5,6.1-6.6,2.1-7.3,2.1-12.5-.7-9.5-2.1-12.6-3.5-5.3-6.3-6.6-6.3-2-10.6-2h-7.7v42.2h8.2Z"/>
  <path d="M408,77.4h-20V1.1h20v76.4Z"/>
  <path d="M497,77.4h-16.8l-28.4-41.3h-.5v41.3h-20V1.1h17.1l28,41h.6V1.1h20v76.4Z"/>
  <path d="M565.7,19.8c-2.2-1.5-5-2.3-8.3-2.3s-6.5.9-9.1,2.6-4.5,4.2-5.8,7.4-2,7.1-2,11.6c0,6.9,1.4,12.3,4.3,16.1s7,5.7,12.5,5.7,8.3-1,10.7-3.1,3.8-4.9,3.8-8.5h-14.1v-14.4h33.6v10.4c0,6.8-1.5,12.7-4.4,17.6s-6.9,8.8-12.1,11.4c-5.2,2.6-11.1,4-17.7,4s-13.8-1.6-19.5-4.8-10-7.7-13.1-13.6-4.7-12.8-4.7-20.8,1.6-15.2,4.9-21.1,7.7-10.5,13.4-13.6,11.9-4.7,18.9-4.7,11.3,1.1,16.2,3.4,8.8,5.3,11.9,9.3,4.8,8.5,5.4,13.5h-20.4c-.7-2.7-2.1-4.9-4.3-6.4Z"/>
  <path d="M670.8,77.4h-20V1.1h20v76.4Z"/>
  <path d="M759.8,77.4h-16.8l-28.4-41.3h-.5v41.3h-20V1.1h17.1l28,41h.6V1.1h20v76.4Z"/>
  <path d="M819,55.5h.6l16-54.4h22.7l-25.3,76.4h-27.3L780.3,1.1h22.7l16,54.4Z"/>
  <path d="M899,77.4h-20V1.1h20v76.4Z"/>
  <path d="M920.1,1.1h65.8v16.2h-23v60.1h-19.8V17.3h-23V1.1Z"/>
  <path d="M994.5,77.4L1019.9,1.1h27.3l25.3,76.4h-21.6l-4.6-15h-25.6l-4.5,15h-21.7ZM1041.7,47.3l-7.9-25.6h-.6l-7.8,25.6h16.3Z"/>
  <path d="M1081.3,1.1h65.8v16.2h-23v60.1h-19.8V17.3h-23V1.1Z"/>
  <path d="M1188.2,77.4h-20V1.1h20v76.4Z"/>
  <path d="M1280.2,60.5c-3.2,5.9-7.6,10.4-13.2,13.5-5.6,3.1-11.9,4.6-18.9,4.6s-13.4-1.5-19-4.6c-5.6-3.1-10-7.5-13.2-13.5-3.2-5.9-4.8-13-4.8-21.2s1.6-15.3,4.8-21.2c3.2-5.9,7.6-10.4,13.2-13.5,5.6-3.1,11.9-4.6,19-4.6s13.3,1.5,18.9,4.6,10,7.5,13.2,13.5c3.2,5.9,4.8,13,4.8,21.2s-1.6,15.3-4.8,21.2ZM1260.1,23.1c-2.8-3.7-6.8-5.6-12.1-5.6s-9.3,1.9-12.1,5.6-4.2,9.1-4.2,16.1,1.4,12.4,4.2,16.1,6.9,5.6,12.1,5.6,9.3-1.9,12.1-5.6,4.2-9.1,4.2-16.1-1.4-12.4-4.2-16.1Z"/>
  <path d="M1373.5,77.4h-16.8l-28.4-41.3h-.5v41.3h-20V1.1h17.1l28,41h.6V1.1h20v76.4Z"/>
</svg>