<?xml version="1.0" encoding="UTF-8"?>
<svg id="Layer_2" xmlns="http://www.w3.org/2000/svg" version="1.1" viewBox="0 0 215.4 198.4">
  <!-- Generator: Adobe Illustrator 30.5.1, SVG Export Plug-In . SVG Version: 2.1.4 Build 3)  -->
  <defs>
    <style>
      .st0 {
        isolation: isolate;
      }

      .st1 {
        fill: #c8c8c9;
      }

      .st2 {
        fill: #fff;
      }

      .st3 {
        fill: #595757;
      }

      .st4 {
        fill: #1a1a1a;
      }
    </style>
  </defs>
  <rect class="st2" width="215.4" height="198.4"/>
  <rect class="st4" x="97.6" y="23.1" width="20.2" height="1"/>
  <g>
    <g class="st0">
      <g class="st0">
        <path class="st4" d="M105.9,16.2h-2.4V7.1h0l-2.6,1.6v-2.1l2.8-1.8h2.2v11.3Z"/>
        <path class="st4" d="M113.4,16.2h-2.4V7.1h0l-2.6,1.6v-2.1l2.8-1.8h2.2v11.3Z"/>
      </g>
    </g>
    <g class="st0">
      <g class="st0">
        <path class="st4" d="M98.4,40.5l4.1-3.7c.4-.4.7-.7.9-1,.2-.3.4-.5.5-.8.1-.3.2-.5.2-.8s0-.6-.2-.9c-.2-.2-.4-.4-.6-.6s-.6-.2-.9-.2c-.5,0-1,.2-1.3.5-.3.3-.5.7-.5,1.3h-2.2c0-.7.2-1.4.5-1.9s.8-1,1.4-1.3,1.3-.4,2.1-.4,1.5.1,2.1.4,1.1.7,1.4,1.2.5,1.1.5,1.7,0,.9-.3,1.3-.5.9-.9,1.4c-.4.5-1,1.1-1.8,1.8l-1.7,1.7h0c0,0,4.8,0,4.8,0v1.9h-8.1v-1.7Z"/>
        <path class="st4" d="M110.4,41.9c-.7-.3-1.2-.7-1.6-1.1s-.6-1-.6-1.6.1-.9.3-1.3.5-.7.9-1,.8-.4,1.3-.5h0c-.4-.2-.8-.3-1.1-.6s-.6-.5-.7-.9-.3-.7-.3-1.1c0-.6.2-1.1.5-1.6s.8-.8,1.4-1.1,1.3-.4,2.1-.4,1.4.1,2.1.4,1.1.6,1.4,1.1.5,1,.5,1.6c0,.4,0,.8-.3,1.1s-.4.6-.7.9-.7.4-1.1.5h0c.5.2.9.3,1.3.6s.7.6.9,1,.3.8.3,1.3-.2,1.2-.6,1.6-.9.9-1.6,1.1-1.4.4-2.3.4-1.6-.1-2.3-.4ZM113.7,40.3c.3-.1.5-.3.7-.6s.2-.5.2-.9,0-.6-.3-.9-.4-.5-.7-.6-.6-.2-1-.2-.7,0-1,.2-.5.3-.7.6-.3.6-.2.9c0,.3,0,.6.2.9s.4.4.7.6.7.2,1,.2.7,0,1-.2ZM113.5,35.4c.3-.1.5-.3.6-.6s.2-.5.2-.8,0-.5-.2-.8-.3-.4-.6-.5-.6-.2-.9-.2-.6,0-.9.2-.5.3-.6.5-.2.5-.2.8,0,.6.2.8.3.4.6.6.6.2.9.2.6,0,.9-.2Z"/>
      </g>
    </g>
  </g>
  <g class="st0">
    <g class="st0">
      <path class="st1" d="M16.5,61.2c-.2-.2-.6-.3-.9-.3s-.5,0-.7.1-.3.2-.4.3-.2.3-.2.5c0,.3.1.5.3.6.2.1.5.3.9.3l.7.2c.6.1,1.1.4,1.5.7.4.3.6.8.6,1.3s-.1.8-.3,1.1-.5.6-.9.7c-.4.2-.9.3-1.4.3s-1,0-1.4-.3c-.4-.2-.7-.4-.9-.7-.2-.3-.3-.7-.4-1.2h1.2c0,.4.2.6.5.8s.6.3,1,.3.5,0,.7-.1.4-.2.5-.4c.1-.2.2-.3.2-.5s-.1-.5-.3-.6c-.2-.1-.5-.3-1-.4l-.8-.2c-1.3-.3-1.9-1-1.9-1.9s.1-.8.3-1.1c.2-.3.5-.6.9-.7.4-.2.8-.3,1.3-.3s.9,0,1.3.3c.4.2.7.4.9.7s.3.7.3,1.1h-1.2c0-.3-.2-.5-.4-.7Z"/>
    </g>
  </g>
  <g class="st0">
    <g class="st0">
      <path class="st3" d="M44,59.9l2.1,5.1h0l2.1-5.1h1.6v7.1h-1.2v-4.9h0l-2,4.8h-.9l-2-4.9h0v4.9h-1.2v-7.1h1.6Z"/>
    </g>
  </g>
  <g class="st0">
    <g class="st0">
      <path class="st3" d="M74,59.9h5.6v1.1h-2.2v6h-1.3v-6h-2.2v-1.1Z"/>
    </g>
  </g>
  <g class="st0">
    <g class="st0">
      <path class="st3" d="M102.8,59.9h1.4l1.3,5.2h0l1.4-5.2h1.2l1.4,5.2h0l1.3-5.2h1.4l-2,7.1h-1.3l-1.4-5h0l-1.4,5h-1.3l-2-7.1Z"/>
    </g>
  </g>
  <g class="st0">
    <g class="st0">
      <path class="st3" d="M135.4,59.9h5.6v1.1h-2.2v6h-1.3v-6h-2.2v-1.1Z"/>
    </g>
  </g>
  <g class="st0">
    <g class="st0">
      <path class="st3" d="M166.8,59.9h4.5v1.1h-3.3v1.9h2.9v1.1h-2.9v3h-1.3v-7.1Z"/>
    </g>
  </g>
  <g class="st0">
    <g class="st0">
      <path class="st4" d="M200.6,61.2c-.2-.2-.6-.3-.9-.3s-.5,0-.7.1-.3.2-.4.3c-.1.1-.2.3-.2.5,0,.3.1.5.3.6.2.1.5.3.9.3l.7.2c.6.1,1.1.4,1.5.7.4.3.6.8.6,1.3s-.1.8-.3,1.1c-.2.3-.5.6-.9.7-.4.2-.9.3-1.4.3s-1,0-1.4-.3c-.4-.2-.7-.4-.9-.7-.2-.3-.3-.7-.4-1.2h1.2c0,.4.2.6.5.8.3.2.6.3,1,.3s.5,0,.7-.1.4-.2.5-.4c.1-.2.2-.3.2-.5s-.1-.5-.3-.6c-.2-.1-.5-.3-1-.4l-.8-.2c-1.3-.3-1.9-1-1.9-1.9s.1-.8.3-1.1c.2-.3.5-.6.9-.7.4-.2.8-.3,1.3-.3s.9,0,1.3.3c.4.2.7.4.9.7.2.3.3.7.3,1.1h-1.2c0-.3-.2-.5-.4-.7Z"/>
    </g>
  </g>
  <g class="st0">
    <g class="st0">
      <path class="st1" d="M16.5,92.5h-.9v-6.2h0l-1.7,1.1v-.9l1.8-1.2h.9v7.1Z"/>
    </g>
  </g>
  <g class="st0">
    <g class="st0">
      <path class="st3" d="M43.9,91.9l2.4-2.5c.3-.3.6-.6.7-.8.2-.2.3-.4.4-.6,0-.2.1-.4.1-.6s0-.4-.2-.6-.3-.3-.5-.4-.5-.2-.7-.2-.5,0-.7.2-.4.3-.5.5-.2.4-.2.7h-.8c0-.4,0-.8.3-1.1s.5-.6.8-.7.7-.3,1.1-.3.8,0,1.1.3.6.4.8.7.3.6.3,1,0,.5-.1.8c0,.2-.3.5-.5.8-.2.3-.6.7-1,1.1l-1.6,1.7h0c0,0,3.4,0,3.4,0v.8h-4.6v-.6Z"/>
    </g>
  </g>
  <g class="st0">
    <g class="st0">
      <path class="st3" d="M75.6,92.4c-.4-.2-.7-.4-.9-.7s-.3-.6-.3-1h.9c0,.2,0,.4.2.6s.3.3.6.4c.2,0,.5.1.8.1s.6,0,.8-.2c.2-.1.4-.3.6-.4.1-.2.2-.4.2-.6s0-.5-.2-.7-.3-.4-.6-.5-.6-.2-.9-.2h-.6v-.8h.6c.3,0,.5,0,.8-.2s.4-.2.5-.4.2-.4.2-.6,0-.4-.2-.6-.3-.3-.5-.4c-.2,0-.4-.1-.7-.1s-.5,0-.7.1-.4.2-.5.4c-.1.2-.2.4-.2.6h-.8c0-.4.1-.7.3-1,.2-.3.5-.5.8-.7.4-.2.7-.2,1.2-.2s.8,0,1.1.3c.3.2.6.4.8.7s.3.6.3.9c0,.4-.1.7-.3,1s-.5.5-.9.6h0c.3,0,.6.2.8.4.2.2.4.4.5.6.1.2.2.5.2.8,0,.4-.1.7-.3,1-.2.3-.5.5-.9.7s-.8.3-1.3.3-.9,0-1.2-.2Z"/>
    </g>
  </g>
  <g class="st0">
    <g class="st0">
      <path class="st3" d="M104.9,90.3l3.2-4.9h1.1v4.9h1v.8h-1v1.4h-.8v-1.4h-3.4v-.7ZM108.3,90.3v-3.7h0l-2.4,3.7h0c0,0,2.5,0,2.5,0Z"/>
    </g>
  </g>
  <g class="st0">
    <g class="st0">
      <path class="st3" d="M137.1,92.4c-.3-.2-.6-.4-.8-.7-.2-.3-.3-.6-.3-1h.8c0,.2.1.4.2.6.1.2.3.3.5.4.2,0,.4.1.7.1s.6,0,.8-.2c.2-.1.4-.3.6-.6s.2-.5.2-.8,0-.6-.2-.8c-.1-.2-.3-.4-.6-.6-.2-.1-.5-.2-.8-.2-.6,0-1.1.2-1.3.6h-.8l.5-3.9h3.8v.8h-3.1l-.3,2.1h0c.2-.1.4-.2.6-.3.2,0,.5-.1.7-.1.4,0,.8.1,1.2.3.4.2.6.5.8.8.2.4.3.8.3,1.2s-.1.9-.3,1.2c-.2.4-.5.6-.9.8s-.8.3-1.2.3-.8,0-1.1-.2Z"/>
    </g>
  </g>
  <g class="st0">
    <g class="st0">
      <path class="st3" d="M167.7,92.3c-.4-.2-.7-.6-1-1.1-.2-.5-.4-1.2-.4-2s.1-1.5.3-2.1c.2-.6.5-1,.9-1.3.4-.3.9-.5,1.4-.5s.8,0,1.1.2c.3.2.6.4.8.7.2.3.3.6.4,1h-.9c0-.3-.3-.6-.5-.8-.2-.2-.6-.3-.9-.3s-.7.1-1,.3c-.3.2-.5.5-.6.9-.1.4-.2.9-.2,1.5h0c.2-.3.5-.5.8-.7.3-.2.7-.2,1-.2s.8.1,1.2.3c.4.2.6.5.8.8.2.4.3.8.3,1.2s-.1.8-.3,1.2c-.2.4-.5.7-.9.9s-.8.3-1.3.3-.9-.1-1.3-.3ZM169.8,91.6c.2-.1.4-.3.6-.6.1-.2.2-.5.2-.8,0-.3,0-.6-.2-.8s-.3-.4-.6-.6c-.2-.1-.5-.2-.8-.2s-.6,0-.8.2c-.3.1-.4.3-.6.6-.1.2-.2.5-.2.8,0,.3,0,.5.2.8s.3.4.6.6c.2.1.5.2.8.2s.6,0,.8-.2Z"/>
    </g>
  </g>
  <g class="st0">
    <g class="st0">
      <path class="st4" d="M201,86.3h0s-3.7,0-3.7,0v-.8h4.6v.8l-3.2,6.2h-.9l3.2-6.2Z"/>
    </g>
  </g>
  <g class="st0">
    <g class="st0">
      <path class="st1" d="M14.2,117.9c-.4-.2-.7-.4-.9-.7s-.3-.6-.3-1c0-.3,0-.6.2-.8.1-.3.3-.5.5-.6s.5-.3.7-.3h0c-.2,0-.4-.2-.6-.3-.2-.2-.3-.3-.4-.6s-.1-.5-.1-.7,0-.7.3-1,.5-.5.8-.7c.3-.2.7-.2,1.1-.2s.8,0,1.1.2c.3.2.6.4.8.7.2.3.3.6.3,1,0,.3,0,.5-.2.7s-.2.4-.4.6c-.2.2-.4.3-.6.3h0c.3,0,.5.2.7.4s.4.4.5.6c.1.3.2.5.2.8,0,.4-.1.7-.3,1s-.5.5-.9.7c-.4.2-.8.3-1.3.3s-.9,0-1.3-.3ZM16.4,117.2c.2-.1.4-.3.6-.4s.2-.4.2-.7,0-.5-.2-.7c-.1-.2-.3-.4-.6-.5s-.5-.2-.8-.2-.6,0-.8.2-.4.3-.6.5c-.1.2-.2.4-.2.7,0,.2,0,.5.2.7s.3.3.6.4.5.2.9.2.6,0,.9-.2ZM16.2,113.8c.2-.1.4-.2.5-.4s.2-.4.2-.6,0-.4-.2-.6-.3-.3-.5-.4c-.2,0-.5-.1-.7-.1s-.5,0-.7.1c-.2,0-.4.2-.5.4s-.2.4-.2.6,0,.4.2.6.3.3.5.4.4.2.7.2.5,0,.7-.2Z"/>
    </g>
  </g>
  <g class="st0">
    <g class="st0">
      <path class="st3" d="M47.4,111.2c.4.2.7.6,1,1.1s.4,1.2.4,2-.1,1.5-.3,2.1c-.2.6-.5,1-.9,1.3-.4.3-.9.5-1.4.5s-.8,0-1.1-.2c-.3-.2-.6-.4-.8-.7s-.3-.6-.4-1h.9c0,.3.2.6.5.8s.6.3.9.3.7-.1,1-.3c.3-.2.5-.5.6-.9s.2-.9.2-1.5h0c-.2.3-.5.5-.8.7-.3.2-.7.2-1,.2s-.8,0-1.2-.3c-.4-.2-.6-.5-.8-.8s-.3-.8-.3-1.2.1-.8.3-1.2.5-.6.9-.9.8-.3,1.3-.3.9.1,1.3.3ZM45.3,111.8c-.2.1-.4.3-.6.6s-.2.5-.2.8,0,.6.2.8c.1.2.3.4.6.6s.5.2.8.2.6,0,.8-.2c.3-.1.4-.3.6-.6.1-.2.2-.5.2-.8s0-.5-.2-.8c-.1-.2-.3-.4-.6-.6s-.5-.2-.8-.2-.6,0-.8.2Z"/>
    </g>
  </g>
  <g class="st0">
    <g class="st0">
      <path class="st3" d="M74.9,118h-.9v-6.2h0l-1.7,1.1v-.9l1.8-1.2h.9v7.1Z"/>
      <path class="st3" d="M77.7,117.7c-.4-.3-.7-.7-.8-1.2s-.3-1.2-.3-2,0-1.4.3-2c.2-.5.5-1,.8-1.2s.8-.4,1.3-.4,1,.1,1.3.4.7.7.8,1.2c.2.5.3,1.2.3,2s0,1.4-.3,2-.5,1-.8,1.2-.8.4-1.3.4-1-.1-1.3-.4ZM79.9,117c.2-.2.4-.5.6-1s.2-.9.2-1.5,0-1.1-.2-1.6-.3-.8-.6-1-.5-.3-.9-.3-.6.1-.9.3-.4.6-.6,1-.2.9-.2,1.6,0,1.1.2,1.5.3.8.6,1,.5.3.9.3.6-.1.9-.3Z"/>
    </g>
  </g>
  <g class="st0">
    <g class="st0">
      <path class="st3" d="M106.3,118h-.9v-6.2h0l-1.7,1.1v-.9l1.8-1.2h.9v7.1Z"/>
      <path class="st3" d="M110.7,118h-.9v-6.2h0l-1.7,1.1v-.9l1.8-1.2h.9v7.1Z"/>
    </g>
  </g>
  <g class="st0">
    <g class="st0">
      <path class="st3" d="M136.3,118h-.9v-6.2h0l-1.7,1.1v-.9l1.8-1.2h.9v7.1Z"/>
      <path class="st3" d="M138.1,117.4l2.4-2.5c.3-.3.6-.6.7-.8.2-.2.3-.4.4-.6,0-.2.1-.4.1-.6s0-.4-.2-.6c-.1-.2-.3-.3-.5-.4-.2-.1-.5-.2-.7-.2s-.5,0-.7.2c-.2.1-.4.3-.5.5s-.2.4-.2.7h-.8c0-.4,0-.8.3-1.1.2-.3.5-.6.8-.7s.7-.3,1.1-.3.8,0,1.1.3c.3.2.6.4.8.7.2.3.3.6.3,1s0,.5-.1.8c0,.2-.3.5-.5.8-.2.3-.6.7-1,1.1l-1.6,1.7h0c0,0,3.4,0,3.4,0v.8h-4.6v-.6Z"/>
    </g>
  </g>
  <g class="st0">
    <g class="st0">
      <path class="st3" d="M166.8,118h-.9v-6.2h0l-1.7,1.1v-.9l1.8-1.2h.9v7.1Z"/>
      <path class="st3" d="M169.9,117.9c-.4-.2-.7-.4-.9-.7-.2-.3-.3-.6-.3-1h.9c0,.2,0,.4.2.6s.3.3.6.4c.2,0,.5.1.8.1s.6,0,.8-.2c.2-.1.4-.3.6-.4.1-.2.2-.4.2-.6s0-.5-.2-.7c-.1-.2-.3-.4-.6-.5-.3-.1-.6-.2-.9-.2h-.6v-.8h.6c.3,0,.5,0,.8-.2.2-.1.4-.2.5-.4s.2-.4.2-.6,0-.4-.2-.6c-.1-.2-.3-.3-.5-.4-.2,0-.4-.1-.7-.1s-.5,0-.7.1c-.2,0-.4.2-.5.4-.1.2-.2.4-.2.6h-.8c0-.4.1-.7.3-1,.2-.3.5-.5.8-.7.4-.2.7-.2,1.2-.2s.8,0,1.1.3c.3.2.6.4.8.7s.3.6.3.9c0,.4-.1.7-.3,1s-.5.5-.9.6h0c.3,0,.6.2.8.4.2.2.4.4.5.6.1.2.2.5.2.8,0,.4-.1.7-.3,1-.2.3-.5.5-.9.7s-.8.3-1.3.3-.9,0-1.2-.2Z"/>
    </g>
  </g>
  <g class="st0">
    <g class="st0">
      <path class="st4" d="M197.5,118h-.9v-6.2h0l-1.7,1.1v-.9l1.8-1.2h.9v7.1Z"/>
      <path class="st4" d="M199.2,115.9l3.2-4.9h1.1v4.9h1v.8h-1v1.4h-.8v-1.4h-3.4v-.7ZM202.6,115.8v-3.7h0l-2.4,3.7h0c0,0,2.5,0,2.5,0Z"/>
    </g>
  </g>
  <g class="st0">
    <g class="st0">
      <path class="st1" d="M13.5,143.5h-.9v-6.2h0l-1.7,1.1v-.9l1.8-1.2h.9v7.1Z"/>
      <path class="st1" d="M16.5,143.4c-.3-.2-.6-.4-.8-.7-.2-.3-.3-.6-.3-1h.8c0,.2.1.4.2.6.1.2.3.3.5.4.2,0,.4.1.7.1s.6,0,.8-.2.4-.3.6-.6.2-.5.2-.8,0-.6-.2-.8c-.1-.2-.3-.4-.6-.6-.2-.1-.5-.2-.8-.2-.6,0-1.1.2-1.3.6h-.8l.5-3.9h3.8v.8h-3.1l-.3,2.1h0c.2-.1.4-.2.6-.3s.5-.1.7-.1c.4,0,.8.1,1.2.3.4.2.6.5.8.8s.3.8.3,1.2-.1.9-.3,1.2-.5.6-.9.8-.8.3-1.2.3-.8,0-1.1-.2Z"/>
    </g>
  </g>
  <g class="st0">
    <g class="st0">
      <path class="st3" d="M44.1,143.5h-.9v-6.2h0l-1.7,1.1v-.9l1.8-1.2h.9v7.1Z"/>
      <path class="st3" d="M47.2,143.3c-.4-.2-.7-.6-1-1.1-.2-.5-.4-1.2-.4-2s.1-1.5.3-2.1.5-1,.9-1.3c.4-.3.9-.5,1.4-.5s.8,0,1.1.2.6.4.8.7.3.6.4,1h-.9c0-.3-.3-.6-.5-.8-.2-.2-.6-.3-.9-.3s-.7.1-1,.3c-.3.2-.5.5-.6.9s-.2.9-.2,1.5h0c.2-.3.5-.5.8-.7.3-.2.7-.2,1-.2s.8.1,1.2.3.6.5.8.8c.2.4.3.8.3,1.2s-.1.8-.3,1.2c-.2.4-.5.7-.9.9s-.8.3-1.3.3-.9-.1-1.3-.3ZM49.2,142.6c.2-.1.4-.3.6-.6.1-.2.2-.5.2-.8,0-.3,0-.6-.2-.8s-.3-.4-.6-.6c-.2-.1-.5-.2-.8-.2s-.6,0-.8.2-.4.3-.6.6c-.1.2-.2.5-.2.8,0,.3,0,.5.2.8s.3.4.6.6c.2.1.5.2.8.2s.6,0,.8-.2Z"/>
    </g>
  </g>
  <g class="st0">
    <g class="st0">
      <path class="st3" d="M75.1,143.5h-.9v-6.2h0l-1.7,1.1v-.9l1.8-1.2h.9v7.1Z"/>
      <path class="st3" d="M80.4,137.3h0s-3.7,0-3.7,0v-.8h4.6v.8l-3.2,6.2h-.9l3.2-6.2Z"/>
    </g>
  </g>
  <g class="st0">
    <g class="st0">
      <path class="st3" d="M105.5,143.5h-.9v-6.2h0l-1.7,1.1v-.9l1.8-1.2h.9v7.1Z"/>
      <path class="st3" d="M108.4,143.4c-.4-.2-.7-.4-.9-.7s-.3-.6-.3-1c0-.3,0-.6.2-.8.1-.3.3-.5.5-.6s.5-.3.7-.3h0c-.2,0-.4-.2-.6-.3-.2-.2-.3-.3-.4-.6s-.1-.5-.1-.7,0-.7.3-1,.5-.5.8-.7c.3-.2.7-.2,1.1-.2s.8,0,1.1.2c.3.2.6.4.8.7.2.3.3.6.3,1,0,.3,0,.5-.2.7,0,.2-.2.4-.4.6-.2.2-.4.3-.6.3h0c.3,0,.5.2.7.4s.4.4.5.6c.1.3.2.5.2.8,0,.4-.1.7-.3,1s-.5.5-.9.7c-.4.2-.8.3-1.3.3s-.9,0-1.3-.3ZM110.6,142.7c.2-.1.4-.3.6-.4.1-.2.2-.4.2-.7s0-.5-.2-.7c-.1-.2-.3-.4-.6-.5s-.5-.2-.8-.2-.6,0-.8.2c-.2.1-.4.3-.6.5-.1.2-.2.4-.2.7,0,.2,0,.5.2.7s.3.3.6.4c.2.1.5.2.9.2s.6,0,.9-.2ZM110.4,139.4c.2-.1.4-.2.5-.4.1-.2.2-.4.2-.6s0-.4-.2-.6c-.1-.2-.3-.3-.5-.4-.2,0-.5-.1-.7-.1s-.5,0-.7.1c-.2,0-.4.2-.5.4-.1.2-.2.4-.2.6s0,.4.2.6c.1.2.3.3.5.4s.4.2.7.2.5,0,.7-.2Z"/>
    </g>
  </g>
  <g class="st0">
    <g class="st0">
      <path class="st3" d="M136.1,143.5h-.9v-6.2h0l-1.7,1.1v-.9l1.8-1.2h.9v7.1Z"/>
      <path class="st3" d="M141.6,136.7c.4.2.7.6,1,1.1s.4,1.2.4,2-.1,1.5-.3,2.1c-.2.6-.5,1-.9,1.3-.4.3-.9.5-1.4.5s-.8,0-1.1-.2c-.3-.2-.6-.4-.8-.7-.2-.3-.3-.6-.4-1h.9c0,.3.2.6.5.8s.6.3.9.3.7-.1,1-.3c.3-.2.5-.5.6-.9.1-.4.2-.9.2-1.5h0c-.2.3-.5.5-.8.7-.3.2-.7.2-1,.2s-.8,0-1.2-.3c-.4-.2-.6-.5-.8-.8-.2-.4-.3-.8-.3-1.2s.1-.8.3-1.2c.2-.4.5-.6.9-.9s.8-.3,1.3-.3.9.1,1.3.3ZM139.6,137.3c-.2.1-.4.3-.6.6s-.2.5-.2.8,0,.6.2.8c.1.2.3.4.6.6.2.1.5.2.8.2s.6,0,.8-.2c.2-.1.4-.3.6-.6.1-.2.2-.5.2-.8s0-.5-.2-.8c-.1-.2-.3-.4-.6-.6-.2-.1-.5-.2-.8-.2s-.6,0-.8.2Z"/>
    </g>
  </g>
  <g class="st0">
    <g class="st0">
      <path class="st3" d="M163.7,142.9l2.4-2.5c.3-.3.6-.6.7-.8.2-.2.3-.4.4-.6,0-.2.1-.4.1-.6s0-.4-.2-.6c-.1-.2-.3-.3-.5-.4-.2-.1-.5-.2-.7-.2s-.5,0-.7.2c-.2.1-.4.3-.5.5s-.2.4-.2.7h-.8c0-.4,0-.8.3-1.1.2-.3.5-.6.8-.7s.7-.3,1.1-.3.8,0,1.1.3c.3.2.6.4.8.7.2.3.3.6.3,1s0,.5-.1.8c0,.2-.3.5-.5.8-.2.3-.6.7-1,1.1l-1.6,1.7h0c0,0,3.4,0,3.4,0v.8h-4.6v-.6Z"/>
      <path class="st3" d="M170.5,143.2c-.4-.3-.7-.7-.8-1.2-.2-.5-.3-1.2-.3-2s0-1.4.3-2c.2-.5.5-1,.8-1.2s.8-.4,1.3-.4,1,.1,1.3.4.7.7.8,1.2c.2.5.3,1.2.3,2s0,1.4-.3,2c-.2.5-.5,1-.8,1.2s-.8.4-1.3.4-1-.1-1.3-.4ZM172.7,142.5c.2-.2.4-.5.6-1s.2-.9.2-1.5,0-1.1-.2-1.6-.3-.8-.6-1c-.2-.2-.5-.3-.9-.3s-.6.1-.9.3c-.2.2-.4.6-.6,1-.1.4-.2.9-.2,1.6s0,1.1.2,1.5.3.8.6,1c.2.2.5.3.9.3s.6-.1.9-.3Z"/>
    </g>
  </g>
  <g class="st0">
    <g class="st0">
      <path class="st4" d="M195.1,142.9l2.4-2.5c.3-.3.6-.6.7-.8.2-.2.3-.4.4-.6,0-.2.1-.4.1-.6s0-.4-.2-.6c-.1-.2-.3-.3-.5-.4-.2-.1-.5-.2-.7-.2s-.5,0-.7.2c-.2.1-.4.3-.5.5s-.2.4-.2.7h-.8c0-.4,0-.8.3-1.1.2-.3.5-.6.8-.7s.7-.3,1.1-.3.8,0,1.1.3c.3.2.6.4.8.7.2.3.3.6.3,1s0,.5-.1.8c0,.2-.3.5-.5.8-.2.3-.6.7-1,1.1l-1.6,1.7h0c0,0,3.4,0,3.4,0v.8h-4.6v-.6Z"/>
      <path class="st4" d="M203.5,143.5h-.9v-6.2h0l-1.7,1.1v-.9l1.8-1.2h.9v7.1Z"/>
    </g>
  </g>
  <g class="st0">
    <g class="st0">
      <path class="st1" d="M10.3,168.4l2.4-2.5c.3-.3.6-.6.7-.8.2-.2.3-.4.4-.6,0-.2.1-.4.1-.6s0-.4-.2-.6-.3-.3-.5-.4-.5-.2-.7-.2-.5,0-.7.2-.4.3-.5.5-.2.4-.2.7h-.8c0-.4,0-.8.3-1.1s.5-.6.8-.7.7-.3,1.1-.3.8,0,1.1.3.6.4.8.7.3.6.3,1,0,.5-.1.8c0,.2-.3.5-.5.8-.2.3-.6.7-1,1.1l-1.6,1.7h0c0,0,3.4,0,3.4,0v.8h-4.6v-.6Z"/>
      <path class="st1" d="M16.1,168.4l2.4-2.5c.3-.3.6-.6.7-.8.2-.2.3-.4.4-.6,0-.2.1-.4.1-.6s0-.4-.2-.6-.3-.3-.5-.4-.5-.2-.7-.2-.5,0-.7.2-.4.3-.5.5-.2.4-.2.7h-.8c0-.4,0-.8.3-1.1s.5-.6.8-.7.7-.3,1.1-.3.8,0,1.1.3.6.4.8.7.3.6.3,1,0,.5-.1.8c0,.2-.3.5-.5.8-.2.3-.6.7-1,1.1l-1.6,1.7h0c0,0,3.4,0,3.4,0v.8h-4.6v-.6Z"/>
    </g>
  </g>
  <g class="st0">
    <g class="st0">
      <path class="st3" d="M40.8,168.4l2.4-2.5c.3-.3.6-.6.7-.8.2-.2.3-.4.4-.6,0-.2.1-.4.1-.6s0-.4-.2-.6-.3-.3-.5-.4-.5-.2-.7-.2-.5,0-.7.2-.4.3-.5.5-.2.4-.2.7h-.8c0-.4,0-.8.3-1.1s.5-.6.8-.7.7-.3,1.1-.3.8,0,1.1.3.6.4.8.7.3.6.3,1,0,.5-.1.8c0,.2-.3.5-.5.8-.2.3-.6.7-1,1.1l-1.6,1.7h0c0,0,3.4,0,3.4,0v.8h-4.6v-.6Z"/>
      <path class="st3" d="M47.9,168.9c-.4-.2-.7-.4-.9-.7s-.3-.6-.3-1h.9c0,.2,0,.4.2.6s.3.3.6.4c.2,0,.5.1.8.1s.6,0,.8-.2c.2-.1.4-.3.6-.4.1-.2.2-.4.2-.6s0-.5-.2-.7-.3-.4-.6-.5-.6-.2-.9-.2h-.6v-.8h.6c.3,0,.5,0,.8-.2s.4-.2.5-.4.2-.4.2-.6,0-.4-.2-.6-.3-.3-.5-.4c-.2,0-.4-.1-.7-.1s-.5,0-.7.1-.4.2-.5.4c-.1.2-.2.4-.2.6h-.8c0-.4.1-.7.3-1,.2-.3.5-.5.8-.7.4-.2.7-.2,1.2-.2s.8,0,1.1.3c.3.2.6.4.8.7s.3.6.3.9c0,.4-.1.7-.3,1s-.5.5-.9.6h0c.3,0,.6.2.8.4.2.2.4.4.5.6.1.2.2.5.2.8,0,.4-.1.7-.3,1-.2.3-.5.5-.9.7s-.8.3-1.3.3-.9,0-1.2-.2Z"/>
    </g>
  </g>
  <g class="st0">
    <g class="st0">
      <path class="st3" d="M71.5,168.4l2.4-2.5c.3-.3.6-.6.7-.8.2-.2.3-.4.4-.6,0-.2.1-.4.1-.6s0-.4-.2-.6-.3-.3-.5-.4-.5-.2-.7-.2-.5,0-.7.2-.4.3-.5.5-.2.4-.2.7h-.8c0-.4,0-.8.3-1.1s.5-.6.8-.7.7-.3,1.1-.3.8,0,1.1.3.6.4.8.7.3.6.3,1,0,.5-.1.8c0,.2-.3.5-.5.8-.2.3-.6.7-1,1.1l-1.6,1.7h0c0,0,3.4,0,3.4,0v.8h-4.6v-.6Z"/>
    </g>
    <g class="st0">
      <path class="st3" d="M77.1,166.9l3.2-4.9h1.1v4.9h1v.8h-1v1.4h-.8v-1.4h-3.4v-.7ZM80.5,166.8v-3.7h0l-2.4,3.7h0c0,0,2.5,0,2.5,0Z"/>
    </g>
  </g>
  <g class="st0">
    <g class="st0">
      <path class="st3" d="M102.3,168.4l2.4-2.5c.3-.3.6-.6.7-.8.2-.2.3-.4.4-.6,0-.2.1-.4.1-.6s0-.4-.2-.6-.3-.3-.5-.4-.5-.2-.7-.2-.5,0-.7.2-.4.3-.5.5-.2.4-.2.7h-.8c0-.4,0-.8.3-1.1s.5-.6.8-.7.7-.3,1.1-.3.8,0,1.1.3.6.4.8.7.3.6.3,1,0,.5-.1.8c0,.2-.3.5-.5.8-.2.3-.6.7-1,1.1l-1.6,1.7h0c0,0,3.4,0,3.4,0v.8h-4.6v-.6Z"/>
      <path class="st3" d="M109.3,168.9c-.3-.2-.6-.4-.8-.7-.2-.3-.3-.6-.3-1h.9c0,.2.1.4.2.6.1.2.3.3.5.4.2,0,.4.1.7.1s.6,0,.8-.2c.2-.1.4-.3.6-.6s.2-.5.2-.8,0-.6-.2-.8c-.1-.2-.3-.4-.6-.6-.2-.1-.5-.2-.8-.2-.6,0-1.1.2-1.3.6h-.9l.5-3.9h3.8v.8h-3.1l-.3,2.1h0c.2-.1.4-.2.6-.3.2,0,.5-.1.7-.1.4,0,.8.1,1.2.3.4.2.6.5.8.8.2.4.3.8.3,1.2s-.1.9-.3,1.2c-.2.4-.5.6-.9.8s-.8.3-1.2.3-.8,0-1.1-.2Z"/>
    </g>
  </g>
  <g class="st0">
    <g class="st0">
      <path class="st3" d="M132.9,168.4l2.4-2.5c.3-.3.6-.6.7-.8.2-.2.3-.4.4-.6,0-.2.1-.4.1-.6s0-.4-.2-.6c-.1-.2-.3-.3-.5-.4-.2-.1-.5-.2-.7-.2s-.5,0-.7.2c-.2.1-.4.3-.5.5s-.2.4-.2.7h-.8c0-.4,0-.8.3-1.1.2-.3.5-.6.8-.7s.7-.3,1.1-.3.8,0,1.1.3c.3.2.6.4.8.7.2.3.3.6.3,1s0,.5-.1.8c0,.2-.3.5-.5.8-.2.3-.6.7-1,1.1l-1.6,1.7h0c0,0,3.4,0,3.4,0v.8h-4.6v-.6Z"/>
      <path class="st3" d="M140,168.8c-.4-.2-.7-.6-1-1.1-.2-.5-.4-1.2-.4-2s.1-1.5.3-2.1c.2-.6.5-1,.9-1.3.4-.3.9-.5,1.4-.5s.8,0,1.1.2c.3.2.6.4.8.7.2.3.3.6.4,1h-.9c0-.3-.3-.6-.5-.8-.2-.2-.6-.3-.9-.3s-.7.1-1,.3c-.3.2-.5.5-.6.9-.1.4-.2.9-.2,1.5h0c.2-.3.5-.5.8-.7.3-.2.7-.2,1-.2s.8.1,1.2.3c.4.2.6.5.8.8.2.4.3.8.3,1.2s-.1.8-.3,1.2c-.2.4-.5.7-.9.9s-.8.3-1.3.3-.9-.1-1.3-.3ZM142,168.1c.2-.1.4-.3.6-.6.1-.2.2-.5.2-.8,0-.3,0-.6-.2-.8s-.3-.4-.6-.6c-.2-.1-.5-.2-.8-.2s-.6,0-.8.2c-.3.1-.4.3-.6.6-.1.2-.2.5-.2.8,0,.3,0,.5.2.8s.3.4.6.6c.2.1.5.2.8.2s.6,0,.8-.2Z"/>
    </g>
  </g>
  <g class="st0">
    <g class="st0">
      <path class="st3" d="M163.9,168.4l2.4-2.5c.3-.3.6-.6.7-.8.2-.2.3-.4.4-.6,0-.2.1-.4.1-.6s0-.4-.2-.6c-.1-.2-.3-.3-.5-.4-.2-.1-.5-.2-.7-.2s-.5,0-.7.2c-.2.1-.4.3-.5.5s-.2.4-.2.7h-.8c0-.4,0-.8.3-1.1.2-.3.5-.6.8-.7s.7-.3,1.1-.3.8,0,1.1.3c.3.2.6.4.8.7.2.3.3.6.3,1s0,.5-.1.8c0,.2-.3.5-.5.8-.2.3-.6.7-1,1.1l-1.6,1.7h0c0,0,3.4,0,3.4,0v.8h-4.6v-.6Z"/>
      <path class="st3" d="M173.2,162.8h0s-3.7,0-3.7,0v-.8h4.6v.8l-3.2,6.2h-.9l3.2-6.2Z"/>
    </g>
  </g>
  <g class="st0">
    <g class="st0">
      <path class="st4" d="M194,168.1l2.5-2.4c.3-.3.5-.5.6-.7.1-.2.3-.3.3-.5,0-.2.1-.4.1-.5s0-.4-.2-.6c-.1-.2-.2-.3-.4-.4-.2,0-.4-.1-.6-.1s-.5,0-.6.1c-.2,0-.3.2-.4.4,0,.2-.1.4-.1.6h-1.2c0-.4,0-.8.3-1.2.2-.3.5-.6.9-.8s.8-.3,1.3-.3.9,0,1.3.3.7.4.9.7c.2.3.3.7.3,1.1s0,.5-.2.8c-.1.3-.3.5-.5.8-.3.3-.6.7-1.1,1.1l-1.3,1.2h0s3.1,0,3.1,0v1.1h-4.9v-.9Z"/>
      <path class="st4" d="M201.2,168.9c-.4-.2-.7-.4-1-.7s-.3-.6-.3-1,0-.6.2-.8c.1-.3.3-.5.5-.6.2-.2.5-.3.8-.3h0c-.2,0-.5-.2-.6-.3-.2-.1-.3-.3-.4-.6-.1-.2-.2-.5-.2-.7,0-.4.1-.7.3-1,.2-.3.5-.5.9-.7.4-.2.8-.2,1.2-.2s.9,0,1.2.2c.4.2.7.4.9.7.2.3.3.6.3,1s0,.5-.2.7c-.1.2-.3.4-.4.6s-.4.3-.6.3h0c.3,0,.5.2.8.4.2.2.4.4.5.6.1.3.2.5.2.8s-.1.7-.3,1-.5.5-1,.7c-.4.2-.9.3-1.4.3s-1,0-1.4-.3ZM203.3,168c.2,0,.4-.2.5-.4.1-.2.2-.4.2-.6s0-.4-.2-.6c-.1-.2-.3-.3-.5-.4-.2,0-.4-.1-.7-.1s-.5,0-.7.1c-.2,0-.4.2-.5.4-.1.2-.2.4-.2.6,0,.2,0,.4.2.6.1.2.3.3.5.4.2,0,.5.1.7.1s.5,0,.7-.1ZM203.2,164.8c.2,0,.3-.2.4-.4,0-.2.1-.3.1-.5s0-.4-.1-.5c0-.2-.2-.3-.4-.4-.2,0-.4-.1-.6-.1s-.4,0-.6.1c-.2,0-.3.2-.4.4,0,.2-.1.3-.1.5s0,.4.2.5c.1.2.2.3.4.4.2,0,.4.1.6.1s.4,0,.6-.1Z"/>
    </g>
  </g>
  <g class="st0">
    <g class="st0">
      <path class="st1" d="M10.1,193.9l2.4-2.5c.3-.3.6-.6.7-.8.2-.2.3-.4.4-.6,0-.2.1-.4.1-.6s0-.4-.2-.6-.3-.3-.5-.4-.5-.2-.7-.2-.5,0-.7.2-.4.3-.5.5-.2.4-.2.7h-.8c0-.4,0-.8.3-1.1s.5-.6.8-.7.7-.3,1.1-.3.8,0,1.1.3.6.4.8.7.3.6.3,1,0,.5-.1.8c0,.2-.3.5-.5.8-.2.3-.6.7-1,1.1l-1.6,1.7h0c0,0,3.4,0,3.4,0v.8h-4.6v-.6Z"/>
      <path class="st1" d="M19.6,187.7c.4.2.7.6,1,1.1s.4,1.2.4,2-.1,1.5-.3,2.1c-.2.6-.5,1-.9,1.3-.4.3-.9.5-1.4.5s-.8,0-1.1-.2c-.3-.2-.6-.4-.8-.7s-.3-.6-.4-1h.9c0,.3.2.6.5.8s.6.3.9.3.7-.1,1-.3c.3-.2.5-.5.6-.9s.2-.9.2-1.5h0c-.2.3-.5.5-.8.7-.3.2-.7.2-1,.2s-.8,0-1.2-.3c-.4-.2-.6-.5-.8-.8s-.3-.8-.3-1.2.1-.8.3-1.2.5-.6.9-.9.8-.3,1.3-.3.9.1,1.3.3ZM17.6,188.4c-.2.1-.4.3-.6.6s-.2.5-.2.8,0,.6.2.8c.1.2.3.4.6.6s.5.2.8.2.6,0,.8-.2c.3-.1.4-.3.6-.6.1-.2.2-.5.2-.8s0-.5-.2-.8c-.1-.2-.3-.4-.6-.6s-.5-.2-.8-.2-.6,0-.8.2Z"/>
    </g>
  </g>
  <g class="st0">
    <g class="st0">
      <path class="st3" d="M42,194.4c-.4-.2-.7-.4-.9-.7s-.3-.6-.3-1h.9c0,.2,0,.4.2.6s.3.3.6.4c.2,0,.5.1.8.1s.6,0,.8-.2c.2-.1.4-.3.6-.4.1-.2.2-.4.2-.6s0-.5-.2-.7-.3-.4-.6-.5-.6-.2-.9-.2h-.6v-.8h.6c.3,0,.5,0,.8-.2s.4-.2.5-.4.2-.4.2-.6,0-.4-.2-.6-.3-.3-.5-.4c-.2,0-.4-.1-.7-.1s-.5,0-.7.1-.4.2-.5.4c-.1.2-.2.4-.2.6h-.8c0-.4.1-.7.3-1,.2-.3.5-.5.8-.7.4-.2.7-.2,1.2-.2s.8,0,1.1.3c.3.2.6.4.8.7s.3.6.3.9c0,.4-.1.7-.3,1s-.5.5-.9.6h0c.3,0,.6.2.8.4.2.2.4.4.5.6.1.2.2.5.2.8,0,.4-.1.7-.3,1-.2.3-.5.5-.9.7s-.8.3-1.3.3-.9,0-1.2-.2Z"/>
      <path class="st3" d="M47.9,194.2c-.4-.3-.7-.7-.8-1.2s-.3-1.2-.3-2,0-1.4.3-2c.2-.5.5-1,.8-1.2s.8-.4,1.3-.4,1,.1,1.3.4.7.7.8,1.2c.2.5.3,1.2.3,2s0,1.4-.3,2-.5,1-.8,1.2-.8.4-1.3.4-1-.1-1.3-.4ZM50.1,193.5c.2-.2.4-.5.6-1s.2-.9.2-1.5,0-1.1-.2-1.6-.3-.8-.6-1-.5-.3-.9-.3-.6.1-.9.3-.4.6-.6,1-.2.9-.2,1.6,0,1.1.2,1.5.3.8.6,1,.5.3.9.3.6-.1.9-.3Z"/>
    </g>
  </g>
  <path class="st4" d="M199.6,177.7c-6.6,0-11.9-5.3-11.9-11.9s5.3-11.9,11.9-11.9,11.9,5.3,11.9,11.9-5.3,11.9-11.9,11.9ZM199.6,154.9c-6,0-10.9,4.9-10.9,10.9s4.9,10.9,10.9,10.9,10.9-4.9,10.9-10.9-4.9-10.9-10.9-10.9Z"/>
</svg>