<?xml version="1.0" encoding="UTF-8"?>
<svg id="Layer_2" data-name="Layer 2" xmlns="http://www.w3.org/2000/svg" viewBox="0 0 26.42 28.48">
  <defs>
    <style>
      .cls-1 {
        fill: #040000;
      }
    </style>
  </defs>
  <g id="Layer_1-2" data-name="Layer 1">
    <g>
      <path class="cls-1" d="M14.45,7.08l.06-.03s-.04,0-.06.03Z"/>
      <path class="cls-1" d="M22.03,7.14s0,0,.01,0c0,0-.01,0-.01,0Z"/>
      <path class="cls-1" d="M16.73,5.86h0s0,.01,0,.02v-.02Z"/>
      <path class="cls-1" d="M14.56,8.06c-.08.26-.04.13-.11.4.05.17.12.01.2.11-.01.13.03.27-.08.39h.12c.01.24-.03.37-.18.5.1.49.24.76.37.91.13.15.25.17.36.12.22-.08.37-.37.37-.37.4-.57.17-.97.35-1.74.29-.63.56-.71.77-1.39.16-.3.28-.64.41-.94-.07-.22.21-.38.18-.61h.12c0-.09,0-.17.08-.2l.02.02c-.01-.12.08-.19.07-.25l.02.02s.03-.07.05-.1l.02.04c.03-.18.12-.33.23-.44l-.1-.05c.29-.2.17-.43.46-.58l.02.02c0-.24.12-.33.25-.41.07-.04.14-.08.19-.14.03-.03.05-.07.06-.11,0-.02-.01-.04-.03-.08.02.04.05.04.06.06,0-.06.03-.11-.07-.35.05-.05.06.04.1.13-.04-.11-.02-.19.01-.24v.06s.05-.1.08-.15c-.01-.08-.03-.16-.04-.24.07,0,.04.31.08.19v-.23c.05-.03.08.05.09.18,0,.15,0,.3,0,.4.02.08.06.1.1.14l.08.06s.03.02.04.04c.02.02.03.02.07.08.25.37.47.75.51,1.17l-.09.08c-.15.08.32.1.19.19l.11.05s-.02.1-.08.07c.03.08.05.07.13.11l-.06.13c.03.17.12.31.21.44.09.14.19.27.24.45-.02.24.08.53.22.82.14.29.32.56.44.77.22.28.22.66.22,1.03,0,.37,0,.74.21,1.04-.02.03.05.07.07.07.04.2.07.41.11.61,0,0,0,.05.03.12.02.08.04.18.07.3.06.24.15.53.26.75.12.22.26.36.45.29.18-.07.41-.34.65-.99h.04c.03-.36,0-.58-.23-.78.22-.08-.04-.29.02-.39h.02c-.22-.17.04-.46-.16-.63.02,0,.08,0,.1.04-.06-.14-.17-.33-.04-.38-.12-.35-.2-.85-.47-1.02h.04c-.17-.08-.07-.15-.18-.27.01-.01.02-.03.03-.03-.18-.1-.14-.4-.24-.49l.08-.03-.11-.27.02.11c-.24.04.08-.26-.14-.4-.04-.19-.61-.2-.57-.42-.14-.05.2.01.07-.09.12-.05.1.03.18-.04-.11-.11.04-.26-.11-.39l.09-.04c-.25-.15-.04-.45-.26-.52-.17-.18.21-.26-.06-.41l.08-.14c-.02-.11-.18,0-.17-.14.08-.03,0-.16.1-.13.01-.3-.39-.41-.34-.82-.18,0-.17-.2-.31-.19.06-.04-.15-.32.08-.21.02,0,.03.04,0,.05l.1-.02c.02-.07.01-.12-.01-.16-.01-.02-.03-.04-.04-.06,0,0-.02-.02-.03-.02,0,0-.03-.03-.04-.04-.11-.12-.24-.22-.31-.38.02.11.09.22,0,.18l-.14-.27s.06,0,.09,0l-.2-.45-.03.15c-.04-.12-.04-.24-.07-.35-.02-.1-.06-.2-.17-.23-.09,0,.04.34-.09.18-.1-.31-.29-.84-.48-1.24,0,0-.02.01-.02.02,0,.16-.07.23-.14.34v-.15c-.29.51-.1-.21-.39.26-.01.08-.03.16-.04.24-.11.26-.15.23-.2.22-.04-.01-.1,0-.2.3.1-.13.11.2-.02.28v-.14c-.07.1-.07.16-.12.19.02-.1-.03-.17-.13-.03,0-.06.01-.13.02-.2-.05.14-.09.27-.12.39-.1.04-.2.16-.28.26-.08.1-.16.2-.24.18,0,0-.25.19-.17.34-.03-.11-.16,0-.22-.1.03.13-.04.36-.18.37v-.02c-.3.21-.22.57-.51.75.1.05-.04.15.11.2-.05.34-.57.33-.24.67-.05.14-.18.09-.24.14v-.04c-.11.25-.14.32-.25.49-.01.11.17.22.04.35-.05-.09-.07-.02-.1.04,0-.04-.01-.07-.1-.02.02.02.02.05.03.07,0,0-.01,0-.02,0-.03.11,0,.11.04.07.01,0,.03.01.05,0-.15.05-.14.29-.28.24-.12.31-.09.6-.15.87-.08,0-.11-.09-.11-.17-.02.06-.04.13-.06.19-.1-.04-.01-.13,0-.19-.25.15-.04.51-.29.71l.06.08h-.02s.08.11.07.15c-.1,0-.2-.08-.24.05-.12.07-.07.3-.07.45.04-.07.08-.03.1.02-.02.06-.12.07-.1.13l-.12-.04c.12.01.06.21.1.25-.1,0-.04-.13-.1-.16Z"/>
      <path class="cls-1" d="M18.45.32s0,0,0,0c0-.04.01-.08.02-.12l-.02.12Z"/>
      <path class="cls-1" d="M10.06,10.21l-.06-.04s.02.04.06.04Z"/>
      <path class="cls-1" d="M3.61,7.92s0,.01,0,.01c0,0,0-.01,0-.01Z"/>
      <polygon class="cls-1" points="8.9 9.23 8.9 9.23 8.91 9.22 8.9 9.23"/>
      <path class="cls-1" d="M2.11,10.01s.02.09.04.09l-.07.68s-.28,3.29,1.29.88l.04.02c.11-.37.15-.6-.02-.87.23-.03.04-.3.12-.39h.02c-.16-.23.18-.45.03-.68.02,0,.08.02.08.07-.02-.16-.05-.38.08-.39,0-.38.09-.91-.11-1.17l.04.02c-.13-.15,0-.18-.07-.34.02,0,.03-.02.03-.02-.13-.16,0-.44-.04-.57h.09s0-.3,0-.3l-.03.11c-.24-.06.17-.22.02-.45.04-.2-.48-.45-.34-.65-.11-.11.18.1.1-.06.13,0,.07.08.18.04-.05-.15.15-.24.07-.42h.1c-.08-.11-.04-.21,0-.3.05-.08.09-.15.02-.23-.03-.19.29.02.15-.16.04.01.09.03.13.05.03,0-.12-.14-.04-.13.06.07.08.02.12.1.04.02.05,0,.06-.02,0-.03.02-.06.04-.09.02-.03.08-.02.1.08.01-.09.04-.1.06-.1.02,0,.04,0,.07-.06-.02.07.09.08-.03.18,0,0-.01,0,0-.02l-.05.09c-.03.09-.02.07.02.04,0,0,.02-.01.03-.02.01,0,.02-.01.04,0,.04,0,.07.03.09.06,0-.05-.05-.09.02-.11.03.04.06.08.09.12l-.08.03c.03.07.07.13.1.21.02-.03.04-.06.06-.09.03.13-.08.28.13.31.11,0,.04-.18.15-.09.05.19.11.46.21.67.08-.08.11-.03.17.01l-.08.06c.24.13-.14.19.08.33l-.07.02.21-.06c.28.08-.12.2.24.27-.06-.07.17-.15.19-.03l-.1.02s.1.05.1.09c-.06,0-.13.05-.07.13h-.14s.24.07.24.07c-.02.17.2.3.1.42,0,0,.08.29.24.29-.11-.01-.07.15-.18.16.13.02.31.19.24.32h-.02c.04.34.38.45.37.78.1-.06.1.11.23.02.26.24-.07.64.4.59.1.18,0,.3.01.43l-.04-.04c.18.42.22.53.32.87.03.04.06.04.1.04.12-.08.24-.19.4-.17-.13.1,0,.07.09.06-.07.02-.11.06.01.1.03-.03.07-.05.1-.07,0,0,0,.01,0,.02.19-.05.16-.08.08-.08,0-.01,0-.03-.01-.05.07.05.2.03.3.02.11-.01.19-.02.2.06.07-.01.14-.03.19-.04.04-.01.08-.03.11-.04.07-.03.14-.06.21-.1.13-.07.26-.13.4-.18.04.07-.02.14-.1.18l.2-.05c.01.11-.11.08-.17.11.27.14.48-.24.78-.12l.05-.09h.02s.05-.1.09-.12c.05.09.02.21.17.19.12.07.31-.09.45-.15-.08,0-.06-.06-.03-.1.07-.01.12.07.17.03l.02.12c-.04-.11.17-.15.19-.2.05.09-.1.09-.11.16.28-.05.14-.02.42-.07.14-.11-.04-.11.02-.23.13-.04.25-.15.41-.09l-.06-.1c.24-.12.39-.13.57-.04,1.75-1.14.23-1.28.23-1.28-.77-.15-1.1.22-1.97.42-.78.05-1.01-.14-1.79.05-.1,0-.19.02-.29.04l-.15.02h-.07s0,.02,0,.02c0,.01-.03.04-.05.05-.04.07-.06.09-.08.09-.01-.02,0-.07-.07-.03.02-.03.05-.05.07-.08-.04.02-.08.02-.04-.02h.03s-.03,0-.04,0c-.02-.02-.03-.05-.04-.07-.02-.05-.04-.09-.06-.11h.03s-.06-.13-.06-.13h.05c-.14-.15-.22-.34-.26-.51l-.1.06c-.01-.2-.09-.31-.17-.41-.07-.11-.14-.21-.15-.39h.03c-.46-.27-.12-.72-.59-.99.06.03.04-.05.07-.06-.13-.17-.25-.35-.45-.24-.07-.13,0-.14.07-.2-.08.05-.19-.04-.25-.14l.06.03-.2-.27-.12.15c-.05-.18.17-.16.04-.28l-.13.08c-.1-.22.01-.47-.02-.73-.11-.18-.24-.36-.38-.52-.07-.08-.15-.17-.23-.26-.09-.09-.18-.18-.28-.26-.25-.22-.54-.41-.84-.51-.15-.05-.3-.08-.45-.1-.15-.01-.3,0-.45.02-.21.04-.41.11-.6.2-.04-.02-.08-.04-.12-.06-.06-.07-.11.06-.14.19-.03.13-.04.25-.12.23-.01.06-.02.13-.03.19-.05.02-.12.09-.11,0-.08.14-.06.16-.06.29-.06.03-.1.08-.16.12-.02.04-.04.07-.05.11-.01.04-.03.09-.04.12-.02.06-.03.11-.04.17-.02.11-.02.22-.01.33,0,.1.01.21.02.32,0,.1,0,.19-.01.29-.25.46-.11,1.37-.03,1.89.21.74-.53,1.54-.29,2.3Z"/>
      <path class="cls-1" d="M2.19,16.24l-.06.02s.04,0,.06-.02Z"/>
      <path class="cls-1" d="M.23,17.41s0,0,0,0c0,0,0,0,0-.01v.02Z"/>
      <path class="cls-1" d="M6.12,26v-.04c-.22-.08-.34-.12-.53.05,0-.23-.18-.05-.22-.14v-.02c-.08.07-.14.02-.2-.04-.06-.06-.11-.11-.2-.06.01-.02.03-.07.06-.07-.1,0-.25,0-.2-.13-.23-.05-.49-.25-.73-.16l.03-.03c-.15.08-.11-.04-.23-.04,0-.02,0-.03,0-.03-.16.06-.25-.15-.35-.15l.05-.07c-.06-.04-.11-.07-.17-.11.01.02.03.04.04.06-.18.17-.01-.21-.23-.19-.04-.06-.18-.02-.31.02-.13.03-.26.04-.27-.05-.13.02.18-.08.04-.1.09-.09.09-.02.15-.11-.11-.04-.01-.21-.16-.25l.07-.07c-.24-.01-.08-.32-.28-.3-.16-.09.18-.26-.08-.29l.08-.13c-.02-.07-.17.04-.15-.06.07-.04,0-.12.1-.12.01-.11-.07-.16-.15-.23-.08-.07-.15-.15-.09-.31-.17.02-.13-.13-.26-.11.06-.03-.08-.23.11-.16.02,0,.02.02,0,.03l.1-.02c.13-.18-.18-.18-.19-.32-.02.05,0,.09-.07.08l-.02-.12h.09c0-.06,0-.12,0-.18l-.09.05c.03-.1.18-.17.02-.23-.09-.03-.11.11-.17.03.04-.13.11-.33.12-.48-.11.03-.11-.01-.14-.05l.1-.02c-.16-.14.21-.09.08-.23h.07s-.21-.01-.21-.01c-.21-.13.2-.1-.09-.24.02.06-.21.05-.18-.04h.1s-.06-.04-.04-.07c.05.02.14,0,.12-.06l.12.04-.18-.12c.1-.1-.04-.25.1-.29,0,0,.07-.21-.08-.26.09.04.13-.07.23-.03-.05-.03-.1-.08-.12-.14-.02-.06,0-.11.05-.14h.01c.06-.1.03-.2,0-.3-.03-.1-.04-.2.04-.3-.11,0-.04-.11-.19-.1-.12-.25.36-.36-.08-.51,0-.11.12-.1.16-.15l.02.03c0-.2.01-.25.05-.39-.03-.08-.23-.14-.15-.26.07.06.07,0,.08-.04,0,.03.03.05.1,0-.02-.01-.04-.03-.04-.05,0,0,.01,0,.02,0,0-.09-.04-.08-.06-.04-.01,0-.03,0-.05,0,.13-.06.05-.23.19-.21.04-.24-.06-.46-.05-.67.08,0,.13.07.14.13l.02-.15c.1.03.03.1.04.15.22-.11-.06-.39.16-.54l-.07-.07h.02s-.08-.08-.09-.12c.1,0,.2.07.23-.03.11-.05.03-.23.02-.35-.03.05-.08.01-.1-.02.01-.05.11-.05.09-.1l.12.04c-.12-.02-.07-.17-.11-.21.1,0,.05.1.11.14.06-.2.03-.1.09-.29-.05-.14-.12-.02-.2-.11.01-.1-.03-.22.08-.3h-.12c-.01-.21.04-.31.19-.38-.16-.81-.41-1-.63-.98-.22.02-.4.24-.4.24-.44.42-.25.81-.4,1.46-.25.53-.51.62-.61,1.23-.1.28-.14.6-.18.89.13.17-.08.38.02.56l-.11.04c.04.07.05.13,0,.18h-.03c.06.09,0,.18.03.22h-.03s0,.1,0,.1l-.04-.02c.05.16.03.31-.02.44h.12c-.08.14-.07.24-.05.34.02.1.03.19-.05.31h-.03c.07.08.09.16.08.23,0,.07-.03.13-.06.2-.05.13-.12.27.03.44-.04-.04-.06.02-.09.02.04.16.06.33.29.32,0,.11-.07.1-.15.12.1,0,.15.09.16.18l-.04-.04.06.25.18-.07c-.04.14-.22.06-.17.18l.15-.02c0,.18-.22.32-.3.53.03.39.22.78.41,1.13.19.35.38.68.44,1.06l-.09.09c-.14.1.32.05.2.15l.11.03s-.01.1-.07.08c.04.07.06.06.14.07l-.04.13c.11.31.43.39.61.66.05.22.24.43.48.6.24.17.52.29.72.36.31.07.52.32.78.55.25.24.56.46.91.4.01.03.08,0,.08-.03l.28.08.29.06s.04,0,.12.01c.07,0,.18.02.3,0,.24,0,.53-.06.73-.16.21-.11.32-.26.25-.44-.07-.19-.33-.39-.73-.73Z"/>
      <path class="cls-1" d="M8.95,26.61s0-.04-.01-.05v.05Z"/>
      <path class="cls-1" d="M9.39,28.17s0,0,0,0c0,0,0,0,0,.01h0Z"/>
      <path class="cls-1" d="M14.01,27.07c-.09-.1-.15-.13-.25.05.01-.23-.08-.03-.1-.11v-.02c-.08.17-.11-.16-.19-.01,0-.02.01-.08.03-.08-.05.02-.11.07-.1-.07-.11.02-.25-.05-.34.15v-.04c-.05.14-.04.02-.09.08,0-.02,0-.03,0-.03-.06.14-.12,0-.16.06v-.09s-.08.01-.08.01l.03.02c-.04.24-.05-.16-.12,0-.05-.04-.17.49-.22.36-.04.11.05-.18,0-.1.01-.13.03-.08.03-.18-.05.06-.05-.14-.11-.06v-.1c-.08.17-.1-.14-.16.02-.08.07-.01-.3-.11-.11v-.14s-.05.16-.08.09c.01-.08-.03-.07,0-.15-.06-.14-.18.17-.25-.06-.04.16-.08.06-.11.18,0-.07-.1-.02-.03-.17,0-.01.01,0,.01.02l.02-.1c-.04-.19-.11.09-.17.05.01.03.04.03.01.09l-.05-.02.02-.08-.07-.06v.1c-.03-.06-.03-.23-.09-.09-.03.08.02.14-.02.17-.04-.07-.11-.19-.17-.22,0,.11-.02.11-.04.13v-.1c-.08.13,0-.22-.07-.12l-.03.14c-.08.19-.01-.21-.11.05.03-.01-.01.22-.04.17l.02-.09s-.03.06-.04.04c.02-.05.02-.14,0-.12l.03-.12-.07.17c-.03-.11-.11.01-.11-.12,0,0-.08-.08-.11.07.03-.09-.02-.13,0-.23-.03.1-.11.18-.12.06h0c-.08-.13-.18.12-.26-.02,0,.11-.05.05-.05.19-.11.13-.13-.31-.21.13-.04.02-.04-.11-.06-.14v-.02c-.07.03-.09.03-.15.01-.03.04-.06.25-.11.19.03-.08,0-.07-.02-.07.01-.01.02-.04,0-.1,0,.03-.01.04-.02.05,0,0,0-.01,0-.02-.04.03-.03.05-.02.07,0,.01,0,.03,0,.05-.02-.11-.09,0-.08-.15-.1.02-.18.16-.27.21,0-.07.03-.14.05-.16l-.06.02c.01-.11.04-.06.06-.08-.05-.18-.16.15-.22-.01l-.03.08h0s-.03.09-.04.1c0-.09.02-.21-.02-.21-.02-.09-.09.03-.14.08.02.02,0,.07,0,.1-.02,0-.02-.09-.04-.05v-.12c0,.12-.05.12-.07.17,0-.09.04-.08.05-.14-.08,0-.04,0-.12,0-.05.09,0,.12-.04.22-.04.02-.09.1-.12.02v.11c-.08.08-.12.06-.15-.06-.62.84-.25,1.21-.25,1.21.18.27.32-.04.57-.1.21.08.24.3.47.24.1.03.22,0,.33-.02.07-.16.14.01.21-.12v.1s.06-.08.08-.02v.03c.03-.07.06-.02.08-.06v.03s.03,0,.03,0v.04c.05-.07.1-.07.15-.03v-.11c.1.14.16-.09.23.07v.03c.14-.29.15.23.3-.05-.02.03,0,.06,0,.09.06-.03.12-.04.14-.26.04,0,.02.07.02.16.01-.1.05-.14.08-.14l-.02.04.09-.02v-.19c.04.06-.01.23.04.19l.02-.15c.06.04.07.28.12.4.26.1.58-.27.79.03v.12c-.02.17.09-.24.08-.09l.04-.07s.02.07,0,.1c.03,0,.03-.02.05-.07l.02.11c.09.09.21-.1.31-.05.11.23.38.06.53-.04.23-.23.38.47.62.2,0,.02.03-.03.03-.05l.18.04s.9.17.37-1.31v-.04Z"/>
      <polygon class="cls-1" points="10.96 26.37 10.96 26.37 10.97 26.3 10.96 26.37"/>
      <path class="cls-1" d="M3.22,18.76h0s0,0-.01,0h.01Z"/>
      <path class="cls-1" d="M18.6,25.94l.06.03s-.02-.04-.06-.03Z"/>
      <path class="cls-1" d="M21.06,26.71h0s0,.01,0,.02v-.02Z"/>
      <path class="cls-1" d="M26.31,18.46c.06-.11.1-.26.11-.41,0-.16,0-.33-.03-.5-.02-.17-.07-.34-.12-.5-.05-.16-.09-.3-.14-.42-.09-.16-.13-.34-.13-.53-.02-.19-.01-.38,0-.58,0-.1,0-.2,0-.3,0-.1-.02-.2-.04-.29-.02-.09-.05-.19-.09-.27-.04-.08-.1-.16-.17-.24.01-.03-.06-.07-.08-.06-.04-.1-.07-.21-.12-.31l-.13-.31s-.02-.05-.06-.12c-.04-.08-.09-.18-.17-.29-.07-.11-.16-.23-.25-.35-.09-.12-.2-.21-.3-.3-.21-.16-.4-.22-.53-.07-.07.07-.12.2-.15.39-.02.09-.03.2-.04.32,0,.06,0,.13,0,.2,0,.07-.01.15-.02.23h-.04c.04.16.08.29.14.38.06.1.14.17.27.23-.19.13.09.24.05.34h-.02c.23.11,0,.42.22.53-.02,0-.08.02-.1-.02.07.11.17.27.05.32.03.07.06.15.09.24.03.08.05.17.08.26.05.17.14.31.25.4h-.04c.16.08.05.14.14.26-.02,0-.02.02-.03.02.08.05.1.14.11.24,0,.09,0,.18.03.23l-.09.02.05.25v-.1c.13,0,.1.06.06.13-.04.07-.1.16-.02.25-.01.09.12.17.23.26.12.09.22.19.16.28.11.09-.18-.08-.1.05-.13,0-.08-.06-.18-.03.05.13-.14.2-.06.36h-.1c.16.22-.17.37-.01.52.06.22-.31.09-.15.34l-.15.06c-.04.08.15.1.07.18-.08-.02-.09.11-.16.04-.09.1-.07.22-.07.34,0,.13,0,.27-.16.37.13.11,0,.22.09.31-.07-.02-.11.28-.2.07,0-.02,0-.04.03-.03l-.08-.05c-.11.05-.12.12-.11.21.01.09.04.18,0,.25.05-.03.07-.1.11-.03l-.07.14-.06-.06c-.04.06-.09.13-.14.19l.11.02c-.1.08-.27.03-.2.21.04.09.17-.03.14.09-.06.05-.15.12-.23.18-.09.06-.17.13-.23.21.11.05.07.09.07.15l-.09-.05c0,.25-.22-.06-.24.16l-.05-.05.14.16c.05.26-.22-.05-.13.28.04-.08.19.1.1.16l-.06-.08c-.02.06,0,.1-.04.11-.02-.06-.1-.1-.14-.03l-.06-.12.03.23c-.16.02-.18.25-.31.2,0,0-.23.13-.17.28-.03-.1-.15-.03-.2-.13.03.12-.05.32-.19.29v-.02c-.14.05-.21.16-.28.26-.07.11-.15.2-.29.22.08.09-.07.12.04.21-.03.07-.09.11-.14.13-.06.02-.12.03-.18.04-.11.02-.17.07-.09.29-.09.09-.18,0-.25,0v-.04c-.17.14-.23.18-.39.25-.06.08.03.28-.14.3.01-.1-.04-.06-.1-.03.03-.03.03-.06-.07-.08,0,.03,0,.05-.02.07,0,0,0,0-.01-.02-.08.07-.05.08,0,.08,0,.01.01.03.04.04-.14-.06-.26.13-.32,0-.13.07-.23.15-.33.24-.1.09-.19.18-.3.24-.05-.06-.01-.14.05-.19l-.16.08c-.03-.1.08-.09.12-.12-.13-.05-.21.02-.31.09-.09.08-.19.15-.33.1l-.03.09h-.02s-.03.1-.06.13c-.05-.08-.04-.21-.16-.18-.06-.03-.12,0-.18.04-.06.04-.13.09-.19.13.07,0,.06.06.03.1-.06.01-.11-.07-.15-.03l-.02-.12c.04.11-.14.15-.16.2-.04-.09.08-.09.09-.16-.24.05-.12.03-.36.06-.12.1.03.12-.02.23-.11.03-.22.13-.36.06l.05.11c-.22.09-.36.07-.51-.04-.21.12-.38.2-.51.29-.13.08-.23.16-.3.24-.14.15-.14.27-.09.38.11.21.48.32.48.32.18.08.35.1.51.11.16,0,.31-.01.46-.05.3-.09.61-.19,1.03-.31.76-.07,1.02.08,1.77-.24.18-.06.37-.14.55-.22.18-.09.35-.19.51-.28.09-.22.43-.23.55-.45l.12.04c.04-.07.09-.15.18-.14v.03c.06-.12.19-.15.21-.21v.03s.11-.08.11-.08v.05c.12-.16.27-.28.43-.35l-.08-.08c.37-.11.32-.38.66-.48l.02.02c.06-.24.2-.32.36-.4.08-.04.16-.08.22-.14.07-.06.12-.14.13-.27,0,.06.06.02.08.04.11-.17.23-.34.06-.49.09-.1.13-.04.21,0-.08-.06-.04-.18.02-.28v.06s.16-.27.16-.27l-.19-.06c.14-.1.21.1.27-.05l-.13-.09c.15-.17.41-.16.64-.29.07-.09.13-.2.18-.31.05-.11.1-.22.15-.33.09-.23.14-.47.21-.69.06-.23.11-.46.19-.68.07-.22.14-.43.27-.62h.12c.17,0-.2-.3-.04-.3l-.06-.11s.08-.08.11-.02c.02-.09,0-.1-.04-.17l.12-.08c.07-.18.05-.35.04-.53-.01-.18-.05-.35-.02-.55Z"/>
      <path class="cls-1" d="M14.51,24.7c-.05-.07-.02-.2-.24-.21h.04c-.15,0-.03-.04-.11-.05.02,0,.02-.01.03-.01-.15,0-.05-.09-.11-.1l.09-.02-.04-.06v.03c-.25.05.12-.09-.04-.09.02-.05-.51.04-.41-.04-.12,0,.18-.03.09-.04.12-.03.08,0,.18-.04-.07-.02.11-.08.02-.1l.1-.03c-.19,0,.1-.13-.07-.12-.09-.03.27-.11.07-.12l.12-.06s-.16.02-.11-.02c.08-.02.06-.05.14-.05.11-.09-.21-.07-.02-.21-.16.02-.08-.04-.2-.02.07-.02,0-.08.15-.08.01,0,.01,0-.01.01l.1-.02c.17-.09-.12-.05-.1-.1-.03.02-.01.04-.08.04v-.04s.08-.01.08-.01l.03-.07-.1.03s.21-.1.06-.09c-.08,0-.12.06-.16.04.06-.06.14-.14.16-.2-.11.03-.11.02-.13.01l.1-.03c-.15-.02.2-.08.09-.1l-.14.03c-.2,0,.19-.08-.08-.06.02.02-.21.07-.17.03l.09-.02s-.06,0-.05-.02c.05,0,.14-.03.11-.05l.12-.02h-.18c.09-.05-.05-.07.08-.11,0,0,.05-.08-.1-.06.09-.01.12-.06.22-.07-.1,0-.2-.02-.1-.07h.01c.09-.1-.18-.09-.07-.19-.11.03-.06-.02-.2.03-.16-.03.26-.2-.19-.11-.03-.03.09-.06.11-.09h.03c-.05-.05-.06-.06-.06-.11-.05-.01-.25.04-.21-.01.08,0,.07-.02.06-.03.02,0,.05,0,.1-.03-.03,0-.04,0-.06,0,0,0,.01,0,.02,0-.03-.02-.06,0-.07,0-.01,0-.03,0-.05.02.1-.05-.02-.07.11-.11-.05-.06-.21-.08-.28-.13.07-.02.14-.03.17-.02l-.04-.04c.1-.03.07.01.09.02.15-.09-.19-.06-.05-.16h-.08s.01,0,.01,0c-.04.01-.11.01-.12,0,.09-.03.21-.05.19-.08.08-.04-.06-.06-.12-.08-.01.02-.06.03-.1.03,0-.01.08-.04.04-.05l.12-.03c-.11.03-.13,0-.18,0,.09-.03.08,0,.15,0-.03-.06-.01-.03-.04-.09-.1-.01-.11.03-.22.04-.03-.02-.12-.03-.06-.08l-.11.04s-.05-.02-.06-.03l.4-.3s.03-.03,0-.04h.1c-.19-.05.12-.12-.05-.14-.09-.05.29-.05.09-.1l.13-.03s-.16,0-.1-.04c.08,0,.07-.03.15-.02.13-.06-.19-.12.03-.2-.16-.02-.07-.06-.19-.08.07,0,.01-.09.17-.04.01,0,.01.01-.02.01h.1c.18-.04-.1-.08-.07-.14-.03.01-.02.04-.09.02v-.05s.1.01.1.01l.05-.07h-.1c.05-.03.22-.04.08-.08-.08-.02-.14.03-.17,0,.07-.05.17-.13.2-.2-.11,0-.11-.01-.13-.03h.1c-.14-.07.22-.04.11-.11h-.14c-.2-.06.2-.05-.07-.11.02.03-.22.03-.18-.01h.1s-.06-.02-.04-.03c.05,0,.14,0,.12-.03h.12s-.18-.03-.18-.03c.1-.05-.04-.11.1-.14,0,0,.03-.06-.01-.09l-.8-.73s-.03.04-.03.08c.02-.09-.03-.13-.01-.23-.03.1-.1.19-.14.08h0c-.12-.12-.19.15-.29.02.01.11-.04.06-.02.2-.08.15-.22-.28-.2.18-.04.03-.07-.1-.09-.12v-.03c-.07.05-.09.06-.16.06-.02.05.02.26-.05.22,0-.09-.02-.07-.04-.06,0-.02,0-.05-.03-.09,0,.03,0,.04,0,.06,0,0,0-.01,0-.02-.03.04-.01.06,0,.07,0,.01,0,.03.02.05-.06-.1-.09.03-.14-.1-.1.07-.12.23-.18.31-.04-.07-.04-.13-.03-.17l-.05.05c-.04-.1.01-.07.02-.1-.14-.13-.08.22-.23.11l.02.08h-.01s.03.09.03.11c-.05-.08-.1-.19-.14-.16-.08-.06-.07.09-.08.16.03,0,.05.05.06.08-.02.01-.08-.05-.07-.01l-.07-.1c.07.09.02.14.04.19-.07-.07-.02-.08-.05-.15-.07.06-.04.03-.11.1.02.11.08.09.13.19-.02.05.01.13-.07.11l.09.07c0,.11-.03.13-.14.09.08.25.23.39.35.49.06.05.11.08.17.11-.03.16-.05.35-.05.6l-.02.03c.05.12.09.16.23.02-.08.21.06.05.05.13v.02c.11-.14.04.18.15.06,0,.02-.04.07-.05.07.01,0,.03,0,.04,0-.03,0-.04.02-.04.06-.04.03-.02.09-.03.14.12.11-.03.05.07.15l-.08-.05s.05.06,0,.04l-.02-.02c.05.05,0,.04.03.07l-.02-.02v.02s-.03-.03-.03-.03c.05.06.04.08,0,.08l.09.07c-.13-.04.05.11-.09.05l-.02-.02c.22.22-.21-.06-.01.15-.03-.03-.05-.03-.07-.05.01.04.01.07.19.2-.01.01-.07-.03-.14-.08.08.06.1.09.1.11l-.03-.03v.05s.16.1.16.1c-.06-.02-.19-.13-.16-.09l.13.09s-.24-.12-.35-.16c-.12.05.12.39-.16.32l-.1-.06c-.14-.1.19.17.06.08l.06.06s-.06-.03-.08-.06c-.01,0,.01.02.05.06l-.09-.05c-.09-.01.05.14-.01.16-.21-.08-.11.13-.06.25.16.22-.46-.08-.28.17-.02-.01.02.03.03.04l-.07.06s-.02.02-.03.06c0,.04,0,.1.05.17.05.07.14.15.31.25.17.09.41.19.74.33l.03.02c.1.02.13,0-.01-.12.19.12.04-.02.1.02h.02c-.13-.11.15.05.03-.06.01.01.07.05.07.05-.01-.03-.04-.08.07,0,0-.05.08-.07-.08-.21l.03.02c-.11-.1,0-.03-.05-.09.01,0,.02.01.03.02-.11-.1.01-.06-.03-.1l.07.05v-.04s-.02,0-.02,0c-.2-.14.14.07.03-.05.04,0-.38-.33-.27-.29-.09-.08.14.12.08.05.1.07.06.05.14.11-.04-.05.12.05.07-.02l.08.06c-.13-.13.14.03,0-.08-.05-.07.25.16.11.02l.12.07s-.13-.1-.07-.08c.07.05.07.02.12.08.13.05-.11-.16.09-.07-.09-.07-.07-.08-.08-.1.02,0,.04.01.08.01,0,0,.01.01.02.02,0,0,0,.01-.02,0l.03.02s0,0-.01,0c0,0,0,0,.01,0l.05.04c.1.06.05,0,.01-.05.05,0,.08,0,.08.02h-.04s.05.06.05.06l.18-.06c-.04.05-.22.07-.17.09l.15-.04c-.02.06-.24.15-.33.23-.01.22.43.33.21.59l-.11.04c-.16.05.26-.01.11.03h.08s-.06.04-.1.04c0,.02.03.02.08.02l-.1.05c-.06.1.16.12.14.21-.18.15.06.29.2.37.29.09-.33.43,0,.51-.02.01.03.01.05,0v.15s.03.17.21.24c.18.07.52.05,1.15-.38h.04c.07-.11.08-.16-.12-.18.22-.06,0-.07.07-.11h.02c-.18-.01.12-.14-.05-.15.02,0,.08-.02.09,0-.04-.03-.1-.06.03-.1ZM12.31,19.53l-.03-.03h.07s-.02.02-.04.03ZM12.17,19.41l-.03-.03s.04.02.05.03h-.02ZM12.7,19.89l-.08-.08s.06.04.08.08ZM12.37,19.45s-.08.02-.12.03h-.01s.14-.03.14-.03ZM12.2,19.33s-.03.03-.07.03l-.03-.03s.06,0,.1,0ZM12.39,22.98s0,0-.01-.01c0,0,.01,0,.02,0,0,0,0,0,0,0ZM12.58,23.05s-.02-.02-.02-.03c.03,0,.06-.01.1-.02,0,0,0,0,0,0,0,.02-.03.03-.08.05Z"/>
      <g>
        <path class="cls-1" d="M7.78,18.92v-.06s0,.05,0,.06Z"/>
        <path class="cls-1" d="M5.97,18.72s0,0,0,.01c0,0,0,0,0-.01Z"/>
        <path class="cls-1" d="M7.74,16.94h0s0,0,0-.01h0Z"/>
        <path class="cls-1" d="M8.08,17.14c-.09-.08-.08-.35-.19-.26-.04-.03-.1.03-.15.06-.05.21-.06,0-.11.17v-.12c-.01.06-.03.1-.03.03v-.03c-.02.09-.03.03-.04.08v-.03s-.01.01-.01.01v-.05c-.03.09-.05.1-.07.05l-.02.14c-.03-.17-.08.13-.1-.07v-.03c-.09.37-.05-.27-.14.09.01-.04,0-.07.01-.11-.03.04-.06.06-.09.34-.02,0,0-.09,0-.2-.01.12-.04.17-.05.18v-.05s-.03.04-.03.04l-.02.23c-.01-.07.03-.29,0-.23l-.02.19s0-.34-.02-.48c-.11-.1-.29.38-.36.03v-.15c.04-.21-.06.31-.04.11l-.02.1s0-.08.01-.13c-.01,0-.02.03-.03.09v-.13c-.03-.11-.1.14-.14.08-.03-.28-.17-.04-.25.09-.13.31-.13-.55-.27-.2,0-.03-.02.04-.02.06l-.08-.04s-.4-.13-.3,1.67v.05c.02.12.05.15.11-.08-.03.29.03.03.03.13v.02c.05-.22.03.19.08,0,0,.02-.01.1-.02.1.02-.03.06-.09.04.07.05-.04.11.05.17-.21v.05c.03-.18.02-.02.05-.11,0,.02,0,.03,0,.04.04-.17.06-.02.08-.09v.11s.03-.02.03-.02v-.03c.03-.3,0,.19.04,0,.02.04.13-.63.14-.47.03-.14-.04.23,0,.12-.02.16-.02.1-.03.23.03-.07.01.17.05.06v.12c.04-.22.02.17.07-.04.04-.1-.02.37.04.13v.17s.03-.2.03-.12c-.01.11,0,.09-.01.19.01.17.1-.23.11.06.03-.2.04-.08.07-.23,0,.09.04.02,0,.21,0,.02,0,.01,0-.02l-.02.12c0,.23.06-.12.08-.08,0-.04-.01-.03,0-.11l.02.02-.02.1.03.06v-.13c.02.07,0,.28.04.11.02-.1,0-.17.03-.21.01.09.03.22.06.26.01-.14.02-.14.03-.16v.12c.04-.17-.04.27.01.14v.09s.03-.26.03-.26c.06-.24-.02.26.06-.07-.01.02.03-.27.04-.22l-.02.12s.02-.07.02-.05c-.01.06-.02.17,0,.15l-.03.15.05-.22c0,.13.05-.03.04.14,0,0,.03.09.06-.1-.02.11,0,.16-.03.29.03-.13.07-.23.06-.09v.02c.02.15.09-.18.11,0,.02-.14.03-.06.04-.25.06-.18.03.38.11-.18.02-.03,0,.14.01.17v.03s.04-.05.07-.03c.02-.05.05-.32.07-.25-.02.1,0,.09,0,.09,0,.02-.01.05-.01.13,0-.03.01-.05.01-.07,0,0,0,.01,0,.03.02-.04.02-.07.02-.08,0-.02,0-.04,0-.07,0,.14.04,0,.02.18.05-.04.1-.22.15-.28,0,.09-.03.17-.04.21l.03-.03c-.02.13-.02.07-.03.1,0,.22.09-.21.1,0l.02-.1v.02c0-.06.02-.13.03-.15,0,.12-.03.27-.01.26,0,.11.05-.05.07-.11,0-.02,0-.08.01-.12,0,0,0,.11.01.06l-.02.16c.01-.15.04-.16.05-.22,0,.12-.03.1-.04.19.04-.01.02,0,.06-.02.03-.12.01-.15.04-.28.02-.03.05-.14.06-.04v-.14c.05-.1.07-.09.08.06.37-1.1.24-1.54.24-1.54-.05-.32-.15.08-.27.18Z"/>
      </g>
      <g>
        <path class="cls-1" d="M17.13,16.73v.06s0-.05,0-.06Z"/>
        <path class="cls-1" d="M19.15,16.59s0,0,0-.01c0,0,0,0,0,.01Z"/>
        <path class="cls-1" d="M17.56,18.67s0,0,0,0c0,0,0,0,0,.01h0Z"/>
        <path class="cls-1" d="M17.14,18.54c.11.06.16.33.26.22.05.02.11-.05.16-.08.01-.21.07,0,.09-.19l.02.12c0-.06.02-.1.03-.04v.03c.01-.09.03-.04.04-.08v.04s.02-.02.02-.02v.05c.02-.1.05-.11.07-.06v-.14c.05.16.05-.14.11.05v.04c.04-.39.11.25.15-.11,0,.05,0,.07,0,.11.02-.04.05-.07.04-.35.02,0,.02.09.03.2,0-.12,0-.18.02-.19v.05s.04-.05.04-.05l-.02-.23c.03.07.02.29.04.23v-.19s.06.33.1.47c.14.08.25-.43.39-.09v.15c.03.21.03-.32.05-.12v-.1s.03.08.02.13c.01,0,.01-.03.02-.09l.02.13c.06.1.09-.16.14-.11.08.27.19.01.25-.14.08-.33.25.52.33.15,0,.03,0-.04,0-.06l.1.02s.46.05,0-1.7v-.05c-.06-.11-.09-.13-.11.1-.02-.29-.04-.03-.06-.12v-.02c-.02.22-.08-.18-.09.02,0-.02,0-.1,0-.11-.02.04-.05.1-.06-.06-.05.05-.13-.03-.15.24v-.05c0,.18-.02.03-.04.12,0-.02,0-.03,0-.04-.01.18-.06.03-.07.11v-.11s-.05.03-.05.03l.02.02c.01.31-.04-.19-.06.01-.03-.04-.02.64-.06.49,0,.14,0-.23-.02-.12-.01-.16,0-.1,0-.23-.02.08-.04-.16-.06-.05v-.12c-.03.23-.08-.16-.09.06-.03.1-.05-.37-.07-.12l-.02-.17s0,.21-.02.13c0-.11-.03-.08-.02-.18-.05-.16-.06.24-.13-.04,0,.21-.03.09-.03.24,0-.09-.05-.01-.03-.21,0-.02,0-.01,0,.02v-.12c-.05-.23-.05.13-.08.1.01.04.02.03.02.11h-.03s0-.12,0-.12l-.04-.06v.13c-.01-.06-.03-.28-.04-.1,0,.1.03.17.01.21-.03-.09-.08-.21-.11-.25.01.14,0,.14,0,.17v-.12c-.03.17-.04-.27-.06-.13v-.09s0,.26,0,.26c-.02.25-.03-.26-.05.08.01-.02.02.27,0,.22v-.12s-.01.08-.02.05c0-.07,0-.17-.02-.15v-.15s-.01.22-.01.22c-.03-.13-.05.04-.07-.13,0,0-.05-.08-.05.11,0-.12-.02-.16-.03-.29,0,.13-.03.24-.05.1v-.02c-.06-.14-.07.2-.12.03.01.14-.02.07,0,.25-.03.18-.11-.37-.09.2-.02.03-.03-.13-.04-.16v-.03s-.04.06-.07.04c-.01.06,0,.32-.03.26,0-.11,0-.09-.02-.09,0-.02,0-.06-.01-.13,0,.03,0,.05,0,.07,0,0,0-.01,0-.03-.01.04,0,.07,0,.08,0,.02,0,.04,0,.07-.02-.13-.05.01-.06-.17-.05.04-.07.23-.1.31-.01-.09,0-.18,0-.21l-.03.04c0-.13.01-.08.02-.11-.05-.21-.06.22-.11.02v.11s0-.02,0-.02c0,.06,0,.13,0,.15-.01-.12-.02-.27-.04-.26-.02-.11-.04.06-.06.12.01.02.01.08.01.13,0,0-.02-.11-.03-.06v-.16c0,.15-.03.16-.03.23-.01-.12,0-.1,0-.19-.04.02-.02,0-.06.03-.01.12.01.15.01.29-.02.03-.03.14-.06.05l.02.14c-.03.11-.05.1-.08-.04-.19,1.15.04,1.56.04,1.56.12.3.15-.11.26-.22Z"/>
      </g>
    </g>
  </g>
</svg>