<?xml version="1.0" encoding="UTF-8"?>
<svg id="Layer_2" xmlns="http://www.w3.org/2000/svg" version="1.1" viewBox="0 0 132.2 107.8">
  <!-- Generator: Adobe Illustrator 30.5.1, SVG Export Plug-In . SVG Version: 2.1.4 Build 3)  -->
  <defs>
    <style>
      .st0 {
        font-family: Pretendard-Regular, Pretendard;
      }

      .st0, .st1, .st2 {
        isolation: isolate;
      }

      .st0, .st2 {
        font-size: 6px;
        letter-spacing: 0em;
      }

      .st3 {
        fill: #f0f0f1;
      }

      .st4 {
        fill: none;
        stroke: #000;
        stroke-miterlimit: 10;
        stroke-width: .5px;
      }

      .st2 {
        font-family: Pretendard-SemiBold, Pretendard;
        font-weight: 600;
      }

      .st5 {
        fill: #c61e57;
      }

      .st6 {
        fill: #1b1b1b;
      }
    </style>
  </defs>
  <g class="st1">
    <g class="st1">
      <text class="st0" transform="translate(51.6 106)"><tspan x="0" y="0">판교역</tspan></text>
    </g>
  </g>
  <g class="st1">
    <g class="st1">
      <text class="st2" transform="translate(88.3 30.7)"><tspan x="0" y="0">W스퀘어컨벤션</tspan></text>
    </g>
  </g>
  <line class="st4" x1="63.5" y1="41.7" x2="86.5" y2="29.7"/>
  <path class="st3" d="M117,54.4c-4.6-.3-5.9-1.4-10.7-.9-2.3,0-4.8.3-7.1.5-1,.9-3,.2-4.2,1l-.5-.4c-.4.3-.9.5-1.4.2h0c-.6.3-1.4,0-1.7.3h0c0,0-.8,0-.8,0v-.2c-1,.5-2.2.6-3.2.6v.6c-2.2-.4-2.8.9-4.9.4h0c-1.2.8-2.2.7-3.2.6-1.1,0-2.1-.2-3.3.8.3-.2-.2-.3-.2-.4-1.2.4-2.4.8-2.2,1.9-.9.2-.8-.2-1-.6,0,.5-.6.8-1.3,1l.3-.3-1.9.7.6.8c-1.1,0-.5-1-1.5-.6l.2.8c-1.5.2-2.6-.7-4-.9-5.6,1.3-10.9,4.9-16.2,4.7l-.4-.5c-.3-.8-.7,2-1.1,1.3l-.5.5c-.2,0-.6-.2-.3-.5-.5,0-.9-.3-1.3.1-.2,0-.5-.3-.7-.4-1.1,0-2,.3-3,.6-1,.3-1.9.6-3.1.7-.7-.2-1.5-.3-2.4-.3s-1.8,0-2.8.2c-1,0-1.9.2-2.8.3-.9,0-1.8.2-2.5.3-1.1.3-2.1,0-3.2-.2-1.1-.3-2.1-.8-3.1-1.3-.5-.2-1-.5-1.5-.7s-1-.5-1.5-.7c-1-.4-2.1-.6-3.2-.6,0-.2-.5,0-.5,0-1.2-.5-2.4-.9-3.6-1.4,0,0-1.1-.5-2.6-1s-3.3-1.1-4.9-1.3c-3-.4-5,.6.6,6.9h-.2c1.9,1.4,3.3,2,5,1.7-.2,1.2,1.7.7,2.1,1.3h0c1.6-.3,2.5,1.7,4.1,1.3,0,0-.2.4-.5.3,1,0,2.4.3,2.3.9,2.3.5,5.6,1.5,7.3.6v.2c.8-.6,1,0,2,0,0,0,.1,0,0,.2,1-.6,2.8,0,3.6,0v.4h1.9-.7c.3-1.3,1.4.7,2.8,0,1.3,0,2.5-2.7,3.8-2.1.6-.6-.5,1,.4.5,0,.6-.4.4,0,.9.9-.4,1.6.5,2.6,0v.5c1.5-1,3,.2,3.8-.8,1.4-.7,1.7,1.8,3.1.5h.3c.7,0,.3-.9,1.1-.7,0,.4,1,0,.7.6,1.8.3,3.1-1.7,5.5-1.2.3-.9,1.4-.7,1.6-1.4,0,.3,2.2-.5,1.2.6,0,0-.3,0-.3,0v.5c1.4.6,2.1-1.1,3.3-1.3-.4,0-.9,0-.6-.3l1.1-.2v.5c0,0,1.6-.2,1.6-.2l-.4-.4c.9,0,1.4.8,2.1-.2.3-.5-.9-.4,0-.8,1.2,0,2.9,0,4.3-.2-.3-.5,0-.6.4-.8l.2.5c1.2-1,.8.9,2,0v.4-1.1c1-1.3.9.8,2-.8-.5.2-.5-1,.2-1v.5c.3-.2.4-.4.6-.4-.2.3,0,.7.6.5l-.2.7.9-1.1c.9.3,2.1-.5,2.6,0,0,0,1.8,0,2.1-.8-.3.5.7.5.5,1.1.4-.6,1.7-1.2,2.3-.7h0c2.1.3,3.4-1.1,5.3-.7,0-.6.9-.3.5-1.1,1.8-.9,3.6,1.2,4.1-1.2.9-.2,1.1.5,1.5.5h-.2c1.6-.2,2.1-.2,3.3-.2.6-.3.6-1.3,1.7-1.1-.3.4,0,.3.5.3-.3,0-.3.2.2.5,0,0,.2-.2.3-.3h0c.7-.1.6-.2.2-.2,0,0,0,0,0-.3.7.5,2,0,2.1.6,2-.2,3.5-1,5.2-1.3.2.4-.2.7-.7.9l1.2-.2c0,.5-.7.3-1.1.4,1.5.8,3-.9,4.7,0l.4-.4h0c0-.2.4-.5.6-.5.2.5,0,1.1.8,1,.7.5,1.9-.2,2.8-.5-.5,0-.3-.3,0-.5.4,0,.7.5,1,.3v.6c0-.6,1.1-.6,1.3-.9.2.5-.7.4-.8.8h2.5c.9-.5-.2-.6.3-1.1.8,0,1.6-.6,2.5-.2l-.3-.6c1.5-.4,2.4-.4,3.4.2,5.6-2.3,6.2-3.8,5.4-4.8s-3-1.4-3-1.4c-4.4-1.2-6.7.4-11.9.8v-.5Z"/>
  <path d="M112.8,61.6l-.3-.2c0,0,0,.2.3.2Z"/>
  <path d="M26.5,73.2h0Z"/>
  <path d="M99.2,54h0,0Z"/>
  <path d="M56.8,73.4h-.2.2Z"/>
  <polygon points="64.6 74.7 64.6 74.7 64.5 74.7 64.6 74.7"/>
  <path d="M90.2,71.7h0Z"/>
  <polygon points="91.2 76.2 91.2 76.2 91.3 76.2 91.2 76.2"/>
  <path d="M32,43.6h0c0,0,0,0,0,0Z"/>
  <path d="M32.9,37.7h0Z"/>
  <polygon points="40.7 34.7 40.7 34.7 40.7 34.6 40.7 34.7"/>
  <path d="M15.5,21.8h0Z"/>
  <path d="M68.4,25.7h0Z"/>
  <polygon points="59.7 45 59.7 45 59.7 45 59.7 45"/>
  <polygon points="55.5 44.3 55.5 44.3 55.4 44.3 55.5 44.3"/>
  <path class="st5" d="M62.9,41.5c.2-.2,0-.3,0-.4h0c-.3,0-.2-.5-.5-.6h0c-.2,0-.4-.2-.3-.3-.3-.2-.9-.6-1.2-.4h-.4c-.2,0-.5,0-.6,0h0c0,0-.3,0-.3,0h0c0,.3-.2-.2-.5,0-.2,0-.3.7-.5.6,0,.2,0-.2,0,0v-.2c0,0-.3,0-.4,0h0c0,.2-.5,0-.5.2-.2.2-.4-.2-.4,0h-.2c0,0,0,0,0,.2h-.2c-.4,0-.2.6-.7.8,0,.2,0,.3,0,.4,0,0-.2.4-.3,0h0c-.3,0,0,.4,0,.6,0,0,0,0,0,0v.2h-.2c0,0,0,.2,0,.3h0c0,0-.3.2-.2.4,0,0,.2,0,.2,0,0,.2-.2.5-.2.8h.2,0c.2.3-.3.2,0,.4h.2c.3.2-.2.2.2.4,0,0,.2,0,.2,0h0s0,0,0,0c0,0-.2,0,0,0h-.2.3c0,.2.2.3,0,.5,0,0,0,.3.3.3,0,0,0,.2-.2.2.2,0,.4,0,.4.3h0c.2.4.7.3.9.6,0,0,.2,0,.2-.2.4,0,.5.6.8,0,.2,0,0,.2.2.2h.6c0,0,0-.3.3-.3,0,0,0,0,0,0h0c0,0,0,0,0,0h0c0,0,.3,0,.4,0,.4,0,.5-.4.8-.6v.2h.2,0c.3,0,.4-.4.7-.4h0v-.3c0,0,.2.2.3,0,.2,0,.2-.3.3-.4h0,.3c0,0,0-.2,0-.2,0,0,0,0,0,.2.2-.2,0,0,.2-.4,0-.2,0,0-.2-.2,0,0,0-.3,0-.4h0c0-.3,0-.4.2-.5-.2-.5-.4-.7-.6-.8h-.5c-.3,0-.4.2-.4.2-.4.3,0,.5-.2,1-.4.3-.6,0-.9.3-.2,0-.3,0-.5.2,0,.2-.2,0-.4.2h0s0,0,0,0h-.2c0,0-.2,0-.3,0h0c0,0-.3,0-.4-.2h0c-.5,0,0-.4-.5-.4h0s-.2-.2-.4,0c0,0,0,0,0-.2h-.2v-.2h-.2s.3,0,.2,0h-.2c0,0,.3-.3.4-.4v-.9c0-.3.2-.6.5-.7h0c.2.2,0-.2,0,0h0c0,0,0,0,0,0,.2,0,.3-.3.5-.3.3.2.7,0,1.1-.2.3,0,.5,0,.6.4,0,.2.2.4.5.5h0c0,0,0,.2.2.3,0,0,.2.4.4.7,0,0,.3.3.5.2.2,0,.6-.2.9-1h0c0-.4,0-.7-.4-.8h.3Z"/>
  <path d="M7.2,14.4v.3-.3Z"/>
  <path d="M7.3,24.7h0Z"/>
  <polygon points="14.1 46 14.1 46 14.2 46.1 14.1 46"/>
  <path d="M18.7,49.9h-.3.3Z"/>
  <path d="M31,51.8h.1-.1Z"/>
  <polygon points="58.9 49.3 58.9 49.3 59 49.3 58.9 49.3"/>
  <path d="M79.5,14.9v-.3.3Z"/>
  <path d="M77.6,24.6h0Z"/>
  <polygon points="80.1 46.5 80.1 46.5 80.2 46.6 80.1 46.5"/>
  <path d="M46.5,14.9v-.3.3Z"/>
  <path d="M45.1,24.5h0Z"/>
  <polygon points="46.7 46.6 46.7 46.6 46.8 46.7 46.7 46.6"/>
  <path d="M18.7,10.5h-.3.3Z"/>
  <path d="M31,12.4h.1-.1Z"/>
  <polygon points="58.9 9.9 58.9 9.9 59 9.8 58.9 9.9"/>
  <path d="M118.9,85.9v.3-.3Z"/>
  <path d="M120.8,76.2h0Z"/>
  <polygon points="118.3 54.3 118.3 54.3 118.2 54.2 118.3 54.3"/>
  <path d="M34.1,87.3h-.3.3Z"/>
  <path d="M44.7,89.2h0Z"/>
  <polygon points="68.6 86.8 68.6 86.8 68.7 86.7 68.6 86.8"/>
  <polygon points="58.8 96.7 58.8 96.7 58.8 96.7 58.8 96.7"/>
  <polygon points="56.3 93.7 56.3 93.7 56.2 93.7 56.3 93.7"/>
  <g>
    <path d="M56.8,98.8s0,0,0,0h0s0,0,0,0Z"/>
    <path d="M56.8,98.8s0,0,0,0h0Z"/>
    <path d="M56.8,98.8s0,0,0,0c0,0,0,0,0,0Z"/>
    <path d="M62.5,94.5c-.2,0,0-.2,0-.3-.2,0,0-.5,0-.6h0v-.4h-.3c-.2,0-.9.6-1,.5-.2,0,.2-.2,0-.1,0-.2,0,0,0-.2-.2,0-.2-.2-.4,0h-.7c-.2,0-.1-.4-.3-.1v-.2c-.2,0-.1.2-.2,0,0,0-.1,0,0-.2-.2-.2-.4.2-.7,0,0,.2-.3,0-.3.2,0,0-.5,0-.2-.2-.3-.4-.5,0-.8,0,0,0,.2,0,.2.1h-.2c0-.1-.3-.1-.3-.1-.2,0-.5-.3-.5,0s.3.2.2.2-.3,0-.5-.1c0,.1,0,.3,0,.4,0,0,0,.2.2.3h-.1c.2.4-.3,0,0,.3l.2.2c.2.4-.3,0,0,.5,0,0,.3,0,.2.2h-.1c0,0-.2,0-.2,0h-.2s0,0,.2.2c0,.2,0,.4,0,.4,0,0,0,.2,0,.3h-.3c.1,0,.2.2,0,.3,0,.3.2.4,0,.7.1,0,0,.2.3,0,.2.3-.4.9.2.8,0,.1,0,.3-.2.4v.6h.4,0s0,0,0,.1h.2c0,0,.4,0,.3.2.4,0,.8-.2,1.1-.3,0,0,0,.2-.2.2,0,0,.3,0,.4,0,0,0,.2,0,.3,0h0v-.2c0,.1,0,.3.1.3,0,0,.2,0,.3-.1h0c0,0,0,0,0,0v.2c0-.1.1-.2.2-.2v.2h.3c.1-.1,0-.1,0-.3,0,0,.2,0,.3,0,.2-.2.3-.2.4,0,.1,0,.2-.2.3-.3.2,0,.6,0,1.1-.7,0-.3,0-.4,0-.6.3,0,0-.2,0-.3-.2-.2.2-.3,0-.5h0c0-.1,0-.3,0-.3l.4-.5v-.5c0-.3,0-.5-.2-.6Z"/>
  </g>
  <g>
    <path class="st6" d="M119.3,94.3s0,0,0-.1c0,0,0,0,0,0v.2Z"/>
    <path class="st6" d="M22.8,10.4c.2,0,.3,0,.5,0-.2,0-.4,0-.5,0Z"/>
    <path class="st6" d="M8.4,10.6c0,0,.1,0,.2,0,0,0,0,0,0,0h-.3Z"/>
    <path class="st6" d="M8.6,49.9c0,0,.1,0,.2,0,0,0,0,0,.1,0h-.3Z"/>
    <path class="st6" d="M78.9,6.9s0,0,0,.1c0,0,0,0,0,0v-.2Z"/>
    <path class="st6" d="M46.3,6.6s0,0,0,.1c0,0,0,0,0,0v-.2Z"/>
    <path class="st6" d="M50.1,73.5s0,0,.1,0c0,0,0,0,0,0h-.2Z"/>
    <path class="st6" d="M25.1,87.3s0,0,.1,0c0,0,0,0,0,0h-.2Z"/>
    <path class="st6" d="M37.4,87.1c0,0,.1,0,.2,0,0,0-.2,0-.2,0Z"/>
    <path class="st6" d="M46.6,17.9c0,0,0,.1,0,.2,0,0,0-.1,0-.2Z"/>
    <path class="st6" d="M123.1,87.5c-.9-.1-1.7-.1-2.4-.1,0-1.9.2-3.1.2-5.8v-5.2c-.2-.8,0-2.2-.2-3.1v-3.2c0-.7,0-1.6,0-2.4h0c.2-1.6-.1-2.2,0-3.6-.4-1.8.3-2.9,0-4.7,0,0,0-.1,0,0,0-.9,0-1.8-.3-1.8,0-.6,0-.5.2-.6,0,0-.2-.6-.2-1.1v-1.2l-.2.3c0-.8.3-.2.2-.9h-.2c0-.8.2-1.4.4-2.1,4.6,0,12.5-.3,1.8-1.7v-.4c-.8,0-1.4,0-1.9,0,0-3.9-.4-8,0-11.5v-.2c.4,0-.2-1.1,0-1.2v-.7h0v-1.2c.2-.5.2-1,0-1.5h-1.8v.6c.1,1.1-.4.7,0,1.9l-.2.4c0,.5.2.4,0,.9,0,0,0,.7-.2.4-.2,1.2.2,2.5,0,4.1.2.4,0,1.2.2,1.4,0,0,0,1.6-.2.7v-.2h-.1c-.2.7,0,1.4,0,2.2,0-.2,0-.2,0-.1v.8-.2c-.1,0-.1,1.1-.1,1.1,0,.6-.3.8,0,1.5,0,.3.2-.6.2,0v.6c-.4,0-.7,0-1.1,0-.2-.3-1.7,0-2.2,0-1.3.2-2.6-.2-3.9,0,0,0,0,0,.4,0-.9,0-2.1,0-2.2,0-2.2,0-5.2,0-6.5.2-.8.1-1,0-1.9,0h0c-.9.2-2.5,0-3.2.1,0-.1-1.7,0-1.7,0h.6c-.2.3-1.3-.2-2.5,0-1.2,0-2.3.6-3.6.5-.6,0,.5-.2-.4-.1,0-.2.4,0,.2-.2-.8,0-1.4-.2-2.4,0-1.4,0-2.6-.3-3.5,0-1.4,0-.9-.4-2.4-.1l-.6-.2c-.6,0-.4.2-1.1.1,0-.1-.9,0-.5-.2h0v-1c0,0,0-.2-.2-.5h.1c-.2-1.2.3-.4,0-1.6l-.2-.2c-.2-1,.3-.5,0-1.7,0,.4-.3.2-.2-.3h0v-.5c0,.2.2,0,.2-.3l.2.3-.2-.8c0-.6,0-1.7,0-1.9,0,0,0-1.4,0-1.7,0,.3.2-.5.3-.3,0-.4-.2-1.4,0-1.8,0-1.5-.2-2.6,0-4,0,0,0-.7-.3-.5-.2-1.5.4-2.7-.2-3.2,0-.7,0-.8.2-1.1v-2.3c0-.5-.3-.5-.3-1.4,0,.3,0,0,0-.2,0,0,0,0,0-.3v-.4c0-.5,0-1.5.2-1.6,0-1.5-.2-2.7-.3-3.9,0,0,.2.2.2.5h0v-.9s0,0,0,0c0-.9-.2-1.7,0-2.8v-.3s0-.3-.2-.5c.1-.2.3,0,.3-.6v-1.5c0,.2,1.4-.3,1.6,0h.8c0,0,.1,0,.1,0h1.4c2.1.2,3.9,0,6.2,0,2.7.3,7.8,0,10.7-.1,4.1-.3,8.9.5,13.1.2h5.2v.9s-.1,0-.1-.3c0,.7.1,1.7,0,1.7,0,1.7,0,4.1.2,5.1.2.5,0,.7.1,1.4,0,.5,0,1.2,0,1.8h1.5v-1.2c-.3-3,.4-6.5.2-9.6,4.6,0,12.3-.4,1.7-1.7-.7,0-1.3-.1-1.9-.1v-2.3s.1-14.7-1.7-3.5c-.1,1.6-.1,2.6,0,3.8-.3.2,0,1.4-.1,1.7v.4c-.4,0-.8,0-1.3,0-.2-.3-1.7,0-2.2,0-1.3.2-2.6-.2-3.9,0,0,0,0-.1.4-.1-.9,0-2.1.1-2.2,0-2.2,0-5.2,0-6.5.2-.8,0-1,0-1.9,0h0c-.9.2-2.5,0-3.2,0,0,0-1.7,0-1.7,0h.6c-.2.3-1.3-.2-2.5,0-1.2,0-2.3.6-3.6.5-.6.1.5-.2-.4,0,0-.2.4-.1.2-.2-.8,0-1.4-.2-2.4,0-1.4.1-2.6-.3-3.5,0-1.4.1-.9-.4-2.4,0l-.6-.2c-.6,0-.4.2-1.1,0,0,0-.9,0-.5-.2h-.5v-1.4c0-.7,0,0-.3-.2,0-.6,0-1.1,0-1.8-.2-1.1-.2-1.7,0-2.4-1.1-8.4-1.6-1.8-1.6-1.8-.3,2.9,0,4.6.2,7.6h-2.9c-.4.2-1.5,0-1.8.2,0,0-2.1,0-.9-.2h.4c-1.2-.4-2.1,0-3.3,0,.3,0,.8,0,.5,0h-1.1.2c0,0-1.4,0-1.4,0-.8,0-1.1-.3-1.9-.1-.4.1.7.2,0,.2-1.1,0-2.6-.2-4-.3.1,0-.2,0-.6.2-1.4,0-.5-.4-1.9-.3l-.2.2c-1.3.2-.7-.3-2.1,0,.6,0,.3.3-.4.2h-.6c.2,0,0-.2-.4-.2l.4-.2-1.1.2c-.8,0-2.1,0-2.5,0,0,0-1.8,0-2.2,0,.4,0-.6-.2-.3-.3-.5,0-1.8.2-2.3,0h-.5v-1.3c-.1-.7-.1,0-.3-.2,0-.6,0-1.1,0-1.8-.2-1.1-.2-1.7,0-2.4-1.1-8.4-1.6-1.8-1.6-1.8-.3,2.9,0,4.5,0,7.5-.9,0-1.8,0-2.8,0,0,0-.9,0-.6.3-1.9.2-3.4-.4-4,.2-.8,0-1-.1-1.4-.2h-3c-.6,0-.7.3-1.7.3.3,0,0,0-.3,0,0,0,0,0-.4,0h-.4c-.7-.1-1.9,0-2-.2-2,0-3.4.2-5,.3-.2,0,.2-.2.7-.2h-1.2s0,0,.2,0c-1.2,0-2.4.2-3.7,0h-.3s-.4.1-.6.2c-.2,0,0-.3-.8-.3h0v-2.4s0-14.7-1.7-3.5c0,1.6,0,2.6,0,3.8-.3.2,0,1.4,0,1.8v.4h-.8c.4,0,.3,0,.1.1-.4,0-.6-.1-.9,0v-.2c.1,0-1.1.2-1.2.2-.2-.1.6-.1.7-.2h-2.4c-.9,0,.2,0-.3.3-.7,0-1.4,0-2.2,0-.9.2-1.4.2-2,.2v-.2h0c0,0-.2-.4-.3-.7v-.2c0,.2.1.4.2.4-.3-1.3-.1-.6-.4-1.9-.1-.2-.2-.3-.2-.2-.4-2.1-1.5-6.6-2-6.3-1.8-4.3-1.1.9-1.1.9.3,3.1,1,4.8,1.8,8.2-9.7,1.1-1.6,1.5-1.6,1.5h1.9c0,.6.1,1.1.3,1.6,0,0,0,.1,0,.2,0,0,0,0-.1-.2,0,.3.1.5.2.8,0,.3,0,.5.1.8,0,0,0,.1,0,.1,0,.4.2.8.3,1.2.1.7.3,1.5.5,2.5.3,1.7.7,3.5,1.1,5.1.4.7.4,2.2.8,3.1v.4c0,.3.2.7.2,1,.2.4.2,1,.3,1.2v.6c.4.7.5,1.6.6,2.3h0c.1,1,.3,1.5.5,2.2,0,.3-.1.4.2,1.1v.5c0,.5.2.3.2.8-.1,0,0,.7-.1.4,0,1.2.7,2.4.8,4,.3.3.3,1.1.5,1.3,0,0,.3,1.6,0,.7,0,0,0-.2,0-.2h-.1c0,.9.5,1.5.6,2.4,0-.3,0-.6,0-.4l.2.8h-.1c0-.1.2,1.1.2,1.1v-.2c.2.6,0,.9.3,1.5.2.3,0-.6.2,0,0,.2,0,.4,0,.6h-1.5c-.9.1.2.1-.3.3-.7,0-1.4,0-2.2,0-1.3.2-2.2.2-3.1,0-10.6,1.1-2.2,1.6-2.2,1.6,3.7.3,5.8,0,9.5-.2,0,.3,0,.5.1.7.1-.1.2.2.3.4h-.1c.4,1.1-.2.5.2,1.6l.2.2c.4.9-.1.6.4,1.6-.1-.4.2-.3.3.3h-.1c0,.2.2.3.2.5,0-.2-.2,0,0,.4l-.2-.3.4.8c0,.6.4,1.6.3,1.9,0,0,.2,1.4.4,1.6-.2-.2,0,.5-.2.3.2.3.5,1.3.5,1.8h0c.2,1.5.7,2.5.8,3.9.1,0,.2.6.3.4,0,0,0,.1,0,.2,0,.6.2,1.2.3,2,0,.4,0,.9.2,1.4,0,.3,0,.5,0,.8,0,.2,0,.5,0,.7v1.4c0,.5.4,2.8.4,3.4,0,0,0,0,0,0,0,.2,0,.3,0,.5,0,.8,0,2.4,0,3.7,0-.2,0-.5,0-.7-.1.7,0,1.5,0,2.2,0,.1,0,.2,0,.3,0,0,0,.1,0,.2,0,.3,0,.5,0,.8v.3c.1,0,0,0,0,0,0,0,0,0,0,0,0,.2,0,.4,0,.5,0,0-.1.1-.1.5,0,.2,0,.4,0,.6,0,.5-.2,1.1,0,2.6v3.5s.2,6.4,1.2,6.3c1.1.3.9-1.9.9-1.9.3-3,0-4.6-.1-7.8.8,0,1.5.2,1.5.2,3.6.3,5.4,0,9.7-.2,3.8,0,4.8.3,8.6.2h5.9v3.6s0,14.7,1.7,3.5c0-1.6,0-2.6,0-3.8.3-.2,0-1.4,0-1.7,0-.5,0-1.1,0-1.6h7.5c1.8,0,2.4-.3,4,0,2-.3,3.2.3,5.2,0,0,0,.1,0,0,0,1,0,2,0,2-.3.7,0,.6,0,.7.2,0-.1.6-.2,1.2-.2h1.3l-.3-.2c.8,0,.2.3,1,.2v-.2c1.1,0,1.8.3,2.9.5h5.6v3.8s0,14.7,1.7,3.5c0-1.6,0-2.6,0-3.8.3-.2,0-1.4,0-1.7,0-.6,0-1.3,0-1.9h6.7c0,.4,1.2-.2,1.4,0h2c1.8.2,3.4,0,5.3,0,2.3.3,6.7,0,9.2-.1,3.5-.3,7.6.5,11.2.2h3.4c0,.4-.1.6,0,.8h-.2c0,0,.2.9.2,1-.1.2-.1-.5-.2-.6v1.9c0,.7,0-.1.3.2,0,.6,0,1.1,0,1.8.2,1.1.2,1.7,0,2.4,1.1,8.4,1.6,1.8,1.6,1.8.3-3.3,0-5-.2-8.9v-.3c3.6,0,12.2-.3,2.4-1.7ZM17,19c0-.8.1-1.7.2-2.5,0-1.4.2-2.8.1-4.1,2.3,0,3.8.2,7.2,0h6.6c1-.2,2.8,0,4-.2h7.1c1.2,0,2,0,2.8,0,0,2.9.2,3.8.3,7.2v1c-3.8,0-8.3.5-11.8,0h-.2c0-.4-1.1.2-1.2,0h-1.9c-1.7-.2-3.1,0-4.9,0-1.1,0-2.6,0-4.2,0h-4v-1h-.1v-.5ZM44.8,87.3h-.4c.2,0,.3,0-.2,0h-.4c-.6-.1-1.6,0-1.7-.2-1.7,0-2.9.2-4.3.3-.2,0,.2-.2.6-.2h-1s0,0,0,0c-.9,0-1.9.2-3,0h-.3s-.3,0-.5.2c-.2,0,0-.3-.7-.3-.5,0-1.5,0-2.3,0,.4,0,.3,0,0,.1-.3,0-.5-.1-.8,0v-.2c0,0-.9.2-1.1.2-.2-.1.5-.1.6-.2h-2.1c-.7,0,0,0-.2.3-.7,0-1.2,0-1.9,0-1.2.2-1.9.2-2.7,0-1.3.2-2.3.3-3,.5,0-3.3.4-4.2.3-7.7,0-1.7,0-3.5,0-5.1,0-.3,0-.7,0-1.2,0-.2,0-.5,0-.7,0-.3,0-.5,0-.8v-.2c0,0-.1-.1-.1-.1,0,0,0-.2,0-.2v-.4c0-.3-.2-.7-.2-1h0c-.2-.4-.2-1-.3-1.2h0s-.1-.5-.1-.5h0c-.3-.7-.4-1.5-.6-2.3h-.1c-.2-1.5-.6-2-.7-3.5h0c-.7-1.7-.3-2.9-1.1-4.6,0,.2,0-.1,0-.1-.2-.8-.4-1.7-.7-1.7-.1-.6,0-.5,0-.6-.1,0-.3-.5-.4-1v.2c0,0-.2-1.4-.2-1.4v.2c0,0-.1-.1-.1-.2v.3h0s0-.1,0-.1c0-.4.2-.1,0-.7h-.1c0-.3,0-.9,0-.9v.2c0-.4,0-.6,0-.9,0,0,0-.1,0-.2,3.8,0,5,.3,9.3.2h6.6c1-.2,2.8,0,4-.2h7.1c1.3,0,2-.1,2.9-.1,0,3.7.4,7.6,0,11v.2c-.4,0,.2,1.1,0,1.2v.7h0v1.2c-.2,1.7,0,3.1,0,4.9-.3,2.1,0,6.1,0,8.4.3,2.6-.2,5.5-.3,8.2l.2.4ZM45,49.4c-1,0-1.9,0-3,0,0,0-.9,0-.6.3-1.9.2-3.4-.4-4,.2-.8,0-1-.1-1.4-.2h-2v-.3c.3-1.6-1-3.4-1.2-5.4,0-1.7.3-2.1.2-3.9v-2.5c0-.2,0-.5,0-.7v-.7h0c0-.1.1-.1.1-.1.8,0,2-.2,2.7.1.9-.3,1.4.3,2.4,0,0,0,0,0,0,0,.4,0,.9,0,.9-.3q.3,0,.3.2c0,0,.3-.2.5-.2h.6v.3c0,0,0-.2.3-.3v.3c.4,0,.8-.2,1.3,0,.8,0,2.1.4,3,.4.4,1.8,0,3.3.3,5.2,0,0,0,.1,0,0,0,.9-.5,1.9-.2,1.9,0,.6,0,.5-.2.6,0,0,.2.6.2,1.1v1.2l.2-.3c0,.8-.3.2-.2.9v-.2h.3c0,.9-.3,1.5-.4,2.3ZM44.9,34.7h-.2c.1,0,.3,0,.2,0h-.4c0,0-1.1,0-1.1,0-.3,0-.4-.3-.8,0-.2,0,.3.2,0,.2s-1-.2-1.5-.3q0,.1-.2.2c-.5,0-.2-.4-.7-.3v.2c-.6.2-.4-.3-.9,0,.2,0,0,.3-.2.2h-.3s0-.2-.2-.2v-.2c0,0-.3.2-.3.2-.3,0-.8,0-.9,0,0,0-.7,0-.8,0,0,0-.2-.2-.1-.3-.2,0-.7.2-.9,0-.8-.2-1.3.2-2,0h-.2c0,0-.2,0-.2.2-.8.1-1.6,0-2.1,0,0,.3,0,.5.3.8,0,.5-.1.5-.2.8v1.5c0,.2.3.3.3.7,0-.1,0,0,0,.2,0,0,0,0,0,0h0c-.1.4,0,.8-.2.9,0,.8.2,1.3.3,1.9,0,0-.2,0-.2-.3-.2.5.2,1.1,0,1.7h.1v.2l.2.2c-.1,0-.3,0-.3.3,0,.2,0,.7.1,1,0-.2,0,0,0,0,0,.2,0,.2,0,.4h-.2c.1,0,.2.4.2.5,0,0,0-.2-.2-.3v.9c.1.3.1,0,.3,0,0,.3,0,.6,0,.9h0c0,.4,0,.8,0,1.1,0,.5.2.8.4,1.1-.5,0-.6.3-1.6.2.3,0,0,0-.3,0,0,0,0,0-.4,0h-.4c-.7,0-1.9,0-2-.2-2,0-3.4.2-5,.3-.2,0,.2-.2.7-.2h-.2c-1.4-.2-2.9.2-4.5,0h-.3s-.4,0-.6.2c-.2,0,0-.3-.8-.3-.5,0-1.3,0-2,0-.8-3.7-2-7.5-2.4-10.9v-.2c.3-.1-.4-1-.3-1.2l-.2-.4c0-.1,0-.4,0-.2,0-.4-.1-.4-.2-.7v-.5c-.2-1.6-.7-3-1-4.7-.2-2.1-1.2-5.9-1.8-8.1-.9-2.9-.9-6.6-1.8-9.6,2.1,0,4-.2,7.1-.3h1v.8s-.1,0-.1-.3c0,.7.1,1.7,0,1.7,0,1.7,0,4.1.2,5.2v2.4h3.1c0,.1,1.3,0,1.3,0h-.5c.2-.3,1,.2,2,0,.9,0,1.9-.6,2.8-.5.5,0-.4.2.3.1,0,.2-.3,0,0,.2.7,0,1.1.2,1.9,0,1.1-.1,2,.3,2.7,0,1.1-.1.7.4,1.9,0l.4.2c.5,0,.4-.2.9-.1,0,.1.7,0,.4.2,1.2.2,2.5-.2,4.1,0,.4-.2,1.2,0,1.4-.2,0,0,1.6,0,.7.2h-.3c.9.4,1.7,0,2.6,0-.3,0-.6,0-.4,0h.9-.2c0,0,1.1,0,1.1,0,.6,0,.8.3,1.5.1.5-.2.3-.2.1-.2.3,0,1.1,0,1.3,0v2.3c.2.8,0,2.2.2,3.1v3.2c0,.7,0,1.6,0,2.4h0c0,.6-.5,1.1-.5,1.6ZM77.5,86.9h-.5.2c0-.1-1.2-.1-1.2-.1-.7,0-.9-.3-1.7,0-.3,0,.6.2,0,.2-.9,0-2.3-.2-3.4-.3,0,.1-.2.1-.5.2-1.2,0-.4-.4-1.7-.3l-.2.2c-1.1.2-.6-.3-1.8,0,.5,0,.2.3-.4.2h-.6c.2,0,.1-.2-.4-.2l.3-.2-.9.2c-.7-.1-1.8,0-2.1-.1,0,0-1.5,0-1.9.1.3-.1-.5-.2-.3-.3-.4.1-1.5.2-2,0-1.7-.2-2.9.2-4.5,0,0,.1-.7,0-.5.3-1.6.2-2.9-.4-3.5.2-.7,0-.9,0-1.2-.2h-2.1c0-.4,0-.8,0-.8,0-1.7.4-3.6.2-4.6-.2-.5,0-.7,0-1.4-.2-.7,0-2,0-2.5h0v-.9c-.2-.1,0-.5,0-1.1.5,0,1,.1,1,.1,2.5.3,3.4-.5,6.3-.7,2.6,0,3.3.3,6,.2h3.1c.4-.2.9-.4,1.3-.7.4-.4,1.5-.7,2-1.2h.3c.2-.2.4-.3.7-.4.3-.2.7-.3.8-.4l.4-.2c.5-.3,1.1-.6,1.6-.8h-.1c1.2-.5,1.4-1,2.5-1.3,1.1-.9,2.1-.7,3.2-1.6,0,.1,0,0,0,0,.6-.3,1.2-.7,1.1-.9.4-.2.4,0,.5,0h0c0,.8,0,1.7,0,2.7-.3,2.1,0,6.1,0,8.4.2,2.5-.2,5.2-.3,7.8l.4.5h-.3ZM77.8,64.2v.7h0v1.1h-.2c-.1,0-.3,0-.6.3.3-.2.3.2,0,.3v-.2c-.2,0-.2.2-.3.2,0,0,0-.2-.3,0v-.2c0,0-.3.5-.3.5-.5,0-1.1.6-1.4.5,0,0-1,.4-1.1.6.1-.2-.4,0-.3-.2-.2.2-.9.7-1.2.7-1.1.3-1.7,1-2.8,1.3,0,.1-.4.3-.2.4-.9.6-2,.5-2.1,1.2-.4.2-.6,0-.8.2-.8.4-1.1.5-1.7.8-.3.2-.2.5-.8.7,0-.2,0,0-.3,0,0,0,.2,0-.2,0h-.1c0,.1-.1.2-.1.2h-.3s-.4,0-.5,0c-1.2,0-2,.2-3,.3-.1,0,0-.2.4-.2h0c-.8-.2-1.7.2-2.7,0h-.2s-.2.1-.4.2c-.1,0,0-.3-.5-.3-.4-.1-1.1,0-1.6,0,.3,0,.2,0,0,0-.2,0-.4,0-.6,0v-.2c0,0-.6.2-.7.2,0,0,.4,0,.4-.2h-1.4c-.5,0,0,0-.2.3-.4,0-.8,0-1.3,0-.8.2-1.2.2-1.8,0-1.1.2-1.3,0-1.8,0,0-.9-.2.1-.1-.9-.1-.5.2.4,0-.3v-.6c.2,0,.1.3.2,0,0-.7.2-1.1,0-1.9h0c-.2-1.1.2-2,0-2.8,0-1.1.4-.7.1-1.9l.2-.4c0-.5-.2-.4-.1-.9.1,0-.2-1,0-.7.2-1.2-.2-2.5,0-4.1-.2-.4,0-1.2-.2-1.4,0,0,0-1.6.2-.7v.2h.1c.2-.7,0-1.4,0-2.2,0,.2,0,.2,0,.1l-.4-1.3v.2c.1,0,.1-1.1.1-1.1,0-.6.3-.8,0-1.5,0,0,0,0,0,0,2.2-.2,3.7.6,5.9.4,0,0,.2,0,.2,0,1.1,0,2.3,0,2.3-.3.8,0,.7,0,.8.2,0-.1.7-.2,1.3-.2h1.5l-.4-.2c1,0,.2.3,1.2.2v-.2c1.3,0,2.1.3,3.4.5,4.9,0,10-.3,14.7,0,0,3.8.4,7.7,0,11.1v.2c-.4,0,.2,1.1,0,1.2ZM46.6,24.7v-.4c0,.2,0,.3,0,0v-1.7h.8c0,0,.2,0,.5-.2,1.1,0,.4.4,1.5.3l.3-.2c1-.2.5.3,1.7,0-.4,0-.2-.3.3-.2h.5c-.2,0,0,.2.3.2l-.3.2.8-.2c.6,0,1.7,0,1.9,0,0,0,1.4,0,1.7,0-.3,0,.5.2.3.3.4-.1,1.4-.2,1.9,0,1.6.2,2.7-.2,4.1,0,0-.1.7,0,.5-.3h2.6s0-.1.3-.2h.3c0,0,0,.2,0,.3v1.8c0,.5.3.5.3,1.4,0-.3,0,0,0,.2,0,0,0,0,0,.3v.4c-.1.5,0,1.5-.2,1.6,0,1.6.2,2.7.3,4,0,0-.2-.2-.2-.5h0v.9c-.1,0,0-.5,0-.8-.2,1.1.2,1.6,0,2.8v.3s-.3,0-.2,0c0,0,.2.2,0,.2-.3,0-.7.4-1.3.2-.8-.2-1.3-.2-1.9,0,0-.3-.7,0-.9-.1-.5.2-1-.2-1.5,0,0,0,0,0,0,0-.3,0-.8,0-.8,0-.8,0-2,0-2.5.2-.3,0-.4,0-.7,0-.3.2-1,0-1.2,0,0,0-.7,0-.7,0h.2c0,.3-.5-.2-1,0-.4,0-.9.6-1.4.5-.2,0,.2-.2-.1,0,0-.2.2-.1,0-.2-.3,0-.5-.2-.9,0-.5,0-1-.3-1.3,0-.5,0-.4-.4-.9,0l-.2-.2c-.2,0-.2.2-.4,0,0,0-.3,0-.2-.2-.6-.2-1.1.2-1.8,0v-1.7c0,0,0-.7-.3-.5-.2-1.5.4-2.7-.2-3.2,0-.7.1-.8.2-1.1v-2.3c0-.5-.3-.5-.3-1.4,0,.3,0,0,0-.4ZM46.8,43.3l.2.3-.2-.8c0-.6,0-1.7,0-1.9,0,0,0-1.4,0-1.7,0,.3.2-.5.3-.3-.1-.4-.2-1.4,0-1.8v-.5c.5,0,1.6.2,2.1.3,0,.4.5-.2.6,0h.2s.1,0,0,0h.5c.8.2,1.5,0,2.4,0,1,.3,3,0,4.1,0,1.6-.3,3.4.5,5,.2h1.7s1.6,0,2.7-.2c0,.5,0,1,.2,1.6,0-.4,0-.2.1,0,0,.3-.1.5,0,.7h-.2c0,0,.2.9.2,1-.1.2-.1-.5-.2-.6v1.9c0,.7,0-.1.3.2,0,.6,0,1.2,0,1.9,0,1.1,0,1.8,0,2.6.2,1.7.4,2.8.6,3.4h-.2.2c-.8,0-1.1-.2-1.9,0-.4,0,.7.2,0,.2-1.1,0-2.6-.2-4-.3,0,0-.2,0-.6.2-1.4,0-.5-.4-1.9-.3l-.2.2c-1.3.2-.7-.3-2.1,0,.6,0,.3.3-.4.2h-.6c.2,0,0-.2-.4-.2l.4-.2-1.1.2c-.8,0-2.1,0-2.5,0,0,0-1.8,0-2.2,0,.4,0-.6-.2-.3-.3-.5,0-1.8.2-2.3,0h0c0-.3-.4-.5-.4-.8,0,0,0-.2-.2-.5h.1c-.2-1.2.3-.4,0-1.6l-.2-.2c-.2-.9.2-.6,0-1.5,0,0,.1-.3.2-.6h-.3v-.4c0,.2.2,0,.2-.3ZM46.8,51.3c0,.1-.1.4-.1,0,0,0,0,0,.1,0ZM77.9,49.5c-.9,0-1.9,0-3,0-.4.2-1.5,0-1.8.2,0,0-2.1,0-.9-.2h.4c-1.2-.4-2.1,0-3.3,0,.3,0,.8,0,.5,0h-1.1.2c0,0-.6,0-.6,0,.1-.8.2-1.7.2-1.7.3-3.3,0-5-.2-8.9,0-4.2.3-5.1.2-8v-5.2c0-.4,0-.9,0-1.5v-3.8h-5.7c-1.6,0-2.2.3-3.7,0-1.9.3-3-.3-4.8,0,0,0-.1,0,0,0-.9,0-1.8,0-1.8.3-.6,0-.5,0-.6-.2,0,0-.6.2-1.1.2h-1.2l.3.2c-.8,0-.2-.3-.9-.2v.2c-.9,0-1.4-.2-2.2-.4,0-.7-.1-1.4-.2-2.2,0-.1.2.2.2.5h0v-.9s0,0,0,0c0-.9-.2-1.7,0-2.8v-.3s-.1-.3-.2-.5c0-.2.3,0,.3-.6v-1.6c2.4-.3,3.7.3,6.1,0,0,0,.2,0,.2,0,1.1,0,2.3,0,2.3-.3.8,0,.7,0,.8.2,0,0,.7-.2,1.3-.2h1.5l-.4-.2c1,0,.2.3,1.2.2v-.2c1.3,0,2.1.3,3.4.5,4.8,0,10-.3,14.6-.1,0,3-.3,4-.2,7.4v5.2c.2.8,0,2.2.2,3.1v3.2c0,.7,0,1.6,0,2.4h0c-.2,1.6.1,2.2,0,3.6.4,1.8-.3,2.9,0,4.7,0,0,0,.1,0,0,0,.9,0,1.8.3,1.8,0,.6,0,.5-.2.6,0,0,.2.6.2,1.1v1.2l.2-.3c0,.8-.3.2-.2.9h.2c0,.9-.3,1.6-.4,2.4ZM79.8,51.7c0,0,0,.3-.1,0h.1ZM79.7,65.3l.2-.4c0-.5-.2-.4,0-.9v-.5s0-.7.1-.4c.2-1.2-.2-2.5,0-4.1-.2-.4,0-1.2-.2-1.4,0,0,0-1.6.2-.7v.2h0c.2-.7,0-1.4,0-2.2,0,.2,0,.2,0,.1v-.8.2c0,0,0-1.1,0-1.1,0-.6.3-.8.1-1.5.4,0,1.1-.3,1.2,0h.8c0,0,.1,0,.1,0h1.4c2.1.2,3.9,0,6.2,0,2.7.3,7.8,0,10.7,0,4.1-.3,8.9.5,13.1.2h4.9v.7c.1,0,.1.2.2.5h0c.2,1.2-.3.4-.1,1.6l.2.2c.2,1-.3.5,0,1.7,0-.4.3-.2.2.3h-.1v.5c0-.2-.2,0-.2.3l-.2-.3.2.8c-.1.6,0,1.7-.1,1.9,0,0,0,1.4.1,1.7-.1-.3-.2.5-.3.3.1.4.2,1.4,0,1.8v2.6c-.5-.1-1.1-.3-2-.5-1.2-.2-2-.2-2.9,0-.1-.3-1,0-1.3-.1-.8.2-1.6-.2-2.3,0,0,0,0,0,.2,0-.5,0-1.3,0-1.3,0-1.3,0-3.1,0-3.9.2-.5,0-.6,0-1.1,0-.5.2-1.5,0-1.9,0,0,0-1,0-1,0h.4c-.1.3-.8-.2-1.5,0-.7,0-1.4.6-2.1.5-.3.1.3-.2-.2,0,0-.2.2-.1,0-.2-.5,0-.8-.2-1.4,0-.8,0-1.5-.3-2,0-.8,0-.6-.4-1.4,0l-.3-.2c-.4,0-.3.2-.7,0,0,0-.5,0-.3-.2-.9-.2-1.9.2-3.1,0-.3.2-.9,0-1.1.2,0,0-1.2,0-.5-.2h.2c-.7-.4-1.3,0-1.9,0,.2,0,.5,0,.3,0h-.6,0c0,0-.9,0-.9,0-.5,0-.6-.3-1.2-.1-.2.1.4.2,0,.2-.6,0-1.6-.2-2.3-.3,0,0,0,0-.4.2h-.3v-.5ZM90,76.4h.2-.3c0,.3-.3.5-.5.7,0,.9.4,1.9,0,2.7h0c-.2,0,.3.3,0,.3,0,.1,0,.2,0,.1v.2h-.1c0,.5.2.8.1,1.1-.3.5,0,1.3,0,1.8.3.7-.5,1.5-.2,2.2v1.5h-.9l-.5-.2c-.5,0-.4.2-1,.1,0-.1-.7,0-.4-.2-1.3-.2-2.7.2-4.5,0-.4.2-1.3,0-1.6.2h-.5c-.2-.2-.4-.2-.6-.2,0-.3,0-.4.1-.5,0-1.7,0-4.1-.2-5.1-.2-.5,0-.7-.1-1.4-.2-.7.3-1.7.2-2.2h0v-.9c-.3-.2,0-.7-.2-1.7,0-.9-.2-.7-.1-1.7,0-.5.2.4,0-.3.2,0-.1-1.1,0-1.3,0-.7.2-1.1,0-1.9h.1c-.2-1,0-1.8,0-2.5.7,0,.8,0,1.5.2,2.5,0,6.2-.2,8.7-.2,0,.5.2.9.3,1.6,0,.7-.3.9-.2,1.7v1.1c.2.2,0,.5.2.7h0c0,0,0,.2,0,.3v.3h0c0,.3,0,.4,0,.6h0c-.2.3.1.5,0,.8.4.4-.3.6.1,1h-.1c0,.2,0,.4.3.4q0,0-.2,0c0,0,.2,0,.2.2v.3h.2c0,0-.3,0-.2,0ZM119.3,77.1s0,0,0,.3v.4c0,.5,0,1.5-.2,1.6,0,1.5.2,2.7.3,3.9,0,0-.2-.2-.2-.5l-.3-.9h0c-.2,1.2.2,2.3,0,3.6v.3s0,.3.2.5c0,.2-.3,0-.3.6v.2c-.4,0-1.4,0-1.7,0-1.1.2-2.3-.2-3.3,0,0,0,0,0,.3,0-.8,0-1.8,0-1.9,0-1.8,0-4.4,0-5.6.2-.7,0-.9,0-1.6,0-.7.2-2.1,0-2.7,0,0,0-1.5,0-1.5,0h.5c-.2.3-1.1-.2-2.2,0-1,0-2,.6-3,.5-.5.1.4-.2-.3,0,0-.2.3-.1.2-.2-.7,0-1.2-.2-2.1,0-1,0-1.9-.2-2.6,0h.1c0-.4,0-.7,0-.9.3,0,0-.3,0-.4-.2-.2.2-.4,0-.6h0c0-.2,0-.4,0-.4,0-.4,0-.9-.2-1.1-.2,0,0-.2-.1-.3-.2-.1,0-.4,0-.5h0v-.3c-.3,0,.2-.1,0-.3,0-.2-.6-.4-.5-.6h.3c0,0,.2-.2,0-.4h.1c-.2-.2-.2-.6-.4-.8,0-.2.4-.2,0-.4h.2c0-.2-.2-.2,0-.3,0,0,0-.1.2,0,.2-.3-.2-.5,0-.9-.2,0,0-.3-.2-.3,0,0,0-.4.2-.2h0c.2-.2,0-.3,0-.5,0,0,0,.1,0,0v-.2h0v-.3c0,0,.3-.2,0-.3,0,0-.2,0-.2,0,0-.2.2-.4.3-.7q-.1,0-.2,0h0c-.2-.2.3,0,.1-.3h-.2c-.2-.3.3-.2,0-.4h.3-.2c.1-.2,0-.5.1-.5,0,0,0-.3-.1-.4.1,0,.2,0,.3,0-.1,0-.2-.3,0-.4,0-.3-.2-.6,0-.9-.1,0,0,0-.3,0-.2-.3.4-.6-.2-.7,0,0,0-.2.2-.2v-.5s.1.1.1,0h0c.1,0,0-.3.2-.3,0-.3-.2-.6-.3-.8,0,0,.2,0,.2,0v-.2c0,0,0,.1,0,.2.2-.2-.2-.5,0-.8h-.1s0,0-.2-.1c.1,0,.3,0,.3,0,0,0,0-.3-.1-.4h0s0,0,0-.2h.2c-.1,0-.2-.2-.2-.2,0,0,0,0,.2,0,0-.3,0-.6,0-.9,0-.1,0,0-.3,0,0-.1,0-.3,0-.4h0v-.5h.4c0,.4.8-.2.9,0h.4s0,0,0,0h.8c1.3.2,2.3,0,3.7,0,1.6.3,4.6,0,6.3,0,2.4-.3,5.3.5,7.7.2h2.6s2.9.5,4.5.3v.4c.1,0,0,.7.3.5.2,1.5-.4,2.7.2,3.2,0,.7,0,.8-.2,1.1v2.3c0,.5.3.5.3,1.4,0-.3,0,0,0,.2Z"/>
    <path class="st6" d="M79.4,18c0,0,0,.1,0,.2,0,0,0-.1,0-.2Z"/>
    <path class="st6" d="M38.3,87.1c-.1,0-.3,0-.4,0,.2,0,.3,0,.4,0Z"/>
    <path class="st6" d="M17.7,84.5s0,0,0,.3v-.3Z"/>
    <path class="st6" d="M19.7,74.9s0,0,0,0c0,0,0,0,0,0h0Z"/>
    <polygon class="st6" points="13.4 54 13.4 54 13.3 54 13.4 54"/>
  </g>
</svg>