<?xml version="1.0" encoding="UTF-8"?>
<svg id="Layer_2" xmlns="http://www.w3.org/2000/svg" version="1.1" viewBox="0 0 1374.4 199.5">
  <!-- Generator: Adobe Illustrator 30.5.1, SVG Export Plug-In . SVG Version: 2.1.4 Build 3)  -->
  <g id="Layer_1-2">
    <g>
      <g>
        <path d="M86,146.2c-2,0-3.9-.5-5.6-1.4-3.2-2-5.1-5.3-6.2-10.5-1-4.9-1-10.7,0-17.6,1.1-7.4,2.6-14.3,4.4-21,2-7.5,4.4-14.8,7.3-22.5,2.8-7.7,5.6-15.7,6.7-20.2-1.5,1.5-4,4.1-8,8.5-14.2,15.8-27.8,30.2-40.2,42.8-4.3,4.2-8,7.8-11.4,11-2.9,2.8-5.6,5.1-7.9,7.1l-1.1.9c-2.3,1.9-4.6,3.8-7,5.5l-1.4,1c-1.5,1-2.8,1.9-3.8,2.4-1.3.8-2.6,1.3-3.8,1.7-1.3.3-2.1.3-2.8.3h-.2c-.9-.2-1.5-.5-2-.9-.8-.5-1.5-1.3-1.8-2.3h0c-.2-.8-.4-2.2,0-4.3.2-1.8.8-4,1.9-6.7.8-2.1,2.3-5.7,4.6-10.5,2.2-4.6,4.9-9.6,7.8-14.9,5.7-10.2,13.4-21.3,22.9-33,9.8-12,19.7-22.4,29.6-30.9,10.3-9,18.3-13.9,24.4-14.9.8-.2,1.7-.2,2.5-.2,2.4,0,4.4.7,6.1,2.2.6.5.9,1.1,1,1.8,0,.5,0,1.2-.7,1.9-.7.8-1.4,1-1.9,1s-1.2-.3-1.8-.8c-.6-.5-1.6-.8-2.7-.8s-.9,0-1.5.1c-5.3,1-12.9,5.7-22.5,14.2-9.7,8.5-19.4,18.7-28.7,30.2-9.4,11.6-16.8,22.3-22,31.9-15.3,27.6-14.4,31.4-14,31.9.2,0,.6,0,1.4-.3.4-.2,2.4-1.2,10.3-7.5,6-4.8,13.6-11.8,22.5-20.8,11.6-11.6,24.7-25.6,40.1-42.7,5-5.6,8.3-8.8,10.1-10.3,1.5-1.2,2.8-1.7,4-1.7s1.2.2,1.7.5h0s0,0,0,0c1.1.8,1.7,1.9,1.8,3.2.1,1.3-.4,3.9-1.5,8.1-1.1,3.9-3,9.5-5.9,17.4-6.3,16.8-10.2,31.6-11.6,43.9-1.3,11.8,0,19,3.7,21.2.9.5,1.9.8,3.1.8s3.6-.5,5.9-1.5c4-1.8,8.3-4.8,13.1-9.1,4.5-4.1,8.7-8.1,12.3-11.9,4-4.2,7.3-7.9,10.4-11.4,16.5-19.2,28.9-37.1,36.9-53.2,9.6-19.4,11.2-33.3,4.7-41.3-1-1.3-.8-2.7.5-3.7.6-.5,1.1-.7,1.7-.7s1.4.4,2,1.1h.1c0,.1,0,.4,0,.4,7.9,10,6.5,25.3-4.1,46.7-8.2,16.3-20.9,34.6-37.7,54.4-20.6,24-35.6,35.7-45.8,35.7Z"/>
        <path d="M171.4,8.8c.4,0,.8.3,1.2.8v.3c7.8,9.6,6.4,24.8-4,45.8-8.2,16.4-20.7,34.4-37.6,54.2-20.2,23.5-35.2,35.3-45,35.3s-3.5-.4-5.1-1.3c-2.9-1.8-4.7-5-5.7-9.8-1-4.8-1-10.5,0-17.2s2.4-13.7,4.4-20.9c2-7.3,4.4-14.7,7.3-22.4,4.6-12.6,7.1-20.3,7.1-23.2-1.4,1.1-4.8,4.5-10.1,10.4-14.9,16.6-28.3,30.8-40.2,42.8-4.2,4.1-8,7.8-11.4,11-3.4,3.2-6.4,5.8-8.9,8-2.6,2.2-4.9,4-6.9,5.5-2.1,1.4-3.8,2.6-5.1,3.3-1.4.8-2.6,1.3-3.6,1.6-1.1.3-1.9.3-2.5.3-.6,0-1.2-.3-1.6-.7-.7-.4-1.2-1-1.5-1.8-.2-.8-.3-2.1,0-3.8.2-1.7.8-3.9,1.8-6.5,1-2.6,2.5-6.1,4.6-10.4,2.1-4.3,4.7-9.3,7.8-14.9,5.6-10.1,13.2-21.1,22.8-32.9,9.6-11.8,19.4-22.1,29.5-30.8,10.1-8.8,18-13.7,23.9-14.7.8-.2,1.6-.2,2.3-.2,2.2,0,4,.7,5.4,1.9.8.7.9,1.5.2,2.3-.4.4-.8.6-1.2.6s-.8-.2-1.1-.5c-.8-.7-1.9-1.1-3.4-1.1s-1.1,0-1.6.2c-5.5,1-13.2,5.8-23,14.4-9.8,8.6-19.4,18.7-28.8,30.3-9.4,11.6-16.8,22.3-22.1,32-11.4,20.6-15.9,31.6-13.7,33.2.1.1.3.2.6.2.4,0,1-.1,1.7-.4,1.1-.4,4.7-3,10.6-7.7,5.9-4.7,13.5-11.7,22.6-20.9,11.9-11.9,25.2-26.1,40.1-42.7,4.8-5.3,8.1-8.7,10-10.2,1.3-1,2.4-1.5,3.4-1.5s.9.1,1.2.3c.8.6,1.3,1.4,1.4,2.5,0,1.1-.4,3.7-1.5,7.7-1.1,4-3.1,9.8-5.9,17.3-6.4,17-10.3,31.8-11.7,44.1-1.4,12.3,0,19.7,4.2,22.2,1,.6,2.2.9,3.6.9s3.9-.5,6.3-1.6c4.2-1.9,8.6-5,13.4-9.3,4.8-4.3,8.9-8.3,12.4-12,3.5-3.7,7-7.5,10.4-11.4,16.7-19.5,29-37.3,37-53.4,9.8-19.8,11.4-33.9,4.6-42.4-.6-.8-.6-1.6.3-2.3.4-.3.7-.5,1.1-.5M171.4,6.8c-.8,0-1.6.3-2.3.9-1.7,1.3-2,3.4-.7,5.1h0s0,0,0,0c6.2,7.7,4.6,21.3-4.8,40.3-7.9,16-20.3,33.8-36.7,53-3,3.4-6.4,7.2-10.3,11.3-3.6,3.8-7.8,7.8-12.3,11.9-4.8,4.3-9,7.2-12.9,9-2.1,1-3.9,1.4-5.5,1.4s-1.9-.2-2.6-.6c-2.4-1.4-4.8-6.1-3.2-20.2,1.4-12.2,5.3-26.9,11.6-43.6,2.9-7.9,4.9-13.6,6-17.5,1.6-5.7,1.6-7.5,1.6-8.4-.1-1.6-.9-2.9-2.2-3.9h0c0,0,0-.1,0-.1-.7-.4-1.4-.6-2.2-.6-1.4,0-2.9.6-4.6,2-1.9,1.5-5.1,4.7-10.2,10.4-15.3,17.1-28.4,31-40,42.6-8.9,9-16.5,16-22.4,20.7-8,6.4-9.7,7.3-10,7.4,0,0-.1,0-.2,0,.2-2.2,2.2-9,14-30.2,5.2-9.5,12.6-20.2,21.9-31.7,9.3-11.5,18.9-21.6,28.6-30.1,9.5-8.3,16.9-13,22-13.9.4,0,.9-.1,1.3-.1.9,0,1.6.2,2.1.6.9.8,1.8,1,2.4,1s1.7-.2,2.7-1.3c1.4-1.6,1.3-3.7-.4-5.1-1.8-1.6-4.1-2.4-6.7-2.4-.9,0-1.8,0-2.7.3-6.2,1.1-14.3,6-24.8,15.2-9.9,8.6-19.9,19-29.7,31-9.6,11.8-17.3,22.9-23,33.2-3,5.4-5.6,10.4-7.8,15-2.4,4.8-3.8,8.4-4.7,10.6-1,2.7-1.7,5-1.9,6.9-.3,1.7-.3,3.3,0,4.6h0c0,.1,0,.2,0,.2.4,1.2,1.2,2.1,2.2,2.7.6.5,1.5.9,2.5,1.1h.2s.2,0,.2,0c.7,0,1.7,0,3-.4h0s0,0,0,0c1.3-.4,2.6-1,4-1.8,1.1-.6,2.4-1.4,3.8-2.4.4-.3.9-.6,1.4-.9h0s0,0,0,0c2.4-1.8,4.7-3.6,7-5.6l1.1-.9c2.3-2,4.9-4.3,7.9-7.1,3.4-3.2,7.2-6.9,11.4-11,12.5-12.6,26.1-27,40.3-42.9,2.1-2.3,3.8-4.2,5.3-5.7-1.4,4.6-3.6,10.9-5.7,16.5-2.9,7.7-5.3,15-7.4,22.6-1.9,6.8-3.3,13.7-4.4,21.1-1,7-1,12.8,0,17.9,1.1,5.4,3.3,9,6.6,11.1h0s0,0,0,0c1.8,1,3.9,1.6,6.1,1.6,10.5,0,25.7-11.8,46.5-36,16.9-19.8,29.7-38.2,37.9-54.6,10.8-21.8,12.1-37.3,4.1-47.7v-.3c0,0-.3-.3-.3-.3-1-1.3-2.1-1.5-2.8-1.5h0Z"/>
      </g>
      <g>
        <path d="M174.7,113.9c-4,0-7-1.4-8.9-4-2.2-3.3-2.3-7.6-.4-12.7,1.7-4.9,5.1-10.1,10.1-15.4,0,0,0,0,0-.1.3-.9,1-1.5,1.9-1.7.8-.8,1.7-1.6,2.6-2.5,3.3-2.8,6.3-5,9-6.7,2.6-1.6,4.9-2.6,6.9-2.9h.8c1-.2,1.8-.3,2.5-.3s.8,0,1.1.1c1.1.2,2,.6,2.6,1,2.5,1.9,3,4.6,1.5,8-1.5,3.3-4.6,5.9-9.1,7.7-2.8,1.1-5.9,1.6-9.3,1.6s-4.2-.2-6.5-.6c-4.2,4.4-7.1,8.7-8.7,12.8-1.6,3.9-1.7,6.9-.4,8.7.6.9,1.5,1.4,2.9,1.7.4,0,.9.1,1.4.1,1.4,0,3.1-.3,5-.8,3-.8,6.4-2.3,9.8-4.2,1.6-.8,4.1-2.3,7.5-4.3l.8-.5c12.6-7.7,24.7-14.1,35.8-18.8l.3-.2c.4-.2.9-.4,1.3-.4,1,0,1.8.6,2.2,1.7.6,1.5,0,2.9-1.5,3.5-11,4.6-22.9,10.9-35.5,18.6-3.7,2.2-6.7,3.9-8.6,4.9-6.2,3.5-12.7,5.6-17.1,5.6ZM184.3,80.9c.5,0,1,0,1.5,0,3.2,0,5.9-.5,8-1.5,3.1-1.4,4.9-3,5.7-4.8.4-.8.5-1.4.2-1.6-.2-.1-.4-.2-.7-.2h-.2c0,0-.1,0-.2,0-.4,0-.9.1-1.5.2h-.4c-.9.3-2,.8-3.2,1.3-1.3.6-2.7,1.5-4.4,2.7-1.6,1.1-3.2,2.4-4.9,3.9Z"/>
        <path d="M199.2,68.5c.3,0,.6,0,.9,0,.9.2,1.7.5,2.3.9,2.1,1.6,2.4,3.8,1.1,6.8-1.4,3.1-4.3,5.5-8.6,7.2-2.7,1-5.6,1.5-8.9,1.5s-4.4-.2-6.9-.6c-4.5,4.7-7.6,9.2-9.3,13.5-1.7,4.3-1.8,7.5-.3,9.6.7,1.1,1.9,1.8,3.5,2.1.5,0,1,.1,1.6.1,1.4,0,3.2-.3,5.3-.8,2.9-.8,6.3-2.2,10-4.3,1.7-.9,4.4-2.5,8.3-4.8,13.1-8,25.2-14.3,36.2-19h0c.3-.2.6-.2.8-.2.5,0,1,.4,1.3,1,.4,1,.1,1.8-.9,2.2-10.9,4.6-22.8,10.8-35.7,18.7-4,2.4-6.8,4-8.5,4.9-6.6,3.7-12.9,5.5-16.6,5.5s-6.4-1.2-8.1-3.6c-2-3-2.1-6.9-.3-11.8,1.7-4.9,5.1-10,10-15.2,0,0,.1,0,.1,0,.2-.8.7-1.3,1.5-1.3.9-.9,1.8-1.8,2.8-2.7,3.3-2.8,6.3-5,8.9-6.6s4.8-2.5,6.5-2.8c1.3-.1,2.3-.3,3.1-.3M185.9,81.9c3.3,0,6.1-.5,8.4-1.6,3.2-1.5,5.3-3.2,6.2-5.3.6-1.3.6-2.3-.1-2.8-.3-.2-.7-.4-1.3-.4-.1,0-.2,0-.4,0-.5,0-1.2.2-2,.3-1,.2-2.1.7-3.4,1.3s-2.8,1.5-4.6,2.8c-1.8,1.3-3.7,2.8-5.7,4.5h0c0,0-.9,1-.9,1,1.3.1,2.6.2,3.8.2M199.2,66.5h0c-.8,0-1.6,0-2.6.2h-.7c0,0,0,0,0,0h0c-2.1.4-4.5,1.4-7.2,3.1-2.8,1.7-5.9,4-9.1,6.8h0s0,0,0,0c-.9.8-1.7,1.6-2.4,2.3-1,.3-1.9,1-2.3,2.1-5,5.4-8.5,10.7-10.2,15.7-2,5.5-1.8,10,.5,13.6h0s0,0,0,0c2.1,2.9,5.4,4.4,9.7,4.4s11.2-2.2,17.6-5.8c1.8-1,4.8-2.7,8.6-4.9,12.6-7.7,24.5-14,35.4-18.6,1.2-.5,1.8-1.3,2.1-2,.2-.6.4-1.6,0-2.8-.6-1.4-1.7-2.3-3.1-2.3-.6,0-1.2.2-1.8.5h-.2c-11.2,5-23.3,11.3-35.9,19l-.7.4c-3.4,2-5.9,3.5-7.5,4.3h0s0,0,0,0c-3.3,1.9-6.6,3.3-9.5,4.1-1.8.5-3.5.8-4.8.8s-.9,0-1.2,0c-1.1-.2-1.8-.6-2.2-1.2h0s0,0,0,0c-1.3-1.9-.4-5.2.5-7.7,1.5-3.8,4.3-7.9,8.2-12.1,2.2.3,4.2.5,6.1.5,3.5,0,6.8-.6,9.7-1.7,4.8-1.9,8.1-4.7,9.7-8.2,2.1-4.9.2-7.7-1.7-9.2h0s0,0,0,0c-.8-.5-1.8-.9-3-1.2-.4,0-.8-.1-1.3-.1h0ZM187.1,79.9c.9-.7,1.8-1.4,2.7-2.1,1.6-1.2,3-2,4.3-2.6,1.1-.5,2.2-1,3-1.2h.4c.5-.2,1-.3,1.2-.3h0c0,.1,0,.2-.2.4h0s0,0,0,0c-.7,1.5-2.4,2.9-5.2,4.3-1.7.8-3.8,1.3-6.3,1.4h0Z"/>
      </g>
      <g>
        <path d="M236.2,44.2c-.8,0-1.6-.4-2.1-1.1-.6-.7-.7-1.4-.6-1.8,0-.7.4-1.3,1.1-1.8,6-4.4,9.1-8.4,9.4-11.9.3-2.3-.7-4.4-3-6.7-.6-.6-.9-1.3-.9-2,0-.5.2-1.1.9-1.8.6-.5,1.2-.8,1.8-.8s1.1.1,1.8.8c3.4,3.4,5,7,4.8,10.8v.9h-.3c-.7,4.9-4.4,9.8-11.4,14.9h0c-.4.4-.8.5-1.5.5Z"/>
        <path d="M242.9,17.3c.4,0,.8.2,1.1.5,3.2,3.2,4.7,6.5,4.5,10h-.2c-.3,4.9-4,9.9-11.1,15.1-.3.2-.4.3-1,.3s-1-.3-1.3-.7c-.7-.8-.6-1.6.3-2.3,6.2-4.6,9.5-8.8,9.8-12.6.3-2.6-.8-5-3.3-7.5s-.8-1.6,0-2.3c.4-.4.8-.5,1.2-.5M242.9,15.3c-.6,0-1.5.2-2.5,1-1,.9-1.3,1.9-1.3,2.5,0,.7.2,1.7,1.2,2.7,2.7,2.7,2.9,4.7,2.7,5.9h0s0,0,0,0c-.2,3.1-3.4,7-9,11.2-1.2.9-1.5,1.9-1.6,2.6,0,.6,0,1.6.9,2.6.9,1.2,2.1,1.4,2.9,1.4s1.5-.2,2.1-.6h0s0,0,0,0h0c6.8-5,10.6-9.8,11.7-14.7h.3v-1.9c.3-4-1.4-7.9-5-11.5-.9-.9-1.9-1.1-2.5-1.1h0Z"/>
      </g>
      <g>
        <path d="M242.9,131.8c-.9,0-1.8-.3-2.5-.9h0c0,0,0-.1,0-.1-.6-.7-1.1-1.5-1.1-2.7s.3-2.3,1-4.1c.7-1.8,1.6-3.7,2.3-5.2.5-.9,1.1-2,1.8-3.3.7-1.3,1.4-2.7,2.3-4.3,6.2-11.3,7.1-14.3,7.1-15.1,0-1.8-.9-4.1-2.4-6.7-1.6-2.7-2.4-4.9-2.6-6.9-.6-6,.3-10.8,3-14.6,2.7-3.8,6-6.1,10.1-7.1,1.1-.2,2.1-.3,3-.3s2.4.2,3.5.6c2.1.9,3.4,2.1,4,3.7.4.7.5,1.5.4,2.4,0,.7-.2,1.3-.4,2v.4c-.3.9-.9,1.8-2,3.2-.9,1.1-2.1,2.3-3.4,3.4-1.3,1.1-3.1,2.3-5.4,3.8-2,1.3-4.3,2.5-7,3.9.4.9,1,2.1,1.6,3.1,2,3.5,2.9,6.5,2.9,9.2s-.6,3.8-1.8,6.4c-1.3,2.9-3.3,6.7-5.9,11.4-3.6,6.5-5.3,10-6,11.9,1.1-.6,2.7-1.6,5-3.3,2.4-1.8,6.7-5.3,11.9-9.6,4.6-3.7,8.2-6.6,10.9-8.8,2.7-2.1,6.3-4.9,10.9-8.3,5.1-3.6,9.3-6.4,13.2-8.8,3.9-2.3,7.9-4.3,11.7-5.9.4-.6.9-.9,1.6-1.1.8-.8,1.7-1.7,2.6-2.5,3.3-2.8,6.3-5,9-6.7,2.6-1.6,4.9-2.6,6.9-2.9h.8c1-.2,1.8-.3,2.5-.3s.8,0,1.1.1c1.1.2,2,.6,2.6,1,2.5,1.9,3,4.6,1.5,8-1.5,3.3-4.6,5.9-9.1,7.7-2.8,1.1-5.9,1.6-9.3,1.6s-4.2-.2-6.5-.6c-4.2,4.4-7.1,8.7-8.7,12.8-1.6,3.9-1.7,6.9-.4,8.7.6.9,1.5,1.4,2.9,1.7.4,0,.9.1,1.4.1,1.4,0,3.1-.3,5.1-.8,3-.8,6.4-2.3,9.8-4.2,1.6-.8,4.1-2.3,7.6-4.4l.7-.4c12.8-7.8,25-14.2,36.3-19,.4-.2.8-.3,1.3-.3s1,.2,1.4.5l.3-.3.6,1.4c.4.9.2,1.6,0,2.1-.2.4-.6,1.1-1.5,1.4-11,4.6-22.9,10.9-35.5,18.6-3.7,2.2-6.7,3.9-8.6,4.9-6.2,3.5-12.7,5.6-17.1,5.6s-7-1.4-8.9-4c-2.2-3.3-2.3-7.6-.4-12.7.7-2.1,1.8-4.4,3.3-6.8,0,0-.1,0-.2.1-3.6,2.1-6.6,3.9-9.3,5.7-2.7,1.8-6,4.1-9.7,7.1-3.9,3-6.8,5.3-8.7,6.8-1,.8-2.2,1.8-3.6,2.9-1.4,1.1-3,2.4-4.8,3.9-1,.8-1.9,1.5-2.6,2.2-.8.6-1.4,1.2-1.9,1.6-1.2,1.1-2.4,2.1-3.8,3.1-1.7,1.3-2.8,2.2-3.7,2.8-4.9,3.7-8.2,5.4-10.3,5.4ZM317,80.9c.5,0,1,0,1.5,0,3.2,0,5.9-.5,8-1.5,3.1-1.4,4.9-3,5.7-4.8.4-.8.5-1.4.2-1.6-.2-.1-.4-.2-.7-.2h-.2c0,0-.1,0-.2,0-.4,0-.9.1-1.5.2h-.4c-.9.3-2,.8-3.2,1.3-1.3.6-2.7,1.5-4.4,2.7-1.6,1.1-3.2,2.4-4.9,3.9ZM256.5,70.5c-1.6,2-2.5,4.6-2.7,7.8,3.7-1.9,6.3-3.6,8.3-5.2,3.1-2.5,4.2-3.9,4.6-4.5.5-.8.7-1.5.6-1.9,0-.4-.8-.8-2.3-.8s-1.4.1-2,.2c-2.4.5-4.4,1.8-6.3,4l-.2.4Z"/>
        <path d="M264.7,61.4c1.2,0,2.2.2,3.2.5,1.7.7,2.9,1.7,3.4,3.2.3.5.4,1.1.3,1.8-.1.8-.3,1.5-.5,2.3s-.8,1.7-1.7,2.8-2,2.2-3.3,3.3c-1.3,1.1-3.1,2.3-5.3,3.7-2.2,1.4-4.8,2.8-7.7,4.2.2.9.9,2.3,1.9,4.1,1.8,3.2,2.8,6.1,2.8,8.7s-.5,3.4-1.7,6c-1.2,2.6-3.1,6.3-5.9,11.3-4.3,7.8-6.6,12.6-6.8,14.2,1.4-.4,3.8-1.8,7.2-4.3,2.1-1.6,6.1-4.8,11.9-9.6,4.6-3.7,8.2-6.6,10.9-8.8,2.7-2.1,6.3-4.9,10.9-8.3,4.6-3.3,8.9-6.2,13.1-8.7,4.1-2.4,8.1-4.4,11.9-6,.2-.5.7-.9,1.3-.9.9-.9,1.8-1.8,2.8-2.7,3.3-2.8,6.3-5,8.9-6.6,2.6-1.6,4.8-2.5,6.5-2.8,1.3-.1,2.3-.3,3.1-.3.3,0,.6,0,.9,0,.9.2,1.7.5,2.3.9,2.1,1.6,2.4,3.8,1.1,6.8-1.4,3.1-4.3,5.5-8.6,7.2-2.7,1-5.6,1.5-8.9,1.5s-4.4-.2-6.9-.6c-4.5,4.7-7.6,9.2-9.3,13.5-1.7,4.3-1.8,7.5-.3,9.6.7,1.1,1.9,1.8,3.5,2.1.5,0,1,.1,1.6.1,1.4,0,3.2-.3,5.3-.8,2.9-.8,6.3-2.2,10-4.3,1.7-.9,4.4-2.5,8.3-4.8,13.1-8,25.2-14.3,36.2-19,.3-.2.6-.2.8-.2.5,0,1,.4,1.3,1h.1c.4.9.1,1.7-.9,2.1-10.9,4.6-22.8,10.8-35.7,18.7-4,2.4-6.8,4-8.5,4.9-6.6,3.7-12.9,5.5-16.6,5.5s-6.4-1.2-8.1-3.6c-2-3-2.1-6.9-.3-11.8,1.1-3.3,3-6.5,5.5-9.9-1.3.6-2.5,1.3-3.8,2-3.5,2-6.6,3.9-9.4,5.8-2.8,1.8-6.1,4.2-9.8,7.1-3.8,2.9-6.7,5.2-8.7,6.8-2,1.6-4.8,3.9-8.4,6.8-2,1.7-3.6,2.9-4.6,3.8-1,.9-2.2,1.9-3.7,3-1.4,1.1-2.7,2.1-3.7,2.8-4.7,3.5-7.9,5.2-9.7,5.2s-1.4-.3-1.9-.7c-.5-.6-.9-1.2-.9-2.1s.3-2.1.9-3.7c.6-1.6,1.4-3.3,2.3-5.1,1-1.8,2.3-4.3,4.1-7.6,4.8-8.8,7.2-14,7.2-15.6-.1-2-.9-4.4-2.5-7.2-1.5-2.6-2.3-4.7-2.5-6.5-.6-5.7.3-10.3,2.8-13.9,2.5-3.6,5.6-5.8,9.5-6.7,1-.2,1.9-.3,2.8-.3M252.7,80c4.1-2.1,7.5-4.1,10-6.1s4.1-3.6,4.8-4.7c.7-1.1.9-2,.7-2.7-.2-1-1.4-1.5-3.3-1.5s-1.4,0-2.1.2c-2.8.6-5.1,2.1-7.1,4.6h0c-2,2.6-3,6-3,10.2M318.6,81.9c3.3,0,6.1-.5,8.4-1.6,3.2-1.5,5.3-3.2,6.2-5.3.6-1.3.6-2.3-.1-2.8-.3-.2-.7-.4-1.3-.4-.1,0-.2,0-.4,0-.5,0-1.2.2-2,.3-1,.2-2.1.7-3.4,1.3-1.3.6-2.8,1.5-4.6,2.8-1.8,1.3-3.7,2.8-5.7,4.5h0c0,.1-.9,1-.9,1,1.3.1,2.6.2,3.8.2M264.7,59.4s0,0,0,0c-1,0-2.1.1-3.2.4-4.4,1-7.9,3.5-10.7,7.5-2.8,4-3.8,9-3.1,15.3.2,2.1,1.1,4.4,2.8,7.3,1.4,2.4,2.1,4.5,2.2,6.2,0,.5-.7,3.1-7,14.6-.9,1.6-1.7,3.1-2.3,4.3-.7,1.3-1.3,2.4-1.8,3.3h0s0,0,0,0c-.7,1.5-1.7,3.4-2.4,5.3-.7,1.9-1,3.3-1,4.4s.7,2.6,1.4,3.4v.2c.1,0,.3.1.3.1.9.7,2.1,1.1,3.1,1.1,1.6,0,4.2-.6,10.9-5.6.9-.6,2-1.5,3.7-2.8,1.4-1,2.6-2,3.8-3.1.5-.4,1.1-1,1.9-1.6.8-.6,1.7-1.3,2.7-2.2,1.8-1.4,3.4-2.7,4.8-3.9,1.4-1.1,2.6-2.1,3.6-2.9,1.9-1.5,4.8-3.8,8.7-6.8,3.7-2.9,7-5.3,9.7-7,1.9-1.3,4-2.6,6.3-4-.6,1.3-1.2,2.5-1.6,3.8-2,5.5-1.8,10,.5,13.6h0s0,0,0,0c2.1,2.9,5.4,4.4,9.7,4.4s11.2-2.2,17.6-5.8c1.8-1,4.8-2.7,8.6-4.9,12.6-7.7,24.5-14,35.4-18.6,2-.8,2.8-2.8,2-4.8l-1.1-2.8-.9.9c-.4-.2-.8-.2-1.2-.2-.6,0-1.1.1-1.7.4-11.3,4.8-23.5,11.3-36.4,19.1l-.7.4c-3.4,2-5.9,3.5-7.5,4.3h0s0,0,0,0c-3.3,1.9-6.6,3.3-9.5,4.1-1.9.5-3.5.8-4.8.8s-.9,0-1.2,0c-1.1-.2-1.8-.6-2.2-1.2h0s0,0,0,0c-1.3-1.9-.4-5.2.5-7.7,1.5-3.8,4.3-7.9,8.2-12.1,2.2.3,4.2.5,6.1.5,3.5,0,6.8-.6,9.7-1.7,4.8-1.9,8.1-4.7,9.7-8.2,2.1-4.9.2-7.7-1.7-9.2h0s0,0,0,0c-.8-.5-1.8-.9-3-1.2-.4,0-.8-.1-1.3-.1-.8,0-1.6,0-2.6.2h-.7c0,0,0,0,0,0h0c-2.1.4-4.5,1.4-7.2,3.1-2.8,1.7-5.9,4-9.1,6.8h0s0,0,0,0c-.9.8-1.7,1.6-2.4,2.3-.7.2-1.3.6-1.7,1.2-3.8,1.6-7.7,3.6-11.5,5.9-4,2.4-8.2,5.2-13.3,8.8-4.6,3.4-8.3,6.3-11,8.3-2.6,2.2-6,4.9-10.9,8.8-5.2,4.3-9.5,7.8-11.9,9.6-.8.6-1.5,1.1-2.1,1.5,1-2,2.4-4.8,4.6-8.8,2.6-4.6,4.6-8.5,6-11.4,1.3-2.7,1.9-5,1.9-6.8,0-2.9-1-6-3.1-9.7-.2-.4-.7-1.3-1.1-2.1,2.4-1.2,4.5-2.4,6.3-3.5,2.3-1.5,4.1-2.7,5.5-3.9,1.4-1.2,2.6-2.4,3.6-3.6,1.2-1.5,1.8-2.5,2.1-3.6v-.4c.3-.7.4-1.4.5-2.1.1-1,0-2-.5-2.9-.7-1.9-2.2-3.3-4.5-4.2h0s0,0,0,0c-1.2-.4-2.5-.6-3.9-.6h0ZM263.1,67.2c.5,0,1.3-.2,1.7-.2.7,0,1.2,0,1.4.2,0,.2-.1.5-.4,1-.3.4-1.3,1.7-4.4,4.2-1.6,1.3-3.7,2.7-6.5,4.2.4-2.2,1.1-4,2.3-5.4l.4-.5h0c1.6-1.9,3.3-3,5.5-3.4h0ZM319.8,79.9c.9-.7,1.8-1.4,2.7-2.1,1.6-1.2,3-2,4.3-2.6,1.1-.5,2.2-1,3-1.2h.4c.5-.2,1-.3,1.2-.3h0c0,.1,0,.2-.2.4h0s0,0,0,0c-.7,1.5-2.4,2.9-5.2,4.3-1.7.8-3.8,1.3-6.3,1.4h0Z"/>
      </g>
      <g>
        <path d="M688.8,66.2h0c-.1-.1-.2-.1-.4-.2s-.3-.1-.7-.2h-.1s0,0,0,0c-.4-.2-.9-.4-1.2-.7-.4-.3-.7-.6-1.1-1.1-.6-.6-.6-1.4-.6-1.8,0-.9.3-1.7.9-2.3,1.1-1.2,2.9-1.8,5.7-1.8s1.3,0,2,.9c.3.4.7.9.7,1.8s0,1.4-.9,2c-.3.2-.5.4-.8.5,0,.2,0,.4,0,.5h0c0,0,0,.2,0,.2-.4,1.9-1.7,2.3-2.7,2.3h-.6Z"/>
        <path d="M691.1,59c.5,0,.9,0,1.2.5.3.4.5.7.5,1.2s0,.9-.5,1.2-.8.5-1.2.5h-.4c.4.3.4.8.4,1.3-.2,1-.7,1.5-1.7,1.5h-.2c-.1-.1-.2,0-.4-.1s-.5-.2-.9-.3c-.4-.2-.8-.4-1.1-.6-.3-.2-.6-.5-.9-.9h0c-.3-.3-.4-.8-.4-1.2,0-.6.2-1.2.6-1.6.9-1,2.5-1.5,5-1.5M691.1,57c-3,0-5.1.7-6.5,2.1-.7.8-1.1,1.8-1.1,3s.1,1.6.9,2.5c.4.5.9,1,1.3,1.3.4.3.9.5,1.3.7h.2c0,0,.2.2.2.2.4,0,.5.1.5.2,0,0,.2,0,.3.1l.2.2h1c1.9,0,3.3-1.1,3.7-3.1v-.2s0-.1,0-.1c.1,0,.3-.2.4-.3.9-.6,1.3-1.6,1.3-2.8s-.6-2-.9-2.4c-.6-.9-1.6-1.3-2.8-1.3h0Z"/>
      </g>
      <g>
        <path d="M364.6,198.5c-.8,0-1.6-.1-2.3-.2-2.1-.5-3.8-1.7-5-3.4-1.3-1.9-2-4-2.1-6.4-.3-5.5,1.9-12.6,6.5-21.2,4.7-8.7,11.9-17.6,22-27.4,13.2-12.8,29.8-24.9,49.1-35.7,4.7-9.2,7.1-14.6,8.3-17.9h0c-10.1,7.5-17.4,11.9-22.3,13.6-3.6,1.2-6.6,1.8-8.9,1.8s-5.3-1.1-6.3-3.2c-1.1-2.2-.5-4.9,1.6-8.1,1.9-2.8,4.8-5.6,9.1-8.6,2.6-1.7,4.9-3,7.2-3.9,2.5-1,4.9-1.8,7.2-2.2.7-.1,1.4-.2,2.1-.2,1.6,0,3.1.4,4.2,1.1,1.3.8,2.8,2.4,2.7,5.5,0,0,.2-.1.3-.2,2.3-1.8,3.8-2.8,4.4-3.2.7-.4,1.3-.5,1.9-.5.9,0,1.6.4,2.2,1h.1c.3.4.7.8.7,1.5v1.8c0,1-.3,2.2-.9,3.8-.7,2-1.6,4.1-2.5,6.3-.8,2-1.8,4.3-3.1,6.8,13.6-7.2,28.6-13.8,44.4-19.6h.1c.3-.1.6-.1.8-.2.7-.7,1.4-1.4,2.3-2.2,3.3-2.8,6.3-5,9-6.7,2.6-1.6,4.9-2.6,6.9-2.9,1.6-.2,2.6-.3,3.4-.3s.6,0,.9,0h.1c1.1.3,2,.6,2.6,1.1,2.5,1.9,3,4.6,1.5,8-1.5,3.3-4.6,5.9-9.1,7.7-2.8,1.1-5.9,1.6-9.3,1.6s-4.2-.2-6.5-.6c-4.2,4.4-7.1,8.7-8.7,12.8-1.6,3.9-1.7,6.9-.4,8.7.6.9,1.5,1.4,2.9,1.7.4,0,.9.1,1.4.1,1.4,0,3.1-.3,5.1-.8,3-.8,6.4-2.3,9.8-4.2,1.6-.8,4.1-2.3,7.5-4.3l.8-.5c12.4-7.5,24.4-13.8,35.7-18.7,5.2-10.7,12.2-22,21.4-34.6-4.3.1-7.7.1-12.5.1s-10.8-.1-14.7-.4h0c-.5,0-.9-.2-1.3-.5-.3-.2-.7-.5-.9-1-.3-.4-.3-.9-.3-1.3,0-.7.3-1.4.9-1.9.6-.5,1.4-.5,1.9-.5,3.9.2,8.4.4,13.6.4s10.9-.1,17.3-.4c6.8-9,14-17.5,21.2-25.2.7-.8,1.4-.9,1.9-.9s1.2.3,1.8.8c.8.7.9,1.4,1,1.8,0,.6-.2,1.3-.8,1.9-6.4,6.9-12.4,13.9-18.2,21.4,5.7-.3,13.4-.7,23.6-1.3l4.9-.3c6.8-.4,12.7-.7,17.4-.9,2.7-.1,5.1-.3,7.2-.4,4.6-5,9.3-10.2,14-15.4,4.3-6.1,8-11.2,10.6-14.5l1-1.3c2.1-2.6,3-3.8,3.7-4.2.7-.5,1.3-.8,2.1-.8h.2c1,.2,1.8.8,2.1,1.7.1.4.3.9.1,1.6-.1.5-.5,1.2-1.3,2.5-.8,1.2-1.9,2.9-3.4,5-3.7,5-7.3,9.4-10.9,13.4-2.8,3.9-5.5,7.9-8.2,11.8,8.9-.3,17-.5,24-.5s15.3.2,21.2.7h0c.5,0,1.2.3,1.7.7.7.6.7,1.4.7,2h0c0,0,0,.2,0,.2-.1.7-.4,1.3-.9,1.7h0c0,0,0,0,0,0-.7.5-1.3.5-1.8.5-5.9-.4-12.8-.7-20.5-.7s-17.7.2-28.1.7c-16.4,24.3-27.9,45-34.2,61.6-5.5,14.4-4.6,19.1-2.9,20.5.6.5,1.4.7,2.6.7,4.9,0,14.5-4.1,28.6-12.3,5.1-3,12.7-7.8,23.3-14.4l5.8-3.6c7.4-4.7,13.6-8.5,18.5-11.6,1.8-1.1,3.5-2.1,4.9-3,.5-.3,1-.4,1.4-.4.8,0,1.6.4,2.1,1.3.2.3.4.7.4,1.1.4.6.7,1.5-.3,2.8-3.1,4.5-5.3,8-7,11-1.9,3.2-3.3,5.7-4.1,7.4-.8,1.8-1.4,3.1-1.8,4.2-.3.9-.4,1.4-.4,1.7,1.1,0,3.7-1.1,7.6-3.3,3.1-1.7,8.5-5,17.5-10.9,12-8,19.3-12.3,22.9-13.6h.2c0,0,.4,0,.4,0,.1-.1.3-.2.4-.3.2-.2.4-.4.6-.6.6-.6,1.2-.9,1.9-.9s1.2.2,1.9.9c.7.7.8,1.4.8,1.8,0,.5-.2,1.2-1,1.9-3.1,2.9-6.6,6.9-10.4,11.9-2.3,3.2-4.1,5.8-5.3,7.9.2-.1.4-.3.5-.4l2.6-1.9c4.5-3.4,8.1-6.2,11.1-8.4l1.9-1.4c3.2-2.4,7.4-5.2,12.4-8.4,5.8-3.7,9.7-5.9,12.9-7.4,1.5-.6,2.7-.9,3.8-.9s2.2.4,3,1.1c.7.6,1.1,1.3,1.4,2.4.2.8.2,2-.2,3.7-.3,1.4-.7,2.8-1.1,4-.4,1.4-1.1,3.3-1.8,5.6-2.5,7-3.3,10.5-3.5,12.3,2-1,5.6-3.2,6.9-4,12.7-7.8,25.6-14.6,38.4-20.3.2-.1.4-.2.6-.2,1.4-.8,2.7-1.4,4.1-2,2.5-1.1,4.9-1.8,7.2-2.2.7-.1,1.4-.2,2.1-.2,1.6,0,3.1.4,4.2,1.1,1.3.8,2.8,2.4,2.7,5.5,0,0,.2-.1.3-.2,2.3-1.8,3.8-2.8,4.4-3.2.7-.4,1.3-.5,1.9-.5.9,0,1.6.4,2.2,1h.1c.3.4.7.8.7,1.5v1.8c0,1-.3,2.2-.9,3.8-.7,2-1.6,4.1-2.5,6.3-.8,2-1.8,4.3-3.1,6.8,13.6-7.2,28.6-13.8,44.4-19.6h.2c0,0,.3,0,.3,0,.3-.1.6-.2.9-.2.6,0,1.7.2,2.3,1.8.3.8.2,1.4,0,1.9-.2.7-.8,1.3-1.6,1.5-18,6.6-34.9,14.3-50.3,22.8-6.2,12.4-13.6,25.9-22.6,41.2-3.9,6.8-8.1,13.3-12.5,19.2-3.8,5.2-7.6,10-11.4,14.1-3.2,3.5-6.5,6.6-10,9.3-3.4,2.6-6.2,4.4-8.6,5.3-2.5,1.1-4.9,1.7-7,1.7s-1.6-.1-2.3-.2c-2.1-.5-3.8-1.7-5-3.4-1.3-1.9-2-4-2.1-6.4-.3-5.5,1.9-12.6,6.5-21.2,4.7-8.7,11.9-17.6,22-27.4,13.2-12.8,29.8-24.9,49.1-35.7,4.7-9.2,7.1-14.6,8.3-17.9h0c-10.1,7.5-17.4,11.9-22.3,13.6-3.7,1.2-6.6,1.8-8.9,1.8s-5.3-1.1-6.3-3.2c-.9-1.9-.7-4,.6-6.5-7.6,3.9-15.4,8.2-23.2,13-4,2.5-6.7,4-8.2,4.7-.9.4-1.7.6-2.6.6s-1.3-.2-2-.5c-1.9-1.1-2.2-3-2.2-4.6,0-2.6,1.2-7.4,3.9-14.8,1.9-5.6,2.6-8.2,2.8-9.4-.2,0-.5.2-.8.3-3.8,1.8-7.8,4.2-12.3,7.1-5.1,3.3-9,6-12.1,8.2-3.2,2.3-7.5,5.5-12.9,9.6l-2.5,1.9c-3.3,2.6-5.9,3.9-7.6,3.9s-1.9-.4-2.6-1.1h0c-.4-.6-.9-1.3-.9-2.1,0-.8.3-2,1.5-4.5,1.1-2.2,2.8-5.1,5.2-8.4.8-1.1,1.5-2.2,2.3-3.2-3.1,1.9-6.8,4.2-11.1,7-8.1,5.3-14.3,9.1-18.4,11.4-4.2,2.3-7.5,3.5-10,3.5s-2.7-.4-3.6-1.3h0c0,0,0-.1,0-.1-.5-.7-1.1-1.8-1.1-3.2-.1-1.1.2-2.8,1-5,.7-2.2,2.2-5.2,4.4-9,1-1.7,2.1-3.6,3.5-5.7-4.2,2.6-9.1,5.7-14.8,9.3-16.3,10.4-30,18.7-39.6,23.9-9.1,4.9-15.9,7.2-20.8,7.2s-4.5-.6-6.1-1.9c-4.5-3.6-4.1-12.3,1.4-26.5,5.3-14,14.1-30.8,26.3-49.9-19,20.1-35.2,35.6-48.3,46.3-13.8,11.2-23.7,16.7-30.2,16.7s-1.4,0-2.1-.2c-2.8-.6-4.8-2.4-5.7-5.4-1.5-4.6-.2-11.8,4-21.8-9.2,4.3-19.1,9.6-29.5,16-3.7,2.2-6.7,3.9-8.6,4.9-6.2,3.5-12.7,5.6-17.1,5.6s-7-1.4-8.9-4c-2.2-3.3-2.3-7.6-.4-12.7,1.1-3,2.7-6.1,5.1-9.2-15.3,5.9-29.5,12.5-42.3,19.6-6.2,12.4-13.6,25.9-22.6,41.2-3.9,6.8-8.1,13.3-12.5,19.2-3.8,5.2-7.6,10-11.4,14.1-3.2,3.5-6.7,6.7-10,9.3-3.4,2.6-6.2,4.4-8.6,5.3-2.5,1.1-4.9,1.7-7,1.7ZM807.5,112.5c-16.1,9.6-30,19.9-41.1,30.8-9.4,9.2-16.4,17.9-20.7,25.8-4.3,7.9-6.4,14.2-6.1,18.8.3,4.4,2.3,4.8,2.9,5,.4.1.9.1,1.3.1,1.6,0,3.5-.6,5.9-1.8,3-1.5,6.4-4,10.6-7.7,3.9-3.5,8.4-8.5,13.4-15.1,5-6.6,10-14.2,14.8-22.4l.7-1.1h.1c7.1-11.9,13.1-22.6,18.2-32.4ZM427.8,112.5c-16.1,9.6-30,19.9-41.1,30.8-9.4,9.2-16.4,17.9-20.7,25.8-4.3,7.9-6.4,14.2-6.1,18.8.3,4.4,2.3,4.8,2.9,5,.4.1.9.1,1.3.1,1.6,0,3.5-.6,5.9-1.8,3-1.5,6.4-4,10.6-7.7,4.1-3.7,8.7-8.9,13.4-15.1,5-6.6,10-14.2,14.8-22.4l.7-1.1h.1c7.1-11.9,13.1-22.6,18.2-32.4ZM569.3,45.2c-10.5,14.1-18.5,27-24,38.4-5.6,11.5-7.8,19.5-6.4,23.8.5,1.4,1.1,1.7,1.8,1.8.3,0,.7,0,1.1,0,.8,0,1.8-.1,2.8-.4,1.1-.3,3.5-1.2,8.8-4.3,4.6-2.7,9.7-6.2,15-10.5,5.3-4.2,12.5-10.7,22.6-20.3h0c0-.1.3-.4.3-.4,8.5-8.2,18.2-18.1,30.2-31-4.7.2-11,.6-19.2,1.1-17,1-26.6,1.5-32.9,1.7ZM787.5,96c.2,0,.4.2.6.2h1.9c.8-.1,1.5-.2,2.5-.5,1.1-.3,2.4-.7,3.7-1.1,3.7-1.2,9.2-4.4,16.3-9.5-.3-.1-.5-.3-.8-.6-.5-.7-.5-1.3-.5-1.8,0-.9,0-1.5-.3-1.7-.3-.2-.8-.3-1.5-.3-1.1,0-2.5.3-4.2.8-3.2,1-6.3,2.6-9.2,4.6-2,1.4-3.9,2.9-5.6,4.6-1.5,1.6-2.5,2.8-2.9,3.7-.3.9-.4,1.3-.4,1.5h.1ZM408.3,96c.2,0,.4.2.6.2h1.9c.8-.1,1.5-.2,2.5-.5,1.1-.3,2.4-.7,3.7-1.1,3.7-1.2,9.2-4.4,16.3-9.5-.3-.1-.5-.3-.8-.6-.5-.7-.5-1.3-.5-1.8,0-.9,0-1.5-.3-1.7-.3-.2-.8-.3-1.5-.3-1.1,0-2.5.3-4.2.8-3.2,1-6.3,2.6-9.2,4.6-2,1.4-3.9,2.9-5.6,4.6-1.5,1.6-2.5,2.8-2.9,3.7-.3.9-.4,1.3-.4,1.5h.1ZM492.1,80.9c.5,0,1,0,1.5,0,3.2,0,5.9-.5,8-1.5,3.1-1.4,4.9-3,5.7-4.8.4-.8.5-1.4.2-1.6-.2-.1-.4-.2-.7-.2h-.2c0,0-.2,0-.3,0-.4,0-1,0-1.6.3-1,.2-2.1.7-3.3,1.2-1.3.6-2.7,1.5-4.4,2.7-1.6,1.1-3.2,2.4-4.9,3.9Z"/>
        <path d="M658.5,2c.6.1,1.1.4,1.3,1,0,.3.2.6,0,1s-.5,1.1-1.2,2.2c-.7,1.1-1.8,2.7-3.4,4.9-3.4,4.6-7,9.1-10.9,13.4-3.2,4.5-6.3,9-9.4,13.5,9.7-.4,18.3-.6,26-.6,8.1,0,15.2.2,21.1.7.4,0,.8.2,1.1.5.4.3.4.7.4,1.2,0,.5-.3.9-.6,1.2-.4.3-.8.3-1.2.3-5.8-.4-12.6-.7-20.5-.7s-17.9.2-28.7.8c-16.7,24.7-28.2,45.4-34.6,62.2-4.6,12-5.5,19.2-2.6,21.6.7.6,1.8.9,3.2.9,5.2,0,14.8-4.2,29.1-12.4,6-3.5,15.6-9.6,29.1-18.1,10.2-6.5,18.1-11.3,23.4-14.6.3-.2.6-.3.9-.3.5,0,.9.3,1.3.9.2.3.3.6.3.9.5.5.4,1.1,0,1.8-2.8,4.1-5.2,7.8-7.1,11.1-1.9,3.3-3.3,5.8-4.1,7.5-.8,1.7-1.4,3.1-1.8,4.3-.4,1.2-.5,1.9-.5,2.2.1.3.2.6.2.6.2.1.4.2.8.2,1.4,0,4-1.2,8.1-3.4,3.4-1.8,9.3-5.5,17.6-10.9,11.6-7.7,19.1-12.2,22.7-13.5h.6c.4-.4.9-.8,1.3-1.2.4-.4.8-.6,1.2-.6s.8.2,1.1.6c.8.8.7,1.6,0,2.3-3.1,2.9-6.6,6.9-10.5,12.1-3.8,5.2-6.2,9-7.2,11.5,1-.6,2.2-1.4,3.8-2.6l2.6-1.9c5.5-4.2,9.8-7.4,13-9.8,3.2-2.4,7.3-5.2,12.3-8.4,5-3.2,9.2-5.7,12.8-7.3,1.3-.5,2.4-.8,3.4-.8s1.7.3,2.3.8c.6.5.9,1.1,1.1,1.9.2.7.1,1.8-.2,3.2-.3,1.4-.7,2.7-1.1,4-.4,1.3-1,3.1-1.8,5.5-2.4,6.7-3.6,11.2-3.6,13.4s0,.5,0,.7c.9-.2,3.6-1.7,8.4-4.6,13-8,25.8-14.7,38.3-20.2.2,0,.3,0,.5,0,1.4-.8,2.8-1.5,4.2-2.1,2.4-1,4.7-1.7,7-2.1.7-.1,1.3-.2,1.9-.2,1.5,0,2.7.3,3.7,1,1.8,1.1,2.5,3,2.1,5.6,0,.2-.1.4-.2.6-.1.2-.3.4-.4.5-.2.2-.3.3-.6.3h-.7c-.4,0-.8-.2-1.1-.6s-.3-.8-.3-1.2c0-1.3,0-2.1-.7-2.5-.5-.3-1.2-.5-2-.5s-2.6.3-4.5.9c-3.1,1-6.3,2.5-9.5,4.7-2.2,1.5-4.1,3.1-5.7,4.7-1.6,1.7-2.7,3-3.1,4.1s-.6,1.9-.4,2.4c0,0,.2.3.5.4.3,0,.7.3,1.2.3h1.9c.8,0,1.7-.2,2.8-.5,1.1-.3,2.4-.7,3.7-1.1,4.6-1.5,11.6-5.8,21.1-12.9,2.3-1.8,3.8-2.8,4.3-3.1.5-.3,1-.4,1.4-.4.6,0,1.1.2,1.5.7.3.3.6.5.6.8v1.8c0,.9-.3,2.1-.8,3.5-.5,1.4-1.3,3.5-2.5,6.2-1.1,2.7-2.6,5.9-4.5,9.6,14.4-7.8,30.1-14.8,47.1-21h.3c.3-.1.5-.2.7-.2.6,0,1.1.4,1.4,1.2.2.5.1.9,0,1.3s-.5.7-.9.8c-18.5,6.8-35.4,14.5-50.8,23-6.7,13.4-14.3,27.1-22.7,41.4-4.1,7.1-8.3,13.5-12.4,19.1-4.1,5.7-7.9,10.3-11.3,14-3.4,3.7-6.7,6.7-9.9,9.2-3.1,2.4-5.9,4.2-8.4,5.2-2.5,1.1-4.7,1.6-6.6,1.6s-1.5-.1-2.2-.2c-1.7-.4-3.2-1.4-4.3-3-1.1-1.6-1.8-3.5-1.9-5.9-.3-5.3,1.8-12.2,6.4-20.7,4.6-8.5,11.8-17.5,21.8-27.2,13.3-12.9,29.7-24.8,49.2-35.7,5.4-10.6,8.5-17.7,9.4-21.2-.6.4-1.4,1-2.5,1.8-9.9,7.3-17.2,11.8-22,13.5-3.5,1.2-6.4,1.7-8.6,1.7s-4.5-.9-5.4-2.6c-.9-1.9-.4-4.2,1.5-7.1.4-.6.8-1.1,1.2-1.6-8.7,4.3-17.6,9.2-26.7,14.7-3.9,2.4-6.6,4-8.1,4.6-.8.4-1.5.6-2.2.6s-1.1-.1-1.5-.4c-1.2-.7-1.6-1.9-1.6-3.7,0-2.6,1.3-7.4,3.8-14.5,2.2-6.4,3.2-10.1,2.8-11-.4,0-1.1.2-2.1.6-3.5,1.7-7.6,4-12.5,7.2-4.9,3.2-8.9,5.9-12.1,8.2s-7.5,5.5-12.9,9.6l-2.5,1.9c-3.2,2.5-5.6,3.7-7,3.7s-1.4-.3-1.9-.8c-.4-.5-.7-1-.7-1.5,0-.6.4-1.9,1.4-4s2.7-4.9,5.1-8.3c1.9-2.7,3.8-5.2,5.6-7.4-3.9,2.3-9.2,5.5-15.7,9.8-8.1,5.3-14.2,9.1-18.3,11.4-4.1,2.3-7.3,3.4-9.5,3.4s-2.2-.3-2.9-1c-.5-.7-.9-1.6-.9-2.6,0-1,.2-2.6.9-4.7.7-2.1,2.1-5,4.3-8.8,1.6-2.7,3.5-5.9,5.9-9.5-4.9,3.1-11.1,7-18.6,11.7-17.5,11.2-30.7,19.1-39.5,23.9-8.8,4.7-15.5,7.1-20.3,7.1s-4.1-.6-5.5-1.7c-4.1-3.3-3.5-11.8,1.7-25.4,6.1-16.2,16.9-36,32.4-59.3-22.4,24.2-41.1,42.4-56,54.5-13.5,10.9-23.3,16.5-29.6,16.5s-1.3,0-1.8-.2c-2.5-.5-4.2-2.1-5-4.7-1.6-4.8,0-12.6,5-23.5-9.8,4.4-20.5,10.1-32,17.1-4,2.4-6.8,4-8.5,4.9-6.6,3.7-12.9,5.5-16.6,5.5s-6.4-1.2-8.1-3.6c-2-3-2.1-6.9-.3-11.8,1.4-3.9,3.8-7.8,7.1-11.8-16.7,6.3-32,13.3-46,21.1-6.7,13.4-14.3,27.1-22.7,41.4-4.1,7.1-8.3,13.5-12.4,19.1-4.1,5.7-7.9,10.3-11.3,14-3.4,3.7-6.8,6.8-9.9,9.2-3.1,2.4-5.9,4.2-8.4,5.2-2.5,1.1-4.7,1.6-6.6,1.6s-1.5-.1-2.2-.2c-1.7-.4-3.2-1.4-4.3-3-1.1-1.6-1.8-3.5-1.9-5.9-.3-5.3,1.8-12.2,6.4-20.7,4.6-8.5,11.8-17.5,21.8-27.2,13.3-12.9,29.7-24.8,49.2-35.7,5.4-10.6,8.5-17.7,9.4-21.2-.6.4-1.4,1-2.5,1.8-9.9,7.3-17.2,11.8-22,13.5-3.5,1.2-6.4,1.7-8.6,1.7s-4.5-.9-5.4-2.6c-.9-1.9-.4-4.2,1.5-7.1s4.9-5.6,8.8-8.3c2.3-1.5,4.6-2.8,7-3.8s4.7-1.7,7-2.1c.7-.1,1.3-.2,1.9-.2,1.5,0,2.7.3,3.7,1,1.8,1.1,2.5,3,2.1,5.6,0,.2-.1.4-.2.6-.1.2-.3.4-.4.5-.2.2-.3.3-.6.3h-.7c-.4,0-.8-.2-1.1-.6-.3-.4-.3-.8-.3-1.2,0-1.3,0-2.1-.7-2.5-.5-.3-1.2-.5-2-.5s-2.6.3-4.5.9c-3.1,1-6.3,2.5-9.5,4.7-2.2,1.5-4.1,3.1-5.7,4.7-1.6,1.7-2.7,3-3.1,4.1s-.6,1.9-.4,2.4c.1,0,.2.3.5.4.3,0,.7.3,1.2.3h1.9c.8,0,1.7-.2,2.8-.5,1.1-.3,2.4-.7,3.7-1.1,4.6-1.5,11.6-5.8,21.1-12.9,2.3-1.8,3.8-2.8,4.3-3.1.5-.3,1-.4,1.4-.4.6,0,1.1.2,1.5.7.3.3.6.5.6.8v1.8c0,.9-.3,2.1-.8,3.5s-1.3,3.5-2.5,6.2c-1.1,2.7-2.6,5.9-4.5,9.6,14.4-7.8,30.1-14.8,47.1-21,.4-.1.7-.1,1-.1.8-.8,1.6-1.6,2.5-2.4,3.3-2.8,6.3-5,8.9-6.6,2.6-1.6,4.8-2.5,6.5-2.8,1.3-.1,2.4-.2,3.2-.2s.6,0,.8,0c.9.2,1.7.5,2.3.9,2.1,1.6,2.4,3.8,1.1,6.8-1.4,3.1-4.3,5.5-8.6,7.2-2.7,1-5.6,1.5-8.9,1.5s-4.4-.2-6.9-.6c-4.5,4.7-7.6,9.2-9.3,13.5-1.7,4.3-1.8,7.5-.3,9.6.7,1.1,1.9,1.8,3.5,2.1.5,0,1,.1,1.6.1,1.4,0,3.2-.3,5.3-.8,2.9-.8,6.3-2.2,10-4.3,1.7-.9,4.4-2.5,8.3-4.8,13-7.9,25-14.1,35.9-18.8,5.5-11.3,13.1-23.4,22.7-36.4-5.4.2-9,.2-14.5.2s-10.4,0-14.6-.4c-.3,0-.5-.1-.8-.3s-.5-.4-.6-.7c-.2-.2-.2-.4-.2-.8s.2-.8.6-1.1c.3-.3.8-.3,1.2-.3,3.9.2,8.4.4,13.6.4s11.2-.1,17.8-.4c6.8-9,13.9-17.5,21.4-25.5.4-.4.8-.6,1.2-.6.4,0,.8.2,1.1.5.8.7.8,1.5,0,2.3-6.9,7.4-13.4,15.1-19.6,23.2,6.6-.3,16.8-.9,30.7-1.7,11-.6,19.4-1,25-1.3,4.6-5,9.4-10.3,14.3-15.8,4.6-6.5,8.2-11.4,10.6-14.5,2.5-3.1,3.9-4.9,4.5-5.3.6-.5,1.1-.6,1.5-.6M541.7,110.3c.9,0,1.9-.1,3.1-.4,1.7-.4,4.8-1.9,9.1-4.4s9.4-6,15.1-10.6c5.7-4.5,13.4-11.5,23-20.7h0c9.6-9.3,20.2-20.3,31.9-32.9-4.9.2-12.1.6-21.7,1.2-15.2.9-26.3,1.5-33.4,1.7-10.5,14.1-18.7,27.1-24.4,39-5.8,11.9-7.9,20-6.5,24.5.5,1.5,1.3,2.3,2.6,2.5.4,0,.8.1,1.2.1M493.7,81.9c3.3,0,6.1-.5,8.4-1.6,3.2-1.5,5.3-3.2,6.2-5.3.6-1.3.6-2.3-.1-2.8-.3-.2-.7-.4-1.3-.4-.1,0-.3,0-.5,0-.5,0-1.2.1-1.9.3-1,.2-2.1.7-3.4,1.3-1.3.6-2.8,1.5-4.6,2.8-1.8,1.3-3.7,2.8-5.7,4.5h0c0,.1-.9,1-.9,1,1.3.1,2.6.2,3.8.2M810,109.9c-17.5,10.1-32.3,21-44.3,32.7-9.5,9.3-16.5,18-20.9,26-4.4,8-6.5,14.5-6.2,19.3.2,3.4,1.4,5.4,3.7,5.9.5.1,1,.2,1.5.2,1.8,0,3.9-.6,6.4-1.9,3.2-1.6,6.8-4.3,10.8-7.9,4-3.6,8.5-8.7,13.5-15.2,4.9-6.5,9.9-14,14.9-22.5h0c7.4-12.4,14.3-24.6,20.5-36.6M430.3,109.9c-17.5,10.1-32.3,21-44.3,32.7-9.5,9.3-16.5,18-20.9,26-4.4,8-6.5,14.5-6.2,19.3.2,3.4,1.4,5.4,3.7,5.9.5.1,1,.2,1.5.2,1.8,0,3.9-.6,6.4-1.9,3.2-1.6,6.8-4.3,10.8-7.9,4-3.6,8.6-8.7,13.5-15.2s9.9-14,14.9-22.5h.1c7.4-12.4,14.3-24.6,20.5-36.6M658.7,0h-.2c-1,0-1.9.3-2.7,1-.7.5-1.5,1.5-3.8,4.4l-1,1.3c-2.6,3.4-6.3,8.4-10.6,14.5-4.6,5.1-9.2,10.2-13.7,15.1-2,.1-4.2.2-6.8.3-4.8.2-10.6.5-17.4.9l-5.1.3c-8.9.5-15.9.9-21.2,1.2,5.4-6.8,10.9-13.3,16.8-19.6h0s0,0,0,0c1.4-1.6,1.3-3.7-.3-5.1-1-.8-1.9-1-2.5-1-.7,0-1.7.2-2.6,1.3-7.1,7.6-14.2,16-20.9,24.9-6.2.2-11.8.3-16.7.3s-9.7-.1-13.5-.4h0s0,0,0,0c-.5,0-1.6,0-2.5.8-.8.7-1.3,1.6-1.3,2.6s0,1.2.5,1.8c.4.8,1,1.2,1.2,1.3.5.3,1,.6,1.8.6,3.9.3,8.5.4,14.7.4s7,0,10.5,0c-8.5,11.8-15.1,22.6-20.1,32.7-11.2,4.9-23.2,11.2-35.5,18.6l-.7.4c-3.4,2-5.9,3.5-7.5,4.3h0s0,0,0,0c-3.3,1.9-6.6,3.3-9.5,4.1-1.9.5-3.5.8-4.8.8s-.9,0-1.2,0c-1.1-.2-1.8-.6-2.2-1.2h0s0,0,0,0c-1.3-1.9-.4-5.2.5-7.7,1.5-3.8,4.3-7.9,8.2-12.1,2.1.3,4.2.5,6.1.5,3.5,0,6.8-.6,9.7-1.7,4.8-1.9,8.1-4.7,9.7-8.2,2.1-4.9.2-7.7-1.7-9.2h0s0,0,0,0c-.8-.5-1.8-.9-3-1.2h-.1s-.1,0-.1,0c-.3,0-.6,0-1,0-.8,0-1.8,0-3.4.3h0s0,0,0,0c-2.1.4-4.5,1.4-7.2,3.1-2.8,1.7-5.9,4-9.1,6.8-.8.7-1.4,1.3-2.1,2-.2,0-.4,0-.6.1h-.1s0,0,0,0c-14.9,5.4-29,11.6-41.9,18.2.7-1.5,1.3-2.9,1.8-4.2,1-2.2,1.8-4.3,2.5-6.3.6-1.8.9-3.1.9-4.2v-1.8c0-1.1-.7-1.8-1.1-2.1,0,0,0,0-.1,0-.8-.8-1.8-1.3-2.9-1.3s-1.5.2-2.3.6h0s0,0,0,0c-.6.3-1.7,1.1-3.3,2.3-.5-2.4-2-3.8-3-4.4-1.3-.8-2.9-1.3-4.7-1.3-.7,0-1.5,0-2.3.2-2.4.4-4.8,1.1-7.4,2.2-2.3,1-4.7,2.3-7.3,4h0s0,0,0,0c-4.4,3-7.4,5.9-9.3,8.8-2.3,3.5-2.8,6.5-1.6,9.1.9,1.8,2.8,3.8,7.2,3.8s5.5-.6,9.2-1.9c4.5-1.6,11-5.5,19.7-11.7-1.6,3.7-3.9,8.6-6.8,14.3-19.3,10.9-35.8,22.9-49.1,35.7-10.2,9.9-17.4,18.9-22.2,27.7-4.7,8.7-7,16.1-6.6,21.8.1,2.6.8,4.9,2.2,6.9,1.4,2,3.3,3.3,5.5,3.8h0s0,0,0,0c.8.1,1.7.2,2.5.2,2.2,0,4.7-.6,7.4-1.8,2.5-1,5.4-2.8,8.9-5.5,3.4-2.6,6.9-5.9,10.1-9.4,3.8-4.1,7.7-8.9,11.5-14.2,4.3-5.9,8.5-12.4,12.5-19.3,8.9-15.2,16.3-28.6,22.5-41,11.8-6.6,24.9-12.7,38.9-18.2-1.4,2.3-2.6,4.6-3.4,6.8-2,5.5-1.8,10,.5,13.6h0s0,0,0,0c2.1,2.9,5.4,4.4,9.7,4.4s11.2-2.2,17.6-5.8c1.8-1,4.8-2.7,8.6-4.9,9.5-5.8,18.6-10.8,27.1-14.8-3.5,9-4.5,15.6-3,20.1,1,3.3,3.3,5.4,6.5,6,.7.1,1.4.2,2.2.2,6.7,0,16.8-5.5,30.8-16.9,11.6-9.4,25.6-22.6,41.7-39.4-9.6,15.8-16.7,29.9-21.3,41.9-5.6,14.7-6,23.7-1.1,27.7,1.8,1.4,4.1,2.1,6.8,2.1,5.1,0,12-2.4,21.2-7.3,9.6-5.2,23.3-13.5,39.6-24,4.1-2.6,7.8-4.9,11.1-7-.4.7-.9,1.4-1.2,2.1-2.2,3.9-3.7,6.9-4.5,9.2-.8,2.3-1.1,4.1-1,5.4,0,1.3.5,2.5,1.3,3.7h0c0,.1.1.3.1.3,1.1,1.1,2.5,1.6,4.3,1.6,2.6,0,6.2-1.2,10.5-3.7,4.1-2.3,10.3-6.2,18.4-11.5,2.4-1.6,4.7-3.1,6.8-4.4-2.1,3-3.7,5.6-4.7,7.7-1.3,2.7-1.7,4-1.6,5,0,1.1.7,2,1.1,2.6h0c0,0,0,.2,0,.2.9.9,2.1,1.4,3.3,1.4,2,0,4.7-1.3,8.2-4.1l2.5-1.9c5.4-4.1,9.7-7.3,12.9-9.6,3-2.2,7-4.8,12-8.1,4-2.6,7.7-4.8,11.1-6.5-.4,1.5-1.1,3.8-2.3,7.4-2.7,7.7-3.9,12.3-3.9,15.2s.3,4.1,2.6,5.4h0s0,0,0,0c.7.4,1.6.6,2.4.6s1.9-.2,3-.7c1.6-.7,4.3-2.2,8.4-4.7,7-4.2,14-8.2,20.8-11.7-.5,1.8-.3,3.4.4,4.9.9,1.8,2.8,3.8,7.2,3.8s5.5-.6,9.2-1.9c4.5-1.6,11-5.5,19.7-11.7-1.6,3.7-3.9,8.6-6.8,14.3-19.3,10.9-35.8,22.9-49.1,35.7-10.2,9.9-17.4,18.9-22.2,27.7-4.7,8.7-7,16.1-6.6,21.8.1,2.6.8,4.9,2.2,6.9,1.4,2,3.3,3.3,5.5,3.8h0s0,0,0,0c.8.1,1.7.2,2.5.2,2.2,0,4.7-.6,7.4-1.8,2.5-1,5.4-2.8,8.9-5.5,3.5-2.8,6.9-5.9,10.1-9.4,3.8-4.1,7.7-8.9,11.5-14.2,4.3-5.9,8.5-12.4,12.5-19.3,8.9-15.2,16.3-28.6,22.5-40.9,15.3-8.4,32.1-16,49.9-22.5,1.1-.3,2-1.2,2.2-2.2.1-.5.4-1.4,0-2.5-.6-1.5-1.8-2.4-3.2-2.4s-.7,0-1,.2h-.7c-14.9,5.6-29,11.7-41.9,18.4.7-1.5,1.3-2.9,1.8-4.2,1-2.2,1.8-4.3,2.5-6.3.6-1.8.9-3.1.9-4.2v-1.8c0-1.1-.7-1.8-1.1-2.1,0,0,0,0,0,0-.8-.8-1.8-1.3-2.9-1.3s-1.5.2-2.3.6h0s0,0,0,0c-.6.3-1.7,1.1-3.3,2.3-.5-2.4-2-3.8-3-4.4-1.3-.8-2.9-1.3-4.7-1.3-.7,0-1.5,0-2.3.2-2.4.4-4.8,1.1-7.4,2.2-1.4.6-2.7,1.2-4,2-.2,0-.5.1-.7.2-12.8,5.6-25.8,12.5-38.5,20.3-2.3,1.4-3.9,2.3-5.1,3,.4-2,1.3-5.1,3.1-10.1h0s0,0,0,0c.8-2.4,1.4-4.2,1.8-5.5.4-1.3.8-2.7,1.1-4.2.4-1.9.5-3.1.2-4.1-.2-.8-.6-1.9-1.7-2.9-1-.9-2.2-1.3-3.6-1.3s-2.6.3-4.2,1c-3.3,1.5-7.2,3.7-13.1,7.5-5,3.2-9.2,6.1-12.4,8.5l-1.9,1.4c-2.7,2-5.9,4.4-9.8,7.4.7-1,1.5-2.1,2.3-3.2,3.7-4.9,7.2-8.9,10.2-11.8,1-.9,1.3-1.9,1.3-2.6,0-.7-.2-1.6-1.1-2.6-.9-1-1.9-1.2-2.6-1.2s-1.6.2-2.6,1.2c-.2.2-.4.3-.6.5,0,0,0,0-.1,0h-.5c-3.7,1.5-11,5.8-23.1,13.8-9,5.8-14.3,9.2-17.4,10.8-2.9,1.6-4.7,2.4-5.8,2.8,0,0,0,0,0,0,.3-1,.9-2.3,1.7-4.1.8-1.7,2.2-4.1,4-7.4,1.7-3,4-6.5,7-11,1.2-1.6.8-2.9.4-3.7,0-.4-.3-.8-.5-1.2-1-1.5-2.2-1.8-3-1.8-.6,0-1.2.2-1.9.5h0s0,0,0,0c-1.4.9-3.1,1.9-4.9,3-4.9,3-11.1,6.8-18.5,11.6l-5.8,3.6c-10.6,6.7-18.2,11.5-23.3,14.4-13.9,8.1-23.3,12.2-28.1,12.2s-1.6-.2-2-.5c-.8-.6-2.7-3.9,3.2-19.3,6.3-16.4,17.6-36.9,33.8-61,10.2-.5,19.5-.7,27.6-.7s14.6.2,20.4.7h0s0,0,0,0c.5,0,1.5,0,2.4-.7h.1c0,0,.1-.2.1-.2.6-.6,1-1.3,1.1-2.2v-.2s0-.2,0-.2c0-.6,0-1.8-1.1-2.7-.7-.6-1.5-1-2.3-1-5.9-.5-13-.7-21.2-.7s-13.9.1-22.1.4c2.3-3.3,4.7-6.7,7.1-10.1,3.6-4,7.2-8.4,10.9-13.5,1.5-2.1,2.7-3.8,3.5-5,.9-1.5,1.3-2.2,1.5-2.8.2-1,0-1.7-.1-2.1-.4-1.3-1.5-2.1-2.9-2.3h-.2ZM569.8,46.2c6.4-.2,16-.7,32.5-1.7,6.9-.4,12.4-.8,16.8-1-11.2,12-20.4,21.3-28.5,29.1l-.6.6h0c-9.9,9.6-17,15.9-22.2,20.1-5.3,4.3-10.3,7.8-14.9,10.4-5.5,3.2-7.7,4-8.6,4.2-1,.2-1.9.3-2.6.3s-.6,0-.9,0h0s0,0,0,0c-.3,0-.7-.1-1-1.2-.8-2.7-.4-9,6.4-23,5.4-11.3,13.3-24,23.6-37.9h0ZM494.9,79.9c.9-.7,1.8-1.4,2.7-2.1,1.6-1.2,3-2,4.3-2.6,1.1-.5,2.2-1,3-1.2h0s0,0,0,0c.7-.2,1.1-.3,1.3-.3s.1,0,.2,0h0c0,.1,0,.2-.2.4h0s0,0,0,0c-.7,1.5-2.4,2.9-5.2,4.3-1.7.8-3.8,1.3-6.3,1.4h0ZM791.4,91.4c1.6-1.6,3.4-3.1,5.4-4.4,2.8-1.9,5.8-3.4,9-4.4,1.6-.5,2.9-.8,3.8-.8s.6,0,.8,0c0,.1,0,.4,0,.7h0v.2c0,.5,0,1.4.7,2.3-6.6,4.6-11.7,7.5-15.1,8.7-1.2.4-2.5.8-3.6,1.1-.9.2-1.6.3-2.4.4h0s-1.3,0-1.3,0c0-.1,0-.3.1-.4.3-.8,1.5-2.2,2.7-3.4h0ZM412.2,91.4c1.6-1.6,3.4-3.1,5.4-4.4,2.8-1.9,5.8-3.4,9-4.4,1.6-.5,2.9-.8,3.8-.8s.6,0,.8,0c0,.1,0,.4,0,.7h0v.2c0,.5,0,1.4.7,2.3-6.6,4.6-11.7,7.5-15.1,8.7-1.2.4-2.5.8-3.6,1.1-.9.2-1.6.3-2.4.4h0s-1.3,0-1.3,0c0-.1,0-.3.1-.4.3-.8,1.5-2.2,2.7-3.4h0ZM743.8,192c-.4,0-.7,0-1.1-.1-.6-.1-2-.4-2.2-4.1-.3-4.4,1.7-10.5,6-18.2,4.3-7.8,11.2-16.4,20.5-25.5,10.4-10.1,23.1-19.8,37.8-28.8-4.6,8.6-9.8,17.9-15.9,28.1h-.1c0-.1-1.3,2.1-1.3,2.1-4.8,8.2-9.8,15.7-14.8,22.3-5,6.5-9.4,11.5-13.2,14.9-4.1,3.7-7.5,6.1-10.4,7.6-2.2,1.1-4,1.7-5.5,1.7h0ZM364.1,192c-.4,0-.7,0-1.1-.1-.6-.1-2-.4-2.2-4.1-.3-4.4,1.7-10.5,6-18.2,4.3-7.8,11.2-16.4,20.5-25.5,10.4-10.1,23.1-19.8,37.8-28.8-4.6,8.6-9.8,17.9-15.9,28.1h-.1c0-.1-1.3,2.1-1.3,2.1-4.8,8.2-9.8,15.7-14.8,22.3-4.6,6.1-9.2,11.3-13.2,14.9-4.1,3.7-7.5,6.1-10.4,7.6-2.2,1.1-4,1.7-5.5,1.7h0Z"/>
      </g>
      <g>
        <path d="M1200.7,66.2h0c0,0,0,0,0,0h-.3c0-.1-.3-.2-.7-.3h-.1s0,0,0,0c-.4-.2-.9-.4-1.2-.7-.4-.3-.8-.6-1.1-1.1-.6-.6-.6-1.4-.6-1.8,0-.9.3-1.7.9-2.3,1.1-1.2,2.9-1.8,5.7-1.8s1.3,0,2,.9c.3.4.7.9.7,1.8s0,1.3-.9,2c-.3.2-.5.4-.8.5,0,.2,0,.4,0,.5h0c0,0,0,.2,0,.2-.4,1.9-1.7,2.3-2.7,2.3h-.6Z"/>
        <path d="M1203,59c.5,0,.9,0,1.2.5.3.4.5.7.5,1.2s-.1.9-.5,1.2-.8.5-1.2.5h-.4c.4.3.4.8.4,1.3-.2,1-.7,1.5-1.7,1.5h-.2c0-.1-.2-.1-.4-.1-.2-.1-.5-.2-.9-.3-.4-.2-.8-.4-1.1-.6s-.6-.5-.9-.9c-.3-.3-.4-.8-.4-1.2,0-.6.2-1.2.6-1.6.9-1,2.5-1.5,5-1.5M1203,57c-3,0-5.1.7-6.5,2.1-.7.8-1.1,1.8-1.1,3s.1,1.6.9,2.5c.4.5.9,1,1.3,1.3.4.3.9.5,1.3.7h.2c0,0,.2.2.2.2.4,0,.5.1.5.2l.3.2.2.2h1c1.9,0,3.3-1.1,3.7-3.1v-.2s0-.1,0-.1c.1,0,.3-.2.4-.3.9-.6,1.3-1.6,1.3-2.8s-.6-2-.9-2.4c-.6-.9-1.6-1.3-2.8-1.3h0Z"/>
      </g>
      <g>
        <path d="M1125.1,131.7c-.9,0-1.8-.3-2.5-.9h0c0,0,0-.1,0-.1-.6-.7-1.1-1.5-1.1-2.7s.3-2.3,1-4.1c.6-1.5,1.3-3.3,2.4-5.2.5-.9,1.1-2,1.8-3.3.7-1.3,1.4-2.7,2.3-4.3,6.2-11.3,7.1-14.3,7.1-15.1,0-1.8-.9-4.1-2.4-6.7-.4-.8-.8-1.5-1.1-2.1-1.9,1-4,2-6,3.2-3.6,2.1-6.7,4-9.3,5.8-2.7,1.8-6,4.1-9.7,7.1-3.9,3-6.8,5.3-8.7,6.8-1,.8-2.2,1.8-3.6,2.9-1.4,1.1-3,2.5-4.8,3.9-1,.8-1.9,1.5-2.6,2.2-.8.6-1.4,1.2-1.9,1.6-1.2,1.1-2.4,2.1-3.8,3.1-1.7,1.3-2.8,2.2-3.7,2.8-4.9,3.7-8.2,5.4-10.3,5.4s-1.8-.3-2.5-.9h0c0,0,0-.1,0-.1-.6-.7-1.1-1.5-1.1-2.7s.3-2.3,1-4.1c.6-1.5,1.3-3.3,2.4-5.2.5-.9,1.1-2,1.8-3.3.7-1.2,1.4-2.7,2.3-4.3,6.2-11.3,7.1-14.3,7.1-15.1,0-1.8-.9-4.1-2.4-6.7-.5-.9-1-1.8-1.4-2.8-8.6,3.6-20.4,9.7-36,18.8-4.5,2.5-8.6,4.8-11.4,6.2-2.4,1.3-4.4,1.9-5.8,1.9s-1.9-.4-2.6-1.1c-1.9-1.9-.6-5.1-.2-6.1,1-2.4,3.4-6.7,7-12.6-2.5,1.5-5.9,3.9-10.3,7.2l-.7.7c-7.5,5.6-13,8.2-16.6,8.2s-3.2-.6-4.3-1.8c-1.8-2.3-1.4-5.7,1.4-10.4,1.3-2.4,3.2-4.9,5.6-7.8-5.1,2.6-10.9,5.7-17,9.1-9.5,5.4-16.3,9-20.3,10.7-1.9.8-3.5,1.2-4.9,1.2s-2.8-.8-3.3-1.4c-1.6-1.7-.8-4.2-.1-5.9.9-2.2,2.9-5.5,6.2-10.8,2-3.1,3.2-5,3.9-6.3,2-3.5,2.8-5.5,3-6.6-.3.2-.8.4-1.3.8-5.1,3.2-12.9,9.5-23.9,19-6,5.2-9.8,8.3-11.8,9.7-1.3.9-2.6,1.4-3.6,1.4s-1.3-.2-1.9-.6h-.2c0-.1-.1-.3-.1-.3-.8-1.3-1.1-2.5-.7-3.9.4-1.4,1.2-3.4,2.4-5.6,5.4-10.5,6.8-14.7,7-16.4-.7.3-1.5.7-1.9,1-1.2.7-3.3,2.1-6.4,4.4-2.6,2-4.9,3.7-6.9,5.3-1.8,1.4-4.5,3.5-7.9,6.2l-2.6,2.1c-8.3,6.5-13.2,9.4-15.8,9.4s-2.1-.4-2.8-1.3c-1.9-2.4,0-7,6.2-14.9,4.9-6.4,10.2-11.8,15.6-16.2.6-.4,1.1-.6,1.7-.6s1.3.2,2,1.1c1,1.3.9,2.7-.5,3.7-4.3,3.6-9,8.4-13.8,14.3-2.1,2.6-3.7,4.9-4.9,6.7,2.2-1.4,5.1-3.6,8.9-6.5l2.7-2.1c9.6-7.7,16.8-13.1,20.9-15.7,2.7-1.7,4.8-2.5,6.6-2.5s2,.3,2.7.9h0c1,1,1.5,2.3,1.5,3.8.1,1.3-.4,3.5-1.8,7.1-.9,2.3-2.5,6.2-5.3,11.5,1.8-1.4,4.1-3.4,7.2-6.1,10.5-9.4,19-16.1,24.4-19.5,2.1-1.3,3.8-2,5.3-2s2.1.4,2.9,1.1c2.3,2.4,1.5,6.8-2.5,13.7-1.2,2.1-2.5,4.3-4,6.5-1.4,2.3-4.5,7.1-5.7,9.6.4-.1.8-.3,1.2-.4,3.6-1.6,9.7-4.8,19.9-10.5,13.9-7.8,23.7-12.7,30-14.9,2.1-1.7,4.2-2.9,6.2-3.6,1.7-.6,3.4-1,4.9-1s2.4.2,3.4.6c4,1.4,6.4,4.9,7.1,10.4,0,.8,0,1.5-.5,2,2.1,2.2-.3,6.2-1.2,7.6-3.7,6.1-5.7,9.7-6.8,11.8,2.1-1,5.7-2.9,11.9-6.5,15.8-9.1,28.3-15.6,37.3-19.4-.4-5.3.7-9.9,3.1-13.4,2.7-3.8,6-6.2,10.1-7.1,1.1-.2,2.1-.3,3-.3s2.4.2,3.5.6c2.1.9,3.4,2.1,4,3.7.4.7.5,1.5.4,2.4,0,.7-.2,1.3-.4,2v.4c-.3.9-.9,1.8-2,3.2-.9,1.1-2.1,2.3-3.4,3.4-1.4,1.2-3.2,2.4-5.4,3.8-1.5.9-3.1,1.8-4.9,2.8,0,.2-.1.4-.2.6-.1.6-.7,1.2-1.4,1.4.3.6.6,1.3,1.1,2.1,2,3.5,2.9,6.5,2.9,9.2s-.6,3.8-1.8,6.4c-1.3,2.9-3.3,6.7-5.9,11.4-3.6,6.5-5.3,10-6,11.9,1.1-.6,2.7-1.6,5-3.3,2.4-1.8,6.7-5.3,11.9-9.6,4.6-3.7,8.2-6.6,10.9-8.8l1.7-1.3c2.5-1.9,5.5-4.3,9.2-7,5.1-3.6,9.3-6.4,13.2-8.7,2.9-1.8,5.9-3.3,9-4.8-.5-5.8.4-10.4,3-14.1,2.7-3.8,6-6.1,10.1-7.1,1.1-.2,2.1-.3,3-.3s2.4.2,3.5.6c2.1.9,3.4,2.1,4,3.7.4.7.5,1.5.4,2.4,0,.7-.2,1.3-.4,2v.4c-.3.9-.9,1.8-2,3.2-.9,1.1-2.1,2.3-3.4,3.4-1.4,1.2-3.2,2.4-5.4,3.8-1.7,1-3.6,2.1-5.9,3.3,0,.7-.2,1.3-.6,1.8.3.5.6,1.1,1,1.8v.2c2.1,3.5,3,6.5,3,9.2s-.6,3.8-1.8,6.4c-1.3,2.9-3.3,6.7-5.9,11.4-3.6,6.5-5.3,10-6,11.9,1.1-.6,2.7-1.6,5-3.3,2.4-1.8,6.7-5.3,11.9-9.6,4.6-3.7,8.2-6.6,10.9-8.8l1.7-1.3c2.5-1.9,5.5-4.3,9.2-7,5.1-3.6,9.2-6.4,13.2-8.7,4-2.3,8-4.4,11.9-6,.4-.3.9-.5,1.4-.5s1,.2,1.6.6c.9.6,1.1,1.3,1.2,1.7,0,.5,0,1.2-.6,2-3,4.4-5.3,8-7,11-1.6,2.8-3.2,5.6-4.1,7.4-.8,1.8-1.4,3.1-1.8,4.2-.3.9-.4,1.4-.4,1.7,1.1,0,3.7-1.1,7.6-3.3,3.1-1.7,8.5-5,17.5-10.9,10.5-7,18-11.5,22-13.2.3-.9,1-1.4,1.9-1.6.8-.8,1.7-1.7,2.6-2.5,3.3-2.8,6.3-5,9-6.7,2.6-1.6,4.9-2.6,6.9-2.9h.8c1-.2,1.8-.3,2.5-.3s.8,0,1.1.1c1.1.2,2,.6,2.6,1,2.5,1.9,3,4.6,1.5,8-1.5,3.3-4.6,5.9-9.2,7.7-2.8,1.1-5.9,1.6-9.3,1.6s-4.2-.2-6.5-.6c-.1.1-.3.3-.5.4-4,4.2-6.7,8.2-8.3,12.3-1.6,3.9-1.7,6.9-.4,8.7.6.9,1.5,1.4,2.9,1.7.4,0,.9.1,1.4.1,1.4,0,3.2-.3,5-.8,3-.8,6.4-2.3,9.8-4.2,1.6-.8,4.1-2.3,7.6-4.4l.7-.4c12.2-7.4,23.8-13.5,34.3-18.1.8-.5,1.6-1,2.6-1.4,2.7-1.3,5.5-2.3,8.4-2.8,1.5-.3,2.9-.4,4.3-.4s3.1.2,4.6.5c2.6.5,4.8,1.5,6.7,3.1,6.9-6.8,16-16.5,27.1-28.9,8.9-9.9,14.5-15.8,17.6-18.7.8-.8,1.6-1.3,2.5-1.3s1.2.2,1.7.7h0c0,0,0,.2,0,.2.8,1,1,2.1.5,3.3-.3.9-1.4,2.6-3.6,5.7-1,1.5-3.9,5.9-9.4,13.7-12.6,18.2-21.3,31.1-26.6,39.5-7.1,11.2-11.3,18.7-12.5,22.4,1.3-.7,3.5-2.1,6.9-4.9,2.4-1.9,5-4,7.9-6.1,3-2.1,7.1-5,12.3-8.7,5-3.5,10.3-6.8,16.2-10.1,5.6-3.1,10.6-5.3,14.8-6.6.2,0,.5-.2.8-.2.5,0,.9.2,1.2.3.7.3,1,.8,1.2,1.3l1.5,3.1-2.1-1.3h0c-.3.6-1,1.2-1.7,1.3-6.1,1.9-13.9,5.8-23,11.7-8.8,5.6-17.7,12-26.5,18.9-5.8,4.6-9.6,6.8-12,6.8s-1.9-.4-2.6-1.1c-2.5-2.2-.9-8,5-18.2,5.2-8.9,15.1-24.1,28.9-44-10.3,11.5-18.5,20.1-25,26.4v.2c0,0-.2.2-.2.2-.3.3-.6.5-.9.8-.3.3-.7.6-1,.8-6.7,6.4-13,11.2-18.7,14.2-3.8,2-7.2,3-10.1,3s-2.6-.2-3.8-.7c-2.9-1.2-4.5-3.5-4.6-6.8,0-1.9.5-3.9,1.4-5.9-7.1,3.6-14.5,7.7-22,12.3-3.7,2.2-6.7,3.9-8.6,4.9-6.2,3.5-12.7,5.6-17.1,5.6s-7-1.4-8.9-4c-2.2-3.3-2.3-7.6-.4-12.7.7-1.8,1.5-3.6,2.5-5.2-3.4,2-7.1,4.5-11.3,7.2-8.1,5.3-14.3,9.1-18.4,11.4-4.2,2.3-7.5,3.5-10,3.5s-2.8-.4-3.6-1.3h0c0,0,0-.1,0-.1-.5-.7-1.1-1.8-1.1-3.2-.1-1.1.2-2.8,1-5,.7-2.2,2.2-5.2,4.4-9,1.1-1.8,2.3-3.9,3.6-5.9-.6.3-1.1.6-1.6.9-3.6,2.1-6.7,4-9.3,5.8-2.7,1.8-6,4.1-9.7,7.1-3.9,3-6.8,5.3-8.7,6.8-1,.8-2.2,1.8-3.6,2.9-1.4,1.1-3,2.5-4.8,3.9-1,.8-1.9,1.5-2.6,2.2-.8.6-1.4,1.2-1.9,1.6-1.2,1.1-2.4,2.1-3.8,3.1-1.7,1.3-2.8,2.2-3.7,2.8-4.9,3.7-8.2,5.4-10.3,5.4ZM1022.7,80.4c-2.9,0-6.4,1.9-10.3,5.6-4.1,3.9-7.2,7.3-9.4,10.4-2.4,3.2-3.7,5.3-4.2,6.6-.3.9-.4,1.4-.4,1.7.3,0,.7,0,1.3-.3.5-.1,1-.3,1.7-.6s.7-.3,1-.4c.9-.3,2.3-1.1,4-2.1,1.6-.9,3.5-2.2,5.5-3.7l.8-.6c8.8-6.6,13-9,15.2-9.8,0-.2,0-.4,0-.6-.4-3.3-1.5-5.3-3.6-6-.1,0-.2,0-.3-.1-.3,0-.8,0-1.4,0ZM1281.1,98.8c.3,0,.6.2,1,.2h.1c0,0,.2,0,.3,0,.7,0,1.8-.3,2.8-.5,1.5-.4,3.2-1.1,5.1-2,1.9-1,4.4-2.5,7.6-4.8,2.8-2,5.8-4.5,9.7-8.3-1.8-1.3-4.2-1.9-7.1-1.9s-7,.8-10.2,2.4c-.3.4-.7.6-1.1.8-.3.1-.6.2-.8.4-.3.1-.5.2-.8.3-2.3,1.4-4.1,3-5.5,4.9-1.8,2.4-2.6,4.5-2.5,6.4,0,1.4.6,1.9,1.2,2.1,0,0,.2,0,.2,0ZM1237.5,80.9c.5,0,1,0,1.5,0,3.2,0,5.9-.5,8-1.5,3.1-1.4,4.9-3,5.7-4.8.4-.8.5-1.4.2-1.6-.2-.1-.4-.2-.7-.2h-.2c0,0-.1,0-.2,0-.4,0-.9.1-1.5.2h-.4c-.9.3-2,.8-3.2,1.3-1.3.6-2.7,1.5-4.4,2.7-1.6,1.1-3.2,2.4-4.9,3.9ZM1139.1,70.5c-1.6,2-2.5,4.6-2.7,7.8,3.7-1.9,6.3-3.6,8.3-5.2,3.1-2.5,4.2-3.9,4.6-4.5.5-.8.7-1.5.6-1.9,0-.4-.8-.8-2.3-.8s-1.4.1-2,.2c-2.4.5-4.4,1.8-6.3,4l-.2.4ZM1081.8,70.5c-1.6,2-2.5,4.6-2.7,7.8,3.7-1.9,6.3-3.6,8.3-5.2,3.1-2.5,4.2-3.9,4.6-4.5.5-.8.7-1.5.6-1.9,0-.4-.8-.8-2.3-.8s-1.4.1-2,.2c-2.4.5-4.4,1.8-6.3,4l-.2.4Z"/>
        <path d="M1358.7,31.9c.4,0,.7.2,1.1.4.6.8.7,1.5.4,2.3s-1.5,2.6-3.5,5.5c-1.5,2.3-4.6,6.9-9.4,13.7-12.3,17.8-21.2,31-26.6,39.5-8.6,13.5-13,21.7-13,24.6,1.5-.4,4.5-2.3,8.9-5.8,2.3-1.9,4.9-4,7.9-6.1s7.1-5,12.3-8.7c5.2-3.7,10.6-7,16.1-10s10.4-5.2,14.6-6.5c.2,0,.4-.1.5-.1.3,0,.5,0,.8.2.4.2.6.5.8.9l-.5-.3c.2.4,0,.8,0,1.2s-.6.7-1,.8c-6.4,2-14.2,6-23.3,11.8s-18,12.2-26.6,19c-5.5,4.4-9.3,6.6-11.4,6.6s-1.4-.3-1.9-.8c-2-1.8-.3-7.5,5.2-17s16.8-26.7,34-51.4c2.1-3,3.4-4.9,3.9-5.7-1.4,1.5-3.5,4-6.6,7.4-12.1,13.6-21.7,23.8-29,30.8,0,0-.2.3-.2.3-.7.6-1.3,1.2-1.8,1.6-6.8,6.5-13,11.2-18.5,14.1-3.7,2-6.9,2.9-9.6,2.9s-2.4-.2-3.4-.6c-2.5-1-3.9-3-4-5.9,0-2.5.9-5.2,2.9-8.2-7.8,3.8-16.2,8.4-25,13.8-4,2.4-6.8,4-8.5,4.9-6.6,3.7-12.9,5.5-16.6,5.5s-6.4-1.2-8.1-3.6c-2-3-2.1-6.9-.3-11.8,1.1-2.8,2.6-5.7,4.7-8.6-3.8,2.2-8.8,5.3-15,9.4-8.1,5.3-14.2,9.1-18.3,11.4-4.1,2.3-7.3,3.4-9.5,3.4s-2.2-.3-2.9-1c-.5-.7-.9-1.6-.9-2.6,0-1,.2-2.6.9-4.7.7-2.1,2.1-5,4.3-8.8,1.5-2.6,3.4-5.6,5.6-9-1.6.8-3.3,1.7-5,2.7-3.5,2-6.6,3.9-9.4,5.8-2.8,1.8-6.1,4.2-9.8,7.1-3.8,2.9-6.7,5.2-8.7,6.8-2,1.6-4.8,3.9-8.4,6.8-2,1.7-3.6,2.9-4.6,3.8-1,.9-2.2,1.9-3.7,3-1.4,1.1-2.7,2.1-3.7,2.8-4.7,3.5-7.9,5.2-9.7,5.2s-1.4-.3-1.9-.7c-.5-.6-.9-1.2-.9-2.1s.3-2.1.9-3.7c.6-1.6,1.3-3.3,2.3-5.1,1-1.8,2.3-4.3,4.1-7.6,4.8-8.8,7.2-14,7.2-15.6,0-2-.9-4.4-2.5-7.2-.6-1.1-1.1-2.1-1.5-3-2.2,1.1-4.6,2.3-7,3.7-3.5,2-6.6,3.9-9.4,5.8-2.8,1.8-6.1,4.2-9.8,7.1-3.8,2.9-6.7,5.2-8.7,6.8-2,1.6-4.8,3.9-8.4,6.8-2,1.7-3.6,2.9-4.6,3.8-1,.9-2.2,1.9-3.7,3-1.4,1.1-2.7,2.1-3.7,2.8-4.7,3.5-7.9,5.2-9.7,5.2s-1.4-.3-1.9-.7c-.5-.6-.9-1.2-.9-2.1s.3-2.1.9-3.7c.6-1.6,1.3-3.3,2.3-5.1,1-1.8,2.3-4.3,4.1-7.6,4.8-8.8,7.2-14,7.2-15.6,0-2-.9-4.4-2.5-7.2-.7-1.3-1.3-2.5-1.7-3.6-8.9,3.6-21.2,10-37.1,19.2-5.2,2.9-9.1,5-11.4,6.2-2.3,1.2-4.1,1.8-5.3,1.8s-1.4-.3-1.9-.8c-1-1-1-2.6,0-5s3.5-6.9,7.7-13.7c.4-.7.7-1.3,1-1.8-2.5,1-7,4-13.5,8.9l-.8.7c-7.2,5.3-12.5,8-16,8s-2.7-.5-3.5-1.5c-1.5-1.9-1-5,1.5-9.3,1.9-3.4,4.9-7.2,9-11.5-5.6,2.7-12.9,6.5-21.8,11.5-9.5,5.4-16.3,9-20.2,10.7-1.8.8-3.3,1.1-4.5,1.1s-2-.3-2.5-1c-1-1.1-.9-2.7,0-4.9.9-2.2,3-5.7,6.1-10.7,1.9-2.9,3.2-5,3.9-6.4,2.4-4.2,3.5-7,3.2-8.4-.6,0-1.6.4-2.9,1.3-5.2,3.3-13.2,9.7-24,19.1-5.9,5.1-9.8,8.3-11.7,9.6-1.2.8-2.2,1.2-3.1,1.2s-1-.1-1.3-.4c-.6-.9-.9-1.9-.6-3.1.3-1.1,1-2.9,2.3-5.4,5.2-10.1,7.6-16.2,7.1-18.1,0,0-.1,0-.2,0-.7,0-1.7.5-3.2,1.3-1.6,1-3.8,2.5-6.5,4.5s-5,3.8-6.9,5.3c-1.8,1.4-4.5,3.5-7.9,6.2l-2.6,2.1c-7.8,6.1-12.8,9.2-15.2,9.2s-1.5-.3-2-.9c-1.5-1.9.6-6.4,6.2-13.6,5.1-6.6,10.3-11.9,15.4-16,.4-.3.7-.4,1.1-.4.4,0,.8.2,1.2.7.7.9.6,1.6-.3,2.3-4.5,3.7-9.2,8.6-14,14.5-3.5,4.4-5.7,7.7-6.6,9.9,2.3-1,6.3-3.8,12-8.3l2.7-2.1c10-8,17-13.2,20.8-15.6,2.5-1.6,4.5-2.4,6-2.4.8,0,1.5.2,2.1.7.7.7,1.2,1.7,1.2,3,0,1.3-.5,3.5-1.7,6.7-1.2,3.1-3.1,7.3-5.8,12.4-.6,1.2-1.1,2.2-1.5,3,1.6-1.1,5.2-4.1,10.8-8.9,10.8-9.6,19-16.1,24.3-19.4,1.9-1.2,3.5-1.9,4.8-1.9.9,0,1.6.3,2.2.9,1.9,2,1,6.1-2.7,12.5-.8,1.4-2.1,3.6-4,6.5-4.1,6.5-6.3,10.3-6.4,11.6.7-.1,1.8-.4,3.1-.9,3.9-1.7,10.6-5.3,20-10.6,13.7-7.7,23.7-12.7,30-14.9,2-1.6,4-2.8,6-3.5,1.6-.6,3.2-.9,4.6-.9,1.1,0,2.1.2,3.1.5,3.7,1.3,5.8,4.5,6.4,9.6,0,1.1-.3,1.7-1.3,1.8.4.2.7.4.9.6,1.3,1.1.9,3.3-1.1,6.6-4.7,7.8-7.3,12.5-7.9,14.2,1.8-.5,6.6-3,14.4-7.5,16.3-9.4,28.9-15.9,37.9-19.6-.5-5.5.5-10,2.9-13.5,2.5-3.6,5.6-5.8,9.5-6.7,1-.2,1.9-.3,2.8-.3,1.2,0,2.2.2,3.2.5,1.7.7,2.9,1.7,3.4,3.2.3.5.4,1.1.3,1.8,0,.8-.3,1.5-.5,2.3-.2.8-.8,1.7-1.7,2.8s-2,2.2-3.3,3.3-3,2.3-5.3,3.7c-1.6,1-3.4,2-5.4,3,0,.3,0,.6,0,.9,0,.4-.5.7-.9.8-.3,0-.6.2-.9.3.3.8.8,1.9,1.6,3.2,1.8,3.2,2.8,6.1,2.8,8.7s-.5,3.4-1.7,6c-1.2,2.6-3.1,6.3-5.9,11.3-4.3,7.8-6.6,12.6-6.8,14.2,1.4-.4,3.8-1.8,7.2-4.3,2.1-1.6,6.1-4.8,11.9-9.6,4.6-3.7,8.2-6.6,10.9-8.8,2.7-2.1,6.3-5,10.9-8.3,4.6-3.3,8.9-6.2,13.1-8.7,3.3-2,6.4-3.6,9.5-5v-.3c-.6-5.7.3-10.3,2.8-13.9,2.5-3.6,5.6-5.8,9.5-6.7,1-.2,1.9-.3,2.8-.3,1.2,0,2.2.2,3.2.5,1.7.7,2.9,1.7,3.4,3.2.3.5.4,1.1.3,1.8,0,.8-.3,1.5-.5,2.3s-.8,1.7-1.7,2.8-2,2.2-3.3,3.3c-1.3,1.1-3,2.3-5.3,3.7-1.9,1.2-4.1,2.4-6.5,3.6.3.9.1,1.6-.7,2,.3.8.8,1.7,1.4,2.8,1.8,3.2,2.8,6.1,2.8,8.7s-.5,3.4-1.7,6-3.1,6.3-5.9,11.3c-4.3,7.8-6.6,12.6-6.8,14.2,1.4-.4,3.8-1.8,7.2-4.3,2.1-1.6,6.1-4.8,11.9-9.6,4.6-3.7,8.2-6.6,10.9-8.8,2.7-2.1,6.3-5,10.9-8.3s8.9-6.2,13.1-8.7c4.1-2.4,8.1-4.4,11.9-6,.3-.2.6-.4.9-.4s.6.1,1,.4c.9.6,1.1,1.4.4,2.3-2.8,4.1-5.2,7.8-7.1,11.1-1.9,3.3-3.3,5.8-4.1,7.5-.8,1.7-1.4,3.1-1.8,4.3s-.5,1.9-.5,2.2l.2.6c.2.1.4.2.8.2,1.4,0,4-1.2,8.1-3.4,3.4-1.8,9.3-5.5,17.6-10.9,11-7.3,18.4-11.7,22.2-13.3,0,0,0,0,0,0,.2-.8.7-1.3,1.5-1.3.9-.9,1.8-1.8,2.8-2.7,3.3-2.8,6.3-5,8.9-6.6,2.6-1.6,4.8-2.5,6.5-2.8,1.3-.1,2.3-.3,3.1-.3.3,0,.6,0,.9,0,.9.2,1.7.5,2.3.9,2.1,1.6,2.4,3.8,1.1,6.8-1.4,3.1-4.3,5.5-8.6,7.2-2.7,1-5.6,1.5-8.9,1.5s-4.4-.2-6.9-.6c-.2.3-.4.5-.7.7-4.2,4.4-7,8.6-8.6,12.7-1.7,4.3-1.8,7.5-.3,9.6.7,1.1,1.9,1.8,3.5,2.1s1,.1,1.6.1c1.4,0,3.2-.3,5.3-.8,2.9-.8,6.3-2.2,10-4.3,1.7-.9,4.4-2.5,8.3-4.8,12.4-7.5,23.8-13.5,34.3-18.1.8-.5,1.6-1,2.5-1.4,2.6-1.3,5.3-2.2,8.2-2.7,1.4-.2,2.7-.4,4.1-.4,1.5,0,2.9.1,4.4.5,2.8.5,5.1,1.7,6.9,3.5,7-6.8,16.3-16.7,27.8-29.6,8.5-9.4,14.3-15.6,17.5-18.6.7-.7,1.3-1,1.8-1M1135.3,80c4.1-2.1,7.5-4.1,10-6.1s4.1-3.6,4.8-4.7c.7-1.1.9-2,.7-2.7-.2-1-1.4-1.5-3.3-1.5s-1.4.1-2.1.2c-2.8.6-5.1,2.1-7.1,4.6h0c-2,2.6-3,6-3,10.2M1078,80c4.1-2.1,7.5-4.1,10-6.1s4.1-3.6,4.8-4.7c.7-1.1.9-2,.7-2.7-.2-1-1.4-1.5-3.3-1.5s-1.4.1-2.1.2c-2.8.6-5.1,2.1-7.1,4.6h0c-2,2.6-3,6-3,10.2M1239.1,81.9c3.3,0,6.1-.5,8.4-1.6,3.2-1.5,5.3-3.2,6.2-5.3.6-1.3.6-2.3,0-2.8-.3-.2-.7-.4-1.3-.4-.1,0-.2,0-.4,0-.5,0-1.2.2-2,.3-1,.2-2.1.7-3.4,1.3-1.3.6-2.8,1.5-4.6,2.8-1.8,1.3-3.7,2.8-5.7,4.5h0c0,0-.9,1-.9,1,1.3.1,2.6.2,3.8.2M998.3,105.7c.3,0,.9-.1,1.7-.3.8-.2,1.7-.6,2.8-1,1-.4,2.5-1.2,4.2-2.2,1.7-1,3.6-2.3,5.6-3.8l.8-.6h0c8.6-6.5,14.1-9.9,16.4-10-.6-.2-.9-.6-.9-1.3-.4-3.7-1.8-6-4.2-6.9-.6-.2,1.2-.2-2-.2s-6.9,2-11,5.9c-4,3.8-7.2,7.3-9.5,10.5-2.4,3.2-3.8,5.4-4.3,6.9-.5,1.4-.6,2.3-.3,2.7.1.2.4.3.7.3M1282.6,100c.7,0,1.7-.2,3-.5,1.5-.4,3.3-1.1,5.3-2.1s4.5-2.6,7.7-4.9c3.2-2.3,6.5-5.2,10.1-8.6,0,0,0,0,.2-.2,0-.1.2-.2.2-.2h0c0,0,.2,0,.2,0-2.1-1.9-4.9-2.9-8.7-2.9s-7.4.8-10.9,2.6c-.2.3-.5.5-.9.7-.5.2-1.1.5-1.6.7-2.4,1.5-4.3,3.2-5.8,5.2-1.9,2.6-2.8,4.9-2.7,7,0,1.5.6,2.5,1.9,3,.4,0,.9.3,1.6.3.1,0,.3,0,.4,0M1358.7,29.9c-1.1,0-2.2.5-3.3,1.6-3.1,2.9-8.7,8.9-17.6,18.7-10.7,12-19.6,21.5-26.4,28.2-1.8-1.4-4-2.3-6.4-2.7-1.6-.3-3.2-.5-4.8-.5s-2.9.1-4.4.4c-3.1.5-5.9,1.5-8.7,2.9-1,.4-1.8.9-2.6,1.4-10.6,4.6-22.1,10.8-34.4,18.2l-.7.4c-3.4,2-5.9,3.5-7.5,4.3h0s0,0,0,0c-3.3,1.9-6.6,3.3-9.5,4.1-1.8.5-3.5.8-4.8.8s-.9,0-1.2,0c-1.1-.2-1.8-.6-2.2-1.2h0s0,0,0,0c-1.3-1.9-.4-5.2.5-7.7,1.5-3.9,4.2-7.8,8.1-11.9,0,0,0,0,0,0,2.2.3,4.2.5,6.1.5,3.5,0,6.8-.6,9.7-1.7,4.8-1.9,8.1-4.7,9.7-8.2,2.1-4.9.2-7.7-1.7-9.2h0s0,0,0,0c-.8-.5-1.8-.9-3-1.2-.4,0-.8-.1-1.3-.1-.8,0-1.6,0-2.6.2h-.7c0,0,0,0,0,0h0c-2.1.4-4.5,1.4-7.2,3.1-2.8,1.7-5.9,4-9.1,6.8h0s0,0,0,0c-.9.8-1.7,1.6-2.4,2.3-.9.2-1.7.9-2.1,1.7-4.2,1.9-11.5,6.3-21.8,13.2-9,5.8-14.3,9.2-17.4,10.8-2.9,1.6-4.7,2.4-5.8,2.8,0,0,0,0,0,0,.3-1,.9-2.3,1.7-4.1.8-1.7,2.2-4.1,4-7.4,1.7-3,4-6.5,7-10.9.8-1.1.9-2.1.8-2.7-.1-.7-.5-1.6-1.6-2.4-.7-.5-1.4-.7-2.1-.7s-1.3.2-1.9.6c-3.9,1.7-7.9,3.7-11.9,6-4,2.4-8.2,5.2-13.3,8.8-3.7,2.7-6.8,5.1-9.3,7-.6.5-1.2.9-1.7,1.3-2.6,2.1-6,4.9-10.9,8.8-5.2,4.3-9.5,7.8-11.9,9.6-.8.6-1.5,1.1-2.1,1.5,1-2,2.4-4.8,4.6-8.8,2.6-4.6,4.6-8.5,6-11.4,1.3-2.7,1.9-5,1.9-6.8,0-2.9-1-6-3.1-9.7v-.2c-.3-.4-.6-.8-.7-1.2.2-.4.4-.8.4-1.3,2.1-1.1,3.9-2.1,5.5-3.1,2.3-1.4,4.1-2.7,5.5-3.9,1.4-1.2,2.6-2.4,3.6-3.6,1.2-1.5,1.8-2.5,2.1-3.6v-.4c.3-.7.4-1.4.5-2.1.1-1,0-2-.5-2.9-.7-1.9-2.2-3.3-4.5-4.2h0s0,0,0,0c-1.2-.4-2.5-.6-3.9-.6s-2.1.1-3.2.4c-4.4,1-7.9,3.5-10.7,7.5-2.6,3.8-3.7,8.4-3.2,14.1-2.9,1.4-5.7,2.9-8.4,4.5-3.9,2.3-8.1,5.1-13.2,8.8-3.7,2.7-6.8,5.1-9.3,7-.6.5-1.2.9-1.7,1.3-2.6,2.1-6,4.8-10.9,8.8-5.2,4.3-9.5,7.8-11.9,9.6-.8.6-1.5,1.1-2.1,1.5,1-2,2.4-4.8,4.6-8.8,2.6-4.6,4.6-8.5,6-11.4,1.3-2.7,1.9-5,1.9-6.8,0-2.9-1-6-3.1-9.7h0s0,0,0,0c-.2-.4-.5-.8-.6-1.1.5-.4.9-.9,1.1-1.5,0,0,0-.1,0-.2,1.7-.9,3.2-1.7,4.6-2.6,2.3-1.4,4.1-2.7,5.5-3.9,1.4-1.2,2.6-2.4,3.6-3.6,1.2-1.5,1.8-2.5,2.1-3.6v-.4c.3-.7.4-1.4.5-2.1.1-1,0-2-.5-2.9-.7-1.9-2.2-3.3-4.5-4.2h0s0,0,0,0c-1.2-.4-2.5-.6-3.9-.6s-2.1.1-3.2.4c-4.4,1-7.9,3.5-10.7,7.5-2.5,3.6-3.6,8.1-3.4,13.3-9,3.8-21.4,10.3-36.8,19.2-4,2.3-6.9,3.9-9,5,1.2-2.1,2.8-5,5.3-9,2.8-4.7,2.3-7.1,1.5-8.2.2-.6.3-1.2.3-2h0s0,0,0,0c-.7-5.9-3.3-9.7-7.7-11.3-1.2-.4-2.4-.6-3.7-.6s-3.5.4-5.3,1c-2.1.7-4.1,1.9-6.3,3.6-6.3,2.3-16.1,7.1-30,14.9-8.9,5-14.7,8.1-18.4,9.9,1.5-2.6,3.5-5.7,4.4-7.2,1.5-2.3,2.9-4.5,4-6.6,2.7-4.6,5.9-11.2,2.4-14.9h0s0,0,0,0c-1-.9-2.2-1.4-3.6-1.4-1.7,0-3.6.7-5.9,2.2-5.5,3.4-14,10.2-24.5,19.6-1.3,1.1-2.5,2.1-3.5,3,1.5-3.2,2.5-5.6,3.2-7.3,1.4-3.7,1.9-5.9,1.8-7.5,0-1.7-.6-3.2-1.8-4.3h0c0,0,0-.1,0-.1-.9-.7-2-1.1-3.3-1.1-1.9,0-4.3.9-7.1,2.7-4.1,2.6-11.4,8-21,15.7l-2.7,2.1c-1.5,1.2-2.9,2.3-4.1,3.2.5-.6,1-1.3,1.5-2,4.8-5.9,9.4-10.6,13.7-14.2.9-.7,1.4-1.5,1.5-2.4.1-.9-.2-1.8-.9-2.7-1-1.2-2.1-1.5-2.8-1.5-.8,0-1.5.3-2.3.8h0s0,0,0,0c-5.4,4.4-10.7,9.9-15.7,16.3-6.6,8.4-8.4,13.2-6.2,16.1h0s0,0,0,0c.9,1,2.1,1.6,3.5,1.6,2,0,5.6-1.1,16.4-9.6l2.6-2.1c3.4-2.7,6.1-4.8,7.9-6.2,2-1.6,4.2-3.3,6.9-5.3,3-2.2,5-3.5,6.2-4.3-.8,2.3-2.5,6.5-6.4,14.1-1.5,2.9-2.2,4.8-2.5,5.8-.4,1.7-.1,3.3.9,4.7l.2.3.3.2c.7.5,1.6.8,2.5.8,1.3,0,2.7-.5,4.2-1.5,2-1.4,5.9-4.5,11.9-9.7,10.1-8.8,17.5-14.8,22.6-18.1-.4.9-1.1,2.1-1.9,3.6h0s0,0,0,0c-.6,1.2-1.8,3.1-3.8,6.2h0s0,0,0,0c-3.3,5.4-5.3,8.7-6.3,11-.5,1.1-1.8,4.5.3,6.9.7.8,1.9,1.7,4.1,1.7s3.2-.4,5.2-1.3c4-1.7,10.9-5.4,20.4-10.8,4.5-2.5,8.8-4.9,12.8-7-1.1,1.5-2,2.9-2.8,4.3-2.9,5-3.4,8.9-1.3,11.5h0s0,0,0,0c1.2,1.4,3,2.2,5,2.2,4,0,9.4-2.7,17.2-8.4h0s0-.1,0-.1l.7-.7c2.5-1.9,4.7-3.5,6.5-4.7-2.4,4.1-4,7.1-4.8,9-.5,1.2-2,4.8.4,7.2.9.9,2.1,1.4,3.3,1.4s3.6-.7,6.2-2c2.8-1.5,7-3.7,11.4-6.2,15.1-8.7,26.6-14.7,35.1-18.3.3.7.7,1.3,1,1.9h0s0,0,0,0c1.4,2.4,2.1,4.5,2.2,6.2,0,.5-.7,3.1-7,14.6-.9,1.6-1.7,3.1-2.3,4.3-.7,1.3-1.3,2.4-1.8,3.3-1.1,2-1.9,3.8-2.4,5.4-.7,1.9-1,3.3-1,4.4s.7,2.6,1.4,3.4v.2c.1,0,.3.1.3.1.9.7,2.1,1.1,3.1,1.1,1.6,0,4.2-.6,10.9-5.6.9-.6,2-1.5,3.7-2.8,1.4-1,2.6-2,3.8-3.1.5-.4,1.1-1,1.9-1.6.8-.6,1.7-1.3,2.7-2.2,1.8-1.4,3.4-2.7,4.8-3.9,1.4-1.1,2.6-2.1,3.6-2.9,1.9-1.5,4.8-3.8,8.7-6.8,3.7-2.9,7-5.3,9.7-7,2.7-1.8,5.7-3.7,9.3-5.7,1.7-1,3.4-1.9,5.1-2.7.2.4.4.8.7,1.3,1.4,2.4,2.2,4.5,2.3,6.3,0,.5-.7,3.1-7,14.6-.9,1.6-1.7,3.1-2.3,4.3-.7,1.3-1.3,2.4-1.8,3.3-1.1,2-1.9,3.8-2.4,5.4-.7,1.9-1,3.3-1,4.4s.7,2.6,1.4,3.4v.2c.1,0,.3.1.3.1.9.7,2.1,1.1,3.1,1.1,1.6,0,4.2-.6,10.9-5.6.9-.6,2-1.5,3.7-2.8,1.4-1,2.6-2,3.8-3.1.5-.4,1.1-1,1.9-1.6.8-.6,1.7-1.3,2.7-2.2,1.8-1.4,3.4-2.7,4.8-3.9,1.4-1.1,2.6-2.1,3.6-2.9,1.9-1.5,4.8-3.8,8.7-6.8,3.7-2.9,7-5.3,9.7-7,2.2-1.5,4.7-3,7.5-4.7-.5.9-1,1.7-1.5,2.5-2.2,3.9-3.7,6.9-4.5,9.2-.8,2.3-1.1,4.1-1,5.4,0,1.3.5,2.5,1.3,3.7h0c0,.1.1.3.1.3,1.1,1.1,2.5,1.6,4.3,1.6,2.6,0,6.2-1.2,10.5-3.7,4.1-2.3,10.3-6.2,18.4-11.5,2.9-1.9,5.7-3.7,8.2-5.3-.3.7-.6,1.4-.9,2.1-2,5.5-1.9,10.1.5,13.6h0s0,0,0,0c2.1,2.9,5.4,4.4,9.7,4.4s11.2-2.2,17.6-5.8c1.8-1,4.8-2.7,8.6-4.9,6.6-4.1,13.2-7.8,19.6-11.1-.4,1.3-.6,2.5-.6,3.8h0s0,0,0,0c.1,3.7,2,6.4,5.3,7.7,1.3.5,2.7.8,4.2.8,3,0,6.5-1,10.5-3.2,5.7-3,12.1-7.8,18.9-14.4.3-.2.6-.5.9-.8.3-.2.5-.5.8-.8l.3-.3v-.2c4.4-4.1,9.5-9.3,15.4-15.7-9.6,14.2-16.7,25.2-20.8,32.3-6.2,10.8-7.7,16.8-4.8,19.5.9.9,2.1,1.3,3.3,1.3,1.8,0,4.9-.8,12.6-7,8.8-7,17.7-13.3,26.4-18.9,9.1-5.8,16.7-9.7,22.8-11.6.6-.2,1.2-.5,1.6-1l4.3,2.6-3.1-6.1c-.3-.6-.8-1.3-1.7-1.8-.6-.3-1.1-.4-1.7-.4s-.8,0-1.2.2c-4.2,1.3-9.2,3.5-14.9,6.6-6,3.3-11.3,6.6-16.3,10.1-5.2,3.7-9.3,6.6-12.3,8.7-3,2.1-5.6,4.2-8,6.2-1.7,1.4-3.1,2.4-4.2,3.1,1.6-3.4,4.8-9.3,11.3-19.3,5.3-8.4,14-21.3,26.6-39.4,5.5-7.8,8.4-12.2,9.4-13.7,2.3-3.3,3.3-4.9,3.7-5.9.5-1.5.3-2.9-.7-4.2v-.2c-.1,0-.3-.1-.3-.1-.7-.6-1.5-.9-2.4-.9h0ZM1145.7,67.2c.5,0,1.3-.2,1.7-.2.7,0,1.2,0,1.4.2,0,.2-.1.5-.4,1-.3.4-1.3,1.7-4.4,4.2-1.6,1.3-3.7,2.7-6.5,4.2.4-2.2,1.1-4,2.3-5.4l.4-.5h0c1.6-1.9,3.3-3,5.5-3.4h0ZM1088.4,67.2c.5,0,1.3-.2,1.7-.2.7,0,1.2,0,1.4.2,0,.2-.1.5-.4,1-.3.4-1.3,1.7-4.4,4.2-1.6,1.3-3.7,2.7-6.5,4.2.4-2.2,1.1-4,2.3-5.4l.4-.5h0c1.6-1.9,3.3-3,5.5-3.4h0ZM1240.3,79.9c.9-.7,1.8-1.4,2.7-2.1,1.6-1.2,3-2,4.3-2.6,1.1-.5,2.2-1,3-1.2h.4c.5-.2,1-.3,1.2-.3h0c0,.1,0,.2-.2.4h0s0,0,0,0c-.7,1.5-2.4,2.9-5.2,4.3-1.7.8-3.8,1.3-6.3,1.4h0ZM999.8,103.4s0,0,0,0c.4-1.2,1.7-3.3,4-6.4,2.2-3.1,5.2-6.4,9.3-10.2,3.7-3.5,7-5.3,9.6-5.3s.8,0,1.1,0c0,0,.1,0,.2,0,.6.2,2.4.9,2.9,5.1-2.5,1.1-6.8,3.7-14.7,9.6l-.8.6c-2,1.5-3.8,2.7-5.4,3.7-1.7,1-3.1,1.7-3.9,2.1-.4.1-.7.3-1,.4-.5.2-.9.4-1.3.5h0ZM1291,84.7c3-1.5,6.2-2.2,9.6-2.2s4,.4,5.5,1.1c-3.4,3.2-6.1,5.5-8.7,7.3-3.1,2.3-5.6,3.8-7.4,4.7-1.8.9-3.5,1.6-4.9,2-.8.2-1.9.5-2.5.5s0,0-.1,0h-.1s-.1,0-.1,0c-.3,0-.5,0-.8-.1,0,0-.1,0-.2,0-.3-.1-.5-.3-.5-1.1h0s0,0,0,0c0-1.6.7-3.5,2.3-5.7,1.3-1.7,3-3.2,5.1-4.6.2,0,.5-.2.7-.3.2-.1.5-.2.7-.3h0s0,0,0,0c.4-.2.9-.5,1.3-.9h0Z"/>
      </g>
    </g>
  </g>
</svg>